<?xml version="1.0" encoding="utf-8"?><svg version="1.1" id="logo" xmlns="http://www.w3.org/2000/svg" x="0" y="0" viewBox="0 0 600 600" style="enable-background:new 0 0 600 600" xml:space="preserve"><style>.st0{display:none}.st1{fill-rule:evenodd;clip-rule:evenodd;fill:#fff}.st1,.st2{display:inline}.st2,.st3{fill:#fff}</style><path class="st3" d="M242.8 235.8c-.1-.7-.7-1.1-1.3-1.1-.8 0-1.4.7-1.4 1.4-1.8 12.4-8.5 57.5-8.5 57.5-.1.7.4 1.3 1.1 1.3h17.6c.7 0 1.2-.7 1.1-1.4 0-.1-7.1-45.3-8.6-57.7zM341.7 220.6h-.9c-.5 0-.9.4-1 .8v94.5c0 .7.5 1.1 1.1 1.1h1.2c10.9 0 19.1-4.1 24.9-12.2 5.7-8.1 8.6-20 8.6-35.3 0-16.6-2.7-28.9-8.3-36.9-5.6-7.9-14.1-12-25.6-12zM125.7 256h1.5c7.9 0 13.5-1.5 17.2-4.6 3.7-3.1 5.5-7.8 5.5-14.2 0-6.8-1.9-11.7-5.6-14.9-3.8-3.2-9.6-4.8-17.3-4.8h-1.3c-.9 0-1.7.8-1.7 1.7v35.1c0 1 .7 1.7 1.7 1.7zM145.3 283.1c-3.6-3.1-9.5-4.7-17.6-4.7h-1.9c-.9 0-1.7.8-1.7 1.7v38.1h-.1c.5 0 1.2 0 2.2.1.9.1 1.7.1 2.2.1 7.9 0 13.5-1.6 17-4.7s5.3-8.1 5.3-14.9c0-7.4-1.8-12.6-5.4-15.7z"/><path class="st3" d="M576.7 151.4H23.3c-14.8 0-25.9 13.8-22.7 28.2l43.2 193.7c1.8 7.9 8.9 13.6 17 13.6h84.6c55.3.1 100.9 20.8 150.9 60.6 2.2 1.7 5.2 1.7 7.4 0 49.9-39.8 95.5-60.6 150.9-60.6h84.6c8.1 0 15.2-5.7 17-13.6l43.2-193.7c3.3-14.5-7.8-28.2-22.7-28.2zM177.8 320.3c-2.3 5.6-5.7 10.4-10 14.2-4.4 3.9-9.6 6.6-15.9 8.2-6.1 1.6-15.9 2.4-29.2 2.4H97.3c-1.6.1-2.9-1.2-2.9-2.8V195.7c0-1.6 1.3-2.9 2.9-2.9h26.9c20 0 34.1 3.1 42.4 9.3 8.3 6.2 12.4 16.7 12.4 31.3 0 8.3-1.6 15.1-4.7 20.4-2.6 4.4-6.4 8.2-11.4 11.1-1.2.8-1.1 2.4.2 3 5.8 2.6 10.1 6.3 13.1 11.1 3.5 5.7 5.3 13.1 5.3 22.4-.2 7-1.3 13.2-3.7 18.9zm110.7 25H264c-1.4 0-2.6-1-2.8-2.4l-4.5-23.5c-.1-.6-.6-.9-1.1-.9h-28.8c-.6 0-1 .4-1.1.9l-4.2 23.4c-.2 1.3-1.4 2.4-2.8 2.4h-24.4c-1.9 0-3.2-1.8-2.8-3.6L225.7 195c.3-1.3 1.5-2.3 2.8-2.3h27.3c1.3 0 2.6.9 2.8 2.3l32.7 146.6c.4 1.9-1 3.6-2.8 3.7zm111.2-37.4c-4.3 10.5-11 19.1-20.1 25.9-5.4 4.1-11.4 7.1-18.3 8.8-6.8 1.8-16.5 2.6-28.8 2.6h-20.1c-1.6 0-2.9-1.3-2.9-2.9V195.7c0-1.6 1.3-2.9 2.9-2.9h23.3c23.6 0 41.2 6.3 52.9 18.9 11.6 12.5 17.4 31.7 17.5 57.4 0 15.5-2.2 28.4-6.4 38.8zm105.6 37.4h-25.8c-1.2 0-2.3-.8-2.7-1.8l-22-55.5c-.5-1.2-2.3-.8-2.3.5v54.1c0 1.6-1.3 2.9-2.9 2.9h-23.7c-1.6-.2-2.9-1.5-2.9-3.1V195.7c0-1.6 1.3-2.9 2.9-2.9h28.8c17.5 0 30.2 3.4 38 10.3 7.9 6.8 11.8 17.7 11.8 32.7 0 10.8-2 19.6-6.1 26.2-3.8 6.2-9.5 10.7-17 13.5-.7.2-.9.9-.7 1.5l27.1 64.3c1 1.9-.4 4-2.5 4z"/><path class="st3" d="M456.5 216.2h-2.8c-.7 0-1.1.5-1.1 1.1v40.6c0 .7.5 1.1 1.1 1.1h2.3c6.6 0 11.6-1.9 14.9-5.6 3.3-3.7 5-9.1 5-16.3 0-7.3-1.5-12.6-4.6-16-3.1-3.2-8.1-4.9-14.8-4.9z"/></svg>