<?xml version="1.0" encoding="utf-8"?><svg xmlns="http://www.w3.org/2000/svg" xml:space="preserve" id="logo" x="0" y="0" style="enable-background:new 0 0 600 600" version="1.1" viewBox="0 0 600 600"><style>.st0{display:none}.st1{fill-rule:evenodd;clip-rule:evenodd;fill:#fff}.st1,.st2{display:inline}.st2,.st3,.st4{fill:#fff}.st4{fill-rule:evenodd;clip-rule:evenodd}.st5{display:inline}.st10,.st7,.st8,.st9{fill:#fff;stroke:#fff;stroke-width:.2;stroke-miterlimit:10}.st10,.st8,.st9{stroke-miterlimit:10.0001}.st10,.st9{stroke-miterlimit:9.9997}.st10{stroke-miterlimit:10.0004}.st13{display:inline;fill:#0c0c0c}</style><path d="M570.6 292.5h-4.4s-10.8-4.9-18.1-4.9-26.2 3.4-26.2 23c0 19.8 26.2 25.7 37.9 35.7 11.8 10 8.1 30.3-12.5 30.3-20.8 0-23.7-19.6-23.7-19.6h-2.7s2.9 14.9 3.2 18.6c0 0 11 7.1 21.1 7.1 10 0 33-5.4 33-26.4s-21.1-27.9-31.1-33.3c-10-5.4-14.7-10.3-14.7-17.1s7.3-13.5 19.1-13.5c11.5 0 19.3 14.9 19.3 14.9h2.9c-.4.2-2.6-8.9-3.1-14.8zm-92.3 56.6H443l-5.9 13.9c-4.2 10-3.2 12.7 8.3 13.7l-.2 2.9h-28.6v-3.2c9.8-1.7 11-6.9 14.9-15.7l32.1-74.4h2.2l31.3 75.1c3.4 8.1 5.9 14.4 15.7 14.9v2.9h-35.7V376c11.5-.5 10-5.9 6.4-14.9l-5.2-12zm-1.9-4.9L461 307.5l-15.7 36.7h31.1zm-256.3-54.6h36.7s29.1.5 32.6 22c3.4 21.5-17.1 26.2-17.1 26.2 28.6 21 47.2 54.1 86.9 54.1v2.7s-33 1.2-50.2-8.6-43.1-44.8-50.9-44.8h-12v30.3s0 4.9 4.9 4.9h7.8v3.2h-38.9v-3.2s12.7.7 12.7-13.2v-59.5s1.2-11.5-12.5-11.5v-2.6zm-78.1 0h63.6c1.2 7.8 4.2 17.6 4.2 17.6h-4.2s0-10.5-7.3-10.5h-29.1v30.8h27.7c4.7-.2 4.2-2.9 4.2-2.9h1V336h-1s.5-2.9-5.1-2.9h-26.7v35s-.2 4.6 5.1 4.6h20.3s8.6.5 14.9-11.7h4.7s-6.9 10.8-8.1 18.1h-64.4v-2.7h4.7s9.3 0 9.3-9.3v-61.7s1.2-13.2-14-13.2l.2-2.6zm103.8 6.6 10.3-.2c26.7-.7 26.9 38.9 1 38.9h-11.3v-38.7z" class="st4"/><path d="M220.1 274.9H21.8v2.7h198.3v-2.7zM578 391.6H374.8v2.7H578v-2.7zM578 274.9H332v2.7h246v-2.7zM296.7 391.6H21.8v2.7h274.9v-2.7zM331.9 379.4v-3.2c11 0 13-2 13-13.5V304c0-9.3-2.7-11.7-13-11.7v-2.7h36.5c13.5 0 23.7 1.5 30.6 4.6 7.1 2.9 12.7 7.8 16.9 15.2 4.2 7.1 6.4 15.4 6.4 24.7 0 12.5-3.7 23-11.3 31.3-8.6 9.3-21.5 13.9-38.9 13.9h-40.2zm25.8-6.6c5.6 1.2 10.3 2 14.2 2 10.3 0 18.6-3.7 25.5-10.8 6.6-7.1 10-16.9 10-29.1 0-12.5-3.4-22.3-10-29.4-6.9-7.1-15.4-10.8-25.9-10.8-3.9 0-8.6.7-13.5 2v76.1h-.3z" class="st3"/><path d="M252.6 192c23-10.5 57.8-14.2 60.2-29.1 5.1 28.6-36.5 31.3-61 41.3 0 0-18.6 5.9-14 17.6 0 0-4.4-10.3 15.4-15.7 16.4-3.7 38.2-3.2 39.7-12 2.2 12.7-10.3 15.9-24.2 17.9 1 1 1.5 2 1.5 2 2.9 3.9 6.9 3.4 11 8.6 3.9 4.9 9.8 9.1 9.8 9.1s6.4.5 7.1.7c.5 0 1.5 2 2.2 3.2.5.7.7 1-1 2-1.5 1-4.2 2.2-5.9 2-2.7-.2-2-1-4.9-2.9-2.2-1.7-10.3-4.9-16.6-9.8-4.2-3.2-2.7-3.2-7.6-5.1-3.9-1.5-8.1-4.4-11-7.3 3.4 19.1 11 10.3 26.9 41.6 2.7 5.1 10 11 11.8 12.2 5.1 7.3 24.2 35 32.6 36 1 .2 2-.5 2.9-.7 2.2-.7 2.9 2.9 3.7 6.4l2.4 11.7c1 4.9-1.2 9.3-2.7 9.1-1.5-.5-2.4-7.3-6.4-12-3.9-4.6-13-12.2-25.5-22.5s-15.4-13-19.3-18.1c-3.7-5.1-14.9-12.5-22.5-18.6-.7-.5-1.5-1.2-2.2-1.7-2.7-.2-5.1-.7-7.3-1.2l-.5-.2c-7.6-2-11.8-4.9-20.3-8.6l-.7-.2c6.9 4.2 10 13.2 17.1 13.5 1.7 0 2.9.2 3.7 1 1.7 1 2.2 9.3 3.2 12.7 1.5 3.9 1.5 9.5.2 11-1.2 1.5-2.4-2.7-6.4-8.8-5.4-8.8-20.8-16.1-24.5-18.8l-10.3-7.8c-5.9-4.4-5.9-12-1.2-14.2 7.8-3.7 18.6-2.4 26.9-1.5-23-26.7-6.6-37.2-9.1-44.5-.5-1.7-2-2.7-3.2-3.4-1.7-1-2.7-2.7-2.9-3.7-.2-1 .5-1.7 1.5-2 1-.2 1-1 1.2-1.5 0-.5.5-.5.7-.2 0 0-.2-1 .2-1 1.7-.5-.7-1.7 0-2.2.7-.5 2-.5 2.7-.7.7-.2 1.7-.5 2-1 .2-.5.5-1 1-1.2.5-.2 2.9-1.5 2.9-1.5.5-2.7 1.5-3.2 4.7-2.7 3.7.5 8.6 3.2 10.3 7.1-15.4 12-15.2 26.2-15.2 26.2 2.4-15.9 17.9-26.2 19.6-27.2 5.9-3.7 12-7.1 18.1-10.5 24-13.5 50.7-25.9 44.8-43.3 21.3 47-35.7 52.1-64.9 69 0 0-34 18.3-9.5 41.8.3-.4-23.2-21.2 12.8-40.3zM127.3 292.3h-5.9c-5.9.2-6.9 3.9-5.9 10.3l9.3 66.8c.7 4.6.5 7.1 6.1 7.1v2.7h-21.8v-2.7c4.7 0 4.2-2 3.7-5.9l-8.6-60.4-29.6 68.3-.2.7h-1.9l-.2-.7-30.1-68-8.2 59.1c-.5 4.2-1.2 7.1 3.7 7.1v2.7H22v-2.7c5.6 0 5.4-3.2 6.1-8.3l9.5-68.3c-2-4.4-3.7-7.8-9.5-7.8v-2.7h12.5c6.4 0 6.4 1 9.1 7.1l26.9 62.4 29.9-68.8.2-.7h20.6v2.7z" class="st4"/><path d="m192.2 416.6-4.4 19.3H186l-.2-4.9c0-1.5-.5-3.2-1-4.6-1.2-2.9-3.2-4.9-6.4-5.9-1.7-.5-3.4-.7-5.4-.7-5.1 0-9.8 1.5-13.7 4.2-5.1 3.7-9.1 8.8-11.8 15.4-2.4 5.4-3.4 11-3.4 16.6s1.7 10.3 4.9 13.7c3.4 3.4 7.8 5.4 13.5 5.4 7.8 0 14.4-3.7 19.8-11.3h2c-6.4 10-14.4 14.9-24.7 14.9s-17.4-3.9-21.5-11.7c-2-3.7-2.9-7.6-2.9-12 0-6.9 1.7-13.2 5.4-19.3 3.7-6.1 8.3-10.8 14.2-14.2 6.1-3.4 12.2-5.4 18.6-5.4 2.9 0 6.1.7 9.8 2.2 1.5.5 2.7 1 3.4 1 1.2 0 2.7-1 4.4-2.9h1.2v.2zm19.3-1.5-12.2 42.6c3.9-5.9 6.9-10 8.8-12.2 4.4-5.1 8.6-7.8 12.2-7.8 3.2 0 4.9 1.7 4.9 5.4 0 2-.5 4.2-1.2 7.1l-5.4 18.3c-.7 2.4-1 3.7-1 3.7 0 1 .5 1.5 1.2 1.5.5 0 .7-.2 1.2-.5 1.7-1.2 3.4-2.9 4.9-5.1l1.5.7c-2.7 4.2-5.6 7.3-8.8 9.1-1.2.7-2.4 1-3.4 1-2.4 0-3.7-1.2-3.7-3.7 0-1.2.5-3.7 1.5-7.3l5.1-17.6c.7-2.2 1-3.9 1-5.1 0-1.2-.7-2-2-2-2.4 0-5.9 2.7-9.8 7.8-1 1-3.2 4.6-7.1 11-1.2 2-2.2 4.2-2.9 6.6l-2.7 9.1H187l15.9-55.8c0-2-1-2.9-3.2-2.9-.5 0-1.2 0-2.4.2l-1 .2v-1.7l15.2-2.6zm55.6 36.5c0 4.6-1.2 9.1-3.7 13.5-2.4 4.2-5.6 7.6-9.5 10-4.2 2.4-8.3 3.9-12.2 3.9-4.2 0-7.3-1.2-9.8-3.9-2.4-2.7-3.7-5.9-3.7-10 0-4.6 1.2-9.1 3.9-13.5 2.4-4.2 5.9-7.6 9.8-10 4.2-2.4 8.1-3.9 12-3.9 3.9 0 7.1 1.2 9.8 3.9 2.2 2.6 3.4 5.8 3.4 10zm-7.1-3.2c0-5.6-2.4-8.6-7.1-8.6-4.9 0-9.1 3.7-12.7 10.5-3.2 6.1-4.7 11.7-4.7 17.1 0 5.9 2.4 8.8 7.3 8.8s9.1-3.7 12.5-10.8c3-6 4.7-11.6 4.7-17zm41.8 19.6c-5.9 7.1-12.2 10.5-19.1 10.5-4.2 0-7.3-1.2-9.5-3.4-2.4-2.2-3.7-5.4-3.7-9.5 0-4.6 1.2-9.3 3.9-13.7 2.4-4.2 5.9-7.6 9.8-10.3 4.2-2.7 8.3-4.2 12.5-4.2 6.4 0 9.5 2.4 9.5 7.1 0 1.7-.5 3.4-1.7 4.6-1 1-2 1.5-3.2 1.5-2.2 0-3.2-1-3.2-3.2 0-1 .5-2.2 1.7-3.2 1-1 1.5-1.7 1.5-2.4 0-1.7-1.5-2.4-4.4-2.4-6.4 0-11.5 3.9-15.7 11.7-2.4 4.4-3.7 9.1-3.7 13.5 0 6.4 3.2 9.8 9.5 9.8 4.7 0 9.3-2.7 14.2-7.8l1.6 1.4zm43.1-16.4c0 4.6-1.2 9.1-3.7 13.5-2.4 4.2-5.6 7.6-9.5 10-4.2 2.4-8.3 3.9-12.2 3.9s-7.3-1.2-9.8-3.9c-2.4-2.7-3.7-5.9-3.7-10 0-4.6 1.2-9.1 3.9-13.5 2.4-4.2 5.9-7.6 9.8-10 4.2-2.4 8.1-3.9 12-3.9 3.9 0 7.3 1.2 9.8 3.9 2.2 2.6 3.4 5.8 3.4 10zm-7.1-3.2c0-5.6-2.4-8.6-7.3-8.6s-9.1 3.7-12.7 10.5c-3.2 6.1-4.7 11.7-4.7 17.1 0 5.9 2.4 8.8 7.3 8.8 4.7 0 9.1-3.7 12.5-10.8 3.5-6 4.9-11.6 4.9-17zm31.6-33.3-15.2 52.4c-.7 2.4-1 4.2-1 4.9 0 1 .5 1.5 1.5 1.5.5 0 1.2-.2 1.7-.7 1.5-1.2 3.2-2.9 4.7-5.6l1.2 1.5c-4.7 6.6-8.8 10-12.5 10-2.7 0-3.9-1.2-3.9-3.9 0-1 .5-3.2 1.5-6.6l11.8-41.3c1-3.4 1.5-5.4 1.5-5.9 0-1.7-1.2-2.4-3.4-2.4-.7 0-1.7 0-3.2.2v-1.7l15.3-2.4zm36.5 22.5-9.5 34v1c0 1 .5 1.5 1.2 1.5 1.2 0 3.2-2 6.1-5.9l1.5 1c-4.2 6.1-8.3 9.3-12.2 9.3-2.4 0-3.7-1.2-3.7-3.7 0-1.5.2-3.4 1-5.6l1-3.4c-6.6 8.6-12.5 12.7-17.6 12.7-2.4 0-4.7-1-6.1-3.2-1.2-2-2-4.2-2-6.9 0-4.9 1.5-10 4.4-15.2 2.9-4.9 6.4-9.1 10.5-12 3.4-2.4 6.6-3.7 9.5-3.7 3.7 0 6.1 2 7.1 6.1l1.7-5.1 7.1-.9zm-15.7 2.2c-2 0-3.9 1-5.9 2.7-3.2 2.4-5.6 6.4-8.1 11.3-2.2 4.9-3.4 9.3-3.4 13.5 0 4.4 1.7 6.6 4.9 6.6s6.6-2.4 10.3-7.1c4.9-6.4 7.6-12.7 7.6-19.3 0-5.2-2-7.7-5.4-7.7zm37.5-12.9-3.4 12h7.1l-.7 2.7h-7.3l-7.3 25.9c-.7 2.9-1.2 4.6-1.2 5.4 0 1 .5 1.7 1.2 1.7s1.7-.5 2.9-1.5c.7-.5 2.2-2.4 4.7-5.4l1.5 1c-4.7 6.6-8.8 10-12.7 10-2.9 0-4.4-1.5-4.4-4.4 0-1.5.5-3.9 1.5-7.3l7.3-25.4H410l.5-1.7c3.7-1 6.6-2.7 9.1-4.9 2-1.7 3.9-4.4 6.1-8.3h2v.2zm9 34c-.2 1.5-.2 2.7-.2 3.7 0 2.7 1 4.9 2.7 6.6 2 1.7 4.2 2.7 6.9 2.7 3.9 0 8.8-2.2 14.9-7.1l1 1.2c-7.1 6.9-13.7 10.3-20.1 10.3-3.9 0-7.1-1.2-9.3-3.7-2.4-2.4-3.7-5.6-3.7-9.3 0-4.6 1.5-9.1 4.2-13.7 2.7-4.4 6.1-7.8 10-10.3 4.2-2.4 8.3-3.9 12.7-3.9 6.1 0 9.3 2.2 9.3 6.4 0 2.4-1 4.9-2.9 7.1-2.4 2.9-6.4 5.1-11.3 7.1-3.7 1.2-8.3 2.1-14.2 2.9zm.3-2.2c4.4-.5 8.1-1.5 10.8-2.4 7.3-3.2 11-7.3 11-12.2 0-2.7-1.5-4.2-4.4-4.2-4.2 0-7.8 2.2-11.3 6.6-2.9 3.6-4.9 7.5-6.1 12.2z" class="st3"/></svg>