<?xml version="1.0" encoding="utf-8"?>
<!-- Generator: Adobe Illustrator 28.3.0, SVG Export Plug-In . SVG Version: 6.00 Build 0)  -->
<svg version="1.1" id="logo" xmlns="http://www.w3.org/2000/svg" xmlns:xlink="http://www.w3.org/1999/xlink" x="0px" y="0px"
	 viewBox="0 0 600 600" style="enable-background:new 0 0 600 600;" xml:space="preserve">
<style type="text/css">
	.st0{display:none;}
	.st1{display:inline;fill-rule:evenodd;clip-rule:evenodd;fill:#FFFFFF;}
	.st2{display:inline;fill:#FFFFFF;}
	.st3{fill:#FFFFFF;}
	.st4{fill-rule:evenodd;clip-rule:evenodd;fill:#FFFFFF;}
</style>
<g class="st0">
	<path class="st1" d="M137.9,266.1h15.5v65.1H138v-65.1H137.9z M203.2,298.1H155l15.6-15.4h47.9v48.5H203v-33.1H203.2z"/>
	<path class="st1" d="M227.3,282.7h81.4v15.4l-15.4,15.4v-15.4h-50.8V316h66v15.4h-81.3C227.3,315.2,227.3,298.9,227.3,282.7z"/>
	<polygon class="st1" points="317.3,266.1 332.7,266.1 332.7,331.2 317.3,316 	"/>
	<path class="st1" d="M382,282.7h40.7v61.6l-17.3,15.4H382v-15.4h25.3v-13.1H382v-15.4h25.3v-17.9H382L382,282.7L382,282.7z
		 M341.3,282.7H382v15.4h-25.3V316H382v15.4h-40.7V282.7z M382,359.7h-40.7v-15.4H382V359.7z"/>
	<path class="st1" d="M431.7,282.7H513v15.4l-15.4,15.4v-15.4h-50.8V316h66v15.4h-81.2V282.7z"/>
	<polygon class="st1" points="521.6,282.7 537.8,282.7 537.8,298.1 553,282.7 585.2,282.7 569.9,298.1 537.8,298.1 537.8,331.2 
		521.6,331.2 	"/>
	<circle class="st2" cx="593" cy="273.2" r="7"/>
	<path class="st3" d="M593.3,268.6L593.3,268.6c0.8-0.1,1.6,0,2.3,0.2c0.4,0.2,0.8,0.5,1.1,0.8c0.3,0.4,0.4,1,0.4,1.5
		c0,0.6-0.2,1.2-0.6,1.7c-0.5,0.4-1.1,0.7-1.7,0.8c0.4,0.2,0.8,0.5,1.1,0.8c0.4,0.5,0.7,1,1.1,1.5l1.1,1.7h-2.1l-1.3-1.9
		c-0.4-0.6-0.8-1.1-0.8-1.3v-1.9h1.1c0.2,0,0.4-0.2,0.4-0.4c0.2-0.2,0.2-0.4,0.2-0.6c0-0.2,0-0.6-0.2-0.6s-0.4-0.2-0.6-0.4h-0.8
		v-1.9H593.3z M589.5,277.7v-8.9h3.6v1.5h-1.9v2.3h1.7v1.9l0,0c-0.2-0.2-0.4-0.2-0.6-0.4h-1.3v3.8h-1.5V277.7z"/>
	<path class="st4" d="M0,359.2V240.3h22.3l22.3,22.3H22.3V288h44.9v-25.3H44.9v-22.3h44.7v118.9H67.3l-22.3-22.3h22.3v-25.3H22.3
		v25.3h22.3v22.3H0z"/>
</g>
<g>
	<path class="st3" d="M169.5,284.7v-31.6H130v15.8h23.7v15.8h-15.8c-13.1,0-23.7-10.6-23.7-23.7c0-13.1,10.6-23.7,23.7-23.7h31.6
		v-15.8h-31.6c-21.8,1-38.8,19.5-37.8,41.3c0.9,20.5,17.3,36.9,37.8,37.8h31.6V284.7z"/>
	<path class="st3" d="M209.1,237.3c-17.5,0-31.6,14.2-31.6,31.6s14.2,31.6,31.6,31.6c17.5,0,31.6-14.2,31.6-31.6c0,0,0,0,0,0
		C240.7,251.4,226.5,237.3,209.1,237.3C209.1,237.3,209.1,237.3,209.1,237.3 M209.1,253.1c8.7,0,15.8,7.1,15.8,15.8
		c0,8.7-7.1,15.8-15.8,15.8c-8.7,0-15.8-7.1-15.8-15.8C193.3,260.2,200.3,253.1,209.1,253.1"/>
	<rect x="248.6" y="221.5" class="st3" width="15.8" height="79.1"/>
	<rect x="343.5" y="245.2" class="st3" width="15.8" height="55.4"/>
	<rect x="343.5" y="221.5" class="st3" width="15.8" height="15.8"/>
	<rect x="485.8" y="245.2" class="st3" width="15.8" height="55.4"/>
	<rect x="485.8" y="221.5" class="st3" width="15.8" height="15.8"/>
	<rect x="438.4" y="245.2" class="st3" width="15.8" height="55.4"/>
	<rect x="509.5" y="221.5" class="st3" width="15.8" height="79.1"/>
	<rect x="414.7" y="221.5" class="st3" width="63.3" height="15.8"/>
	<path class="st3" d="M387,300.4c-10.9,0-19.7-8.8-19.7-19.7h15.6c-0.1,2.2,1.6,4.1,3.9,4.2c2.2,0.1,4.1-1.6,4.2-3.9
		c0-0.1,0-0.2,0-0.4c0-0.9-0.5-1.5-6.2-4.2l-2.5-1.2c-6-2.9-15.1-7.3-15.1-18.3c-0.2-10.9,8.4-19.9,19.3-20.1
		c10.9-0.2,19.9,8.4,20.1,19.3c0,0.3,0,0.5,0,0.8H391c0.1-2.2-1.6-4.1-3.9-4.2c-2.2-0.1-4.1,1.6-4.2,3.9c0,0.1,0,0.2,0,0.4
		c0,1,2,2.2,6.3,4.3l2.5,1.2c6.3,3.1,15,7.2,15,18.3C406.6,291.7,397.8,300.4,387,300.4"/>
	<path class="st3" d="M74.6,221.5H50.9v15.8h11.9c2.2,0,4,1.8,4,4v11.9h15.8v-23.7C82.6,225,79,221.5,74.6,221.5L74.6,221.5"/>
	<path class="st3" d="M66.7,280.8c0,2.2-1.8,3.9-3.9,3.9c0,0,0,0,0,0H23.2c-2.2,0-4-1.8-4-3.9c0,0,0,0,0,0v-39.5c0-2.2,1.8-4,4-4
		l0,0H43v-15.8H11.4c-4.4,0-7.9,3.5-7.9,7.9c0,0,0,0,0,0v63.3c0,4.4,3.5,7.9,7.9,7.9c0,0,0,0,0,0h63.3c4.4,0,7.9-3.5,7.9-7.9
		c0,0,0,0,0,0V261H66.7V280.8z"/>
	<path class="st3" d="M319.8,221.5v63.3H304c-8.7,0-15.8-7.1-15.8-15.8c0-8.7,7.1-15.8,15.8-15.8c0,0,0,0,0,0h7.9v-15.8H304
		c-17.5,0.3-31.4,14.7-31.1,32.2c0.3,17.1,14,30.8,31.1,31.1h31.6v-79.1H319.8z"/>
	<path class="st3" d="M564.9,237.3c-17.5,0-31.6,14.1-31.7,31.6c0,17.5,14.1,31.6,31.6,31.7c8.2,0,16.1-3.2,22-8.9l-11.2-11.2
		c-6.4,6-16.4,5.6-22.4-0.7c-6-6.4-5.6-16.4,0.7-22.4c6.4-6,16.4-5.6,22.4,0.7c0.8,0.9,1.6,1.9,2.2,2.9h-32.9v15.8h49.8
		c4.4-16.9-5.8-34.2-22.8-38.5C570.2,237.6,567.5,237.3,564.9,237.3"/>
	<polygon class="st3" points="83.6,343.5 83.6,339.8 104.6,339.8 104.6,343.5 96.1,343.5 96.1,377.8 92.2,377.8 92.2,343.5 	"/>
	<path class="st3" d="M109.8,349.7h3.6v28.1h-3.6V349.7z M111.6,338.2c0.8,0,1.6,0.3,2.1,0.9c0.6,0.6,0.9,1.3,0.9,2.1
		c0,0.8-0.3,1.5-0.9,2.1c-1.2,1.2-3.1,1.2-4.2,0c-0.6-0.5-0.9-1.3-0.9-2.1C108.6,339.5,110,338.1,111.6,338.2"/>
	<rect x="121.3" y="338.9" class="st3" width="3.6" height="38.9"/>
	<path class="st3" d="M157.2,360.9c-0.4-1.7-1.1-3.2-2.1-4.6c-1-1.2-2.3-2.2-3.7-2.8c-1.5-0.7-3.2-1.1-4.8-1.1
		c-2.6-0.1-5.2,0.9-7.2,2.7c-1.6,1.6-2.8,3.6-3.3,5.8L157.2,360.9z M157.2,368.5l3.1,1.6c-0.9,1.8-2.1,3.4-3.5,4.7
		c-1.3,1.2-2.8,2.1-4.5,2.8c-1.8,0.6-3.7,1-5.6,0.9c-4.6,0-8.2-1.5-10.9-4.5c-2.5-2.8-3.9-6.4-3.9-10.2c0-3.5,1.1-6.8,3.3-9.5
		c2.7-3.5,6.9-5.5,11.2-5.3c4.5-0.2,8.8,1.9,11.6,5.5c2.1,2.7,3.2,6.1,3.1,9.6h-25.5c0,3,1.1,5.9,3.2,8c2,2.1,4.7,3.2,7.5,3.1
		c1.4,0,2.9-0.3,4.2-0.7c1.3-0.4,2.4-1.1,3.4-2C155.3,371.3,156.3,370,157.2,368.5"/>
	<polygon class="st3" points="182,339.8 186.4,339.8 196.2,355.5 205.9,339.8 210.3,339.8 198.2,359.7 198.2,377.8 194.4,377.8 
		194.4,359.7 	"/>
	<path class="st3" d="M230.2,352.5c-3,0-5.8,1.2-7.8,3.3c-2.1,2.1-3.3,5-3.3,8.1c0,2,0.5,4,1.5,5.7c0.9,1.7,2.3,3.1,4,4.1
		c3.5,1.9,7.7,1.9,11.2,0c1.7-1,3.1-2.4,4-4.1c1-1.7,1.5-3.7,1.5-5.7c0-3-1.1-5.9-3.3-8.1C236.1,353.7,233.2,352.5,230.2,352.5
		 M230.3,349c4.1-0.1,8.1,1.6,10.9,4.7c5.3,5.8,5.2,14.7-0.2,20.4c-5.9,5.9-15.4,5.9-21.3,0c-5.4-5.7-5.5-14.6-0.2-20.4
		C222.1,350.6,226.1,348.9,230.3,349"/>
	<path class="st3" d="M252.1,349.7h3.7v13.1c-0.1,2.2,0.1,4.4,0.5,6.6c0.5,1.7,1.5,3.1,3,4.1c1.6,1,3.4,1.5,5.3,1.5
		c1.8,0.1,3.6-0.5,5.2-1.5c1.4-0.9,2.4-2.3,2.9-3.8c0.4-1.1,0.5-3.4,0.5-6.9v-13.1h3.7v13.8c0,3.9-0.5,6.8-1.4,8.8
		c-0.9,1.9-2.3,3.5-4.1,4.6c-2.1,1.2-4.5,1.7-6.9,1.7c-2.4,0.1-4.8-0.5-6.9-1.7c-1.8-1.1-3.3-2.7-4.1-4.7c-0.9-2-1.4-4.9-1.4-8.9
		V349.7z"/>
	<path class="st3" d="M284.5,349.7h3.7v4.1c0.9-1.4,2.1-2.7,3.5-3.6c1.1-0.8,2.5-1.2,3.9-1.2c1.1,0,2.3,0.4,3.2,1l-1.9,3
		c-0.6-0.3-1.3-0.5-1.9-0.5c-1.3,0-2.6,0.6-3.5,1.5c-1.3,1.3-2.2,2.9-2.6,4.6c-0.5,1.6-0.7,4.8-0.7,9.7v9.5h-3.7V349.7z"/>
	<path class="st3" d="M322.6,374.2h4.4c5.3,0,9-0.3,11-1c2.8-0.8,5.2-2.6,6.8-5c1.7-2.6,2.6-5.7,2.5-8.9c0.1-3.3-0.8-6.6-2.7-9.4
		c-1.8-2.6-4.4-4.5-7.5-5.3c-2.4-0.7-6.4-1.1-11.9-1.1h-2.7V374.2z M318.9,377.8v-38h7.9c5.7,0,9.9,0.5,12.5,1.4
		c3.6,1.2,6.7,3.6,8.7,6.7c2.2,3.4,3.2,7.4,3.1,11.4c0.1,3.5-0.8,7-2.5,10c-1.5,2.7-3.7,4.9-6.5,6.4c-2.6,1.4-6.4,2.1-11.2,2.1
		H318.9z"/>
	<path class="st3" d="M357.5,349.7h3.7v4.1c0.9-1.4,2.1-2.7,3.5-3.6c1.1-0.8,2.5-1.2,3.9-1.2c1.1,0,2.3,0.4,3.2,1l-1.9,3
		c-0.6-0.3-1.3-0.5-1.9-0.5c-1.3,0-2.6,0.6-3.5,1.5c-1.3,1.3-2.2,2.9-2.6,4.6c-0.5,1.6-0.7,4.8-0.7,9.7v9.5h-3.7L357.5,349.7z"/>
	<path class="st3" d="M399.6,360.9c-0.4-1.7-1.1-3.3-2.1-4.6c-1-1.2-2.3-2.2-3.7-2.8c-1.5-0.7-3.2-1.1-4.8-1.1
		c-2.6-0.1-5.2,0.9-7.2,2.7c-1.6,1.6-2.8,3.6-3.3,5.8L399.6,360.9z M399.6,368.5l3.1,1.6c-0.9,1.8-2.1,3.4-3.5,4.7
		c-1.3,1.2-2.8,2.1-4.5,2.8c-1.8,0.6-3.7,1-5.6,0.9c-4.6,0-8.2-1.5-10.9-4.5c-5-5.5-5.2-13.9-0.6-19.7c2.7-3.5,6.9-5.5,11.2-5.3
		c4.5-0.2,8.8,1.9,11.6,5.5c2.1,2.7,3.2,6.1,3.1,9.6h-25.5c0,3,1.1,5.9,3.2,8c2,2.1,4.7,3.2,7.5,3.1c1.4,0,2.9-0.3,4.2-0.7
		c1.3-0.4,2.5-1.1,3.5-2C397.7,371.3,398.8,370,399.6,368.5"/>
	<path class="st3" d="M424.9,352.5c-2,0-3.9,0.5-5.6,1.5c-1.7,1-3.1,2.4-4.1,4.2c-2,3.5-2,7.8,0,11.4c1,1.7,2.4,3.2,4.1,4.2
		c1.7,1,3.6,1.5,5.6,1.5c2,0,3.9-0.5,5.7-1.5c1.7-0.9,3.2-2.3,4.1-4c1-1.8,1.5-3.7,1.4-5.8c0.1-3-1.1-6-3.2-8.2
		C430.8,353.6,427.9,352.4,424.9,352.5 M439.5,349.7v28.1h-3.6V373c-1.4,1.7-3.2,3.2-5.2,4.2c-5.6,2.6-12.2,1.5-16.5-2.9
		c-2.8-2.8-4.4-6.6-4.3-10.5c0-8.1,6.5-14.6,14.6-14.7c2.2,0,4.4,0.5,6.3,1.5c2,1.1,3.7,2.6,5,4.4v-5.2L439.5,349.7z"/>
	<path class="st3" d="M448.5,349.7h3.6v4.9c1-1.6,2.4-2.9,3.9-3.9c1.8-1.1,3.8-1.6,5.8-1.7c1.3,0,2.7,0.3,3.9,0.8
		c1.2,0.5,2.2,1.2,3,2.1c0.9,1.1,1.6,2.4,2,3.8c1.1-2,2.6-3.8,4.6-5c1.8-1.1,3.8-1.7,5.9-1.7c1.8,0,3.6,0.5,5.2,1.5
		c1.5,1,2.7,2.4,3.3,4.1c0.7,1.7,1.1,4.4,1.1,7.9v15.3h-3.7v-15.3c0-3-0.2-5.1-0.6-6.2c-0.4-1.1-1.2-2.1-2.2-2.7
		c-1.1-0.7-2.4-1.1-3.8-1c-1.7,0-3.4,0.5-4.8,1.6c-1.5,1-2.6,2.5-3.2,4.1c-0.7,1.7-1,4.6-1,8.6v11h-3.6v-14.4c0-3.4-0.2-5.7-0.6-6.9
		c-0.4-1.2-1.2-2.2-2.2-2.9c-1.1-0.8-2.4-1.1-3.8-1.1c-1.7,0-3.3,0.5-4.7,1.5c-1.5,1-2.6,2.4-3.3,4.1c-0.7,1.7-1.1,4.3-1.1,7.8v11.9
		h-3.6L448.5,349.7z"/>
	<path class="st3" d="M513.6,352.8l-2.3,2.4c-2-1.9-3.9-2.8-5.7-2.8c-1.1,0-2.2,0.4-3,1.2c-0.8,0.7-1.3,1.7-1.3,2.7
		c0,1,0.4,1.9,1,2.6c1.3,1.3,2.8,2.3,4.5,3c2.7,1.4,4.6,2.7,5.5,4c0.9,1.3,1.5,2.8,1.4,4.4c0,2.2-0.8,4.3-2.5,5.9
		c-1.6,1.6-3.8,2.5-6.1,2.4c-1.6,0-3.2-0.4-4.7-1.1c-1.4-0.7-2.7-1.7-3.7-2.9l2.3-2.6c1.9,2.1,3.8,3.1,5.9,3.1
		c1.4,0,2.7-0.5,3.7-1.4c0.9-0.8,1.5-2,1.5-3.3c0-1-0.4-2-1-2.8c-0.7-0.8-2.2-1.8-4.6-3c-2.6-1.3-4.3-2.6-5.2-3.9
		c-0.9-1.3-1.4-2.8-1.4-4.4c-0.1-2,0.7-3.9,2.2-5.3c1.5-1.4,3.5-2.2,5.6-2.1C508.3,349,511,350.3,513.6,352.8"/>
</g>
</svg>
