<?xml version="1.0" encoding="utf-8"?>
<!-- Generator: Adobe Illustrator 28.3.0, SVG Export Plug-In . SVG Version: 6.00 Build 0)  -->
<svg version="1.1" id="logo" xmlns="http://www.w3.org/2000/svg" xmlns:xlink="http://www.w3.org/1999/xlink" x="0px" y="0px"
	 viewBox="0 0 600 600" style="enable-background:new 0 0 600 600;" xml:space="preserve">
<style type="text/css">
	.st0{fill-rule:evenodd;clip-rule:evenodd;fill:#FFFFFF;}
	.st1{fill:#FFFFFF;}
</style>
<g>
	<path class="st0" d="M137.9,266.1h15.5v65.1H138v-65.1H137.9z M203.2,298.1H155l15.6-15.4h47.9v48.5H203v-33.1H203.2z"/>
	<path class="st0" d="M227.3,282.7h81.4v15.4l-15.4,15.4v-15.4h-50.8V316h66v15.4h-81.3C227.3,315.2,227.3,298.9,227.3,282.7z"/>
	<polygon class="st0" points="317.3,266.1 332.7,266.1 332.7,331.2 317.3,316 	"/>
	<path class="st0" d="M382,282.7h40.7v61.6l-17.3,15.4H382v-15.4h25.3v-13.1H382v-15.4h25.3v-17.9H382L382,282.7L382,282.7z
		 M341.3,282.7H382v15.4h-25.3V316H382v15.4h-40.7V282.7z M382,359.7h-40.7v-15.4H382V359.7z"/>
	<path class="st0" d="M431.7,282.7H513v15.4l-15.4,15.4v-15.4h-50.8V316h66v15.4h-81.2V282.7z"/>
	<polygon class="st0" points="521.6,282.7 537.8,282.7 537.8,298.1 553,282.7 585.2,282.7 569.9,298.1 537.8,298.1 537.8,331.2 
		521.6,331.2 	"/>
	<circle class="st1" cx="593" cy="273.2" r="7"/>
	<path class="st1" d="M593.3,268.6L593.3,268.6c0.8-0.1,1.6,0,2.3,0.2c0.4,0.2,0.8,0.5,1.1,0.8c0.3,0.4,0.4,1,0.4,1.5
		c0,0.6-0.2,1.2-0.6,1.7c-0.5,0.4-1.1,0.7-1.7,0.8c0.4,0.2,0.8,0.5,1.1,0.8c0.4,0.5,0.7,1,1.1,1.5l1.1,1.7h-2.1l-1.3-1.9
		c-0.4-0.6-0.8-1.1-0.8-1.3v-1.9h1.1c0.2,0,0.4-0.2,0.4-0.4c0.2-0.2,0.2-0.4,0.2-0.6c0-0.2,0-0.6-0.2-0.6s-0.4-0.2-0.6-0.4h-0.8
		v-1.9H593.3z M589.5,277.7v-8.9h3.6v1.5h-1.9v2.3h1.7v1.9l0,0c-0.2-0.2-0.4-0.2-0.6-0.4h-1.3v3.8h-1.5V277.7z"/>
	<path class="st0" d="M0,359.2V240.3h22.3l22.3,22.3H22.3V288h44.9v-25.3H44.9v-22.3h44.7v118.9H67.3l-22.3-22.3h22.3v-25.3H22.3
		v25.3h22.3v22.3H0z"/>
</g>
</svg>
