<?xml version="1.0" encoding="utf-8"?><svg xmlns="http://www.w3.org/2000/svg" xml:space="preserve" id="logo" x="0" y="0" style="enable-background:new 0 0 600 600" version="1.1" viewBox="0 0 600 600"><style>.st0{display:none}.st1{fill-rule:evenodd;clip-rule:evenodd;fill:#fff}.st1,.st2{display:inline}.st2,.st3,.st4{fill:#fff}.st4{fill-rule:evenodd;clip-rule:evenodd}.st5{display:inline}.st10,.st7,.st8,.st9{fill:#fff;stroke:#fff;stroke-width:.2;stroke-miterlimit:10}.st10,.st8,.st9{stroke-miterlimit:10.0001}.st10,.st9{stroke-miterlimit:9.9997}.st10{stroke-miterlimit:10.0004}.st13{display:inline;fill:#0c0c0c}</style><g id="Group_140"><g id="Group_139"><path id="Vector" d="M139.3 334.5v-8H57.2c-5.5 0-10.5-2.3-14.1-5.9-3.6-3.6-5.9-8.7-5.9-14.2 0-11.1 9-20.1 20-20.1H88v-8H43c-15.4 0-27.9 12.6-27.9 28 0 7.7 3.1 14.7 8.2 19.8 5.1 5.1 12 8.2 19.7 8.2l96.3.2z" class="st3"/><path id="Vector_2" d="M436.3 278.3h-22.1v48.2h-37.7c5.2-5.1 8.4-12.2 8.4-20.1 0-15.5-12.5-28-27.9-28h-68.4v-34.9l-22.1 7.5v75.6h-65.9c-8.1 0-14.7-6.6-14.7-14.7v-33.5h-22.1V347c0 3-2.4 5.4-5.4 5.4h-45.8v8h62.3c6.1 0 11-5 11-11.1v-18.4c3.2 2.3 7.1 3.7 11.3 3.7h239.1v-56.3zm-147.7 8h54.2c10.7 0 19.4 8.4 20 19v1.1c0 5.5-2.3 10.5-5.9 14.2-3.6 3.6-8.6 5.9-14.1 5.9h-54.2v-40.2z" class="st3"/><path id="Vector_3" d="M369 260.9c2.9-2.9 2.9-7.7 0-10.6-2.9-2.9-7.7-2.9-10.6 0-2.9 2.9-2.9 7.7 0 10.6 3 2.9 7.7 2.9 10.6 0z" class="st3"/><path id="Vector_4" d="M430.6 260.9c2.9-2.9 2.9-7.7 0-10.6-2.9-2.9-7.7-2.9-10.6 0-2.9 2.9-2.9 7.7 0 10.6 2.9 2.9 7.6 2.9 10.6 0z" class="st3"/></g><path id="Vector_5" d="M470.6 239.7v110.5H585V239.7H470.6zM572 337.2h-.9s-20.3-40.7-43.3-40.7c-23.1 0-43.3 40.7-43.3 40.7h-.9v-84.4h.9s20.9 40.7 44.3 40.7H572v43.7z" class="st3"/></g></svg>