<?xml version="1.0" encoding="utf-8"?>
<!-- Generator: Adobe Illustrator 28.3.0, SVG Export Plug-In . SVG Version: 6.00 Build 0)  -->
<svg version="1.1" id="logo" xmlns="http://www.w3.org/2000/svg" xmlns:xlink="http://www.w3.org/1999/xlink" x="0px" y="0px"
	 viewBox="0 0 600 600" style="enable-background:new 0 0 600 600;" xml:space="preserve">
<style type="text/css">
	.st0{fill:#FFFFFF;}
</style>
<g>
	<path class="st0" d="M40.6,236.2c8.3,0,16.5,0,24.8,0c21.3,7.2,35.6,21.5,42.8,42.8c0,8.3,0,16.5,0,24.8c-3.4,1.8-3.3,5.6-4.7,8.5
		c-10.3,22.1-33.4,34.9-56.9,31.5c-23.6-3.4-42.5-22.3-46.1-46c-3.5-23.3,9.5-46.6,31.5-56.9C35,239.5,38.8,239.6,40.6,236.2z
		 M60.5,267.2c3,7,4.4,14.1-0.2,21c-6.2-5.9-12.3-12-18.8-17.7c-4.1-3.5-6.9-11.3-13-9.1c-7.2,2.6-2.5,10.5-3.5,16
		c-1,5.5,2.9,13.4-8,13.6c-3.9,0.1-3.7,3.5-2.2,6.9c1.6,3.6,4.3,6.2,7.1,8.6c5.5,4.7,9.7,14.7,17.4,11.9c6.8-2.5,1.8-12.2,3-18.5
		c0.5-2.4-1.3-5.6,2.1-6.8c3-1.1,4.7,1.7,6.5,3.4c6.7,6.6,13.4,13.2,20,19.8c2.3,2.3,5,3.7,8.1,2.8c3.6-1,3.5-4.4,3.5-7.5
		c0-4.5,0.2-9,0-13.5c-0.2-5.8,0.1-10.3,8-10.2c5.1,0.1,5.3-3.8,2.4-6.9c-6.2-6.6-12.7-12.8-19.2-19c-2.9-2.8-5.5-0.7-8,1.2
		c-1.9,0.1-3.9,0.2-5.8,0.3c-3.1-2.5-6.3-4.5-9.5-0.3c-1.5,2-1.3,4.3,0.6,6C55,272.6,57.8,269.7,60.5,267.2z M59.5,314.6
		c-0.6-3-2.4-4.7-5.4-4.4c-3,0.3-4.8,2.2-4.5,5.2c0.3,2.9,2.3,4.6,5.3,4.3C58,319.5,59.3,317.5,59.5,314.6z"/>
	<path class="st0" d="M60.5,267.2c-0.2-1.2-0.4-2.5-0.6-3.7c1.9-0.1,3.9-0.2,5.8-0.3c0,7.3,0.1,14.6-0.1,21.9
		c-0.1,3.6-0.5,7.4-5.4,3.2C65,281.3,63.5,274.2,60.5,267.2z"/>
</g>
<g>
	<path class="st0" d="M173.7,315h-6.4l-19.2-33.3V315h-6.4v-44.9h6.4l19.2,33.3v-33.3h6.4V315z"/>
	<path class="st0" d="M212.2,270.1v6.4h-25.6v12.8h19.2v6.4h-19.2v12.8h25.6v6.4h-32v-44.9H212.2z"/>
	<path class="st0" d="M241,315l-12.8,0.1c-2.7,0-4.9-0.9-6.8-2.8c-1.9-1.9-2.8-4.1-2.8-6.8v-25.6c0-2.6,0.9-4.9,2.8-6.8
		c1.9-1.9,4.1-2.8,6.8-2.8H241c2.6,0,4.9,0.9,6.8,2.8c1.9,1.9,2.8,4.1,2.8,6.8v3.2h-6.4v-3.2c0-0.9-0.3-1.7-0.9-2.3
		c-0.6-0.6-1.4-0.9-2.3-0.9h-12.8c-0.9,0-1.7,0.3-2.3,0.9c-0.6,0.6-0.9,1.4-0.9,2.3v25.6c0,0.9,0.3,1.7,0.9,2.3
		c0.6,0.6,1.4,0.9,2.3,0.9H241c0.9,0,1.7-0.3,2.3-0.9c0.6-0.6,0.9-1.4,0.9-2.3v-6l-9.7-2.3l1.5-6.2l12.2,2.9
		c0.7,0.2,1.3,0.5,1.8,1.1c0.5,0.6,0.7,1.2,0.7,2v8.5c0,2.7-0.9,4.9-2.8,6.8C246,314.1,243.7,315,241,315z"/>
	<path class="st0" d="M269.9,308.6v-32h-9.6v-6.4h25.6v6.4h-9.6v32h9.6v6.4h-25.6v-6.4H269.9z"/>
	<path class="st0" d="M327.6,315h-6.4l-19.2-33.3V315h-6.4v-44.9h6.4l19.2,33.3v-33.3h6.4V315z"/>
	<path class="st0" d="M378.9,270.1l9.6,15.6l9.6-15.6h6.4V315h-6.4v-32.6l-6.4,10.4v3.9h-6.4v-3.9l-6.4-10.4V315h-6.4v-44.9H378.9z"
		/>
	<path class="st0" d="M433.3,315h-12.8c-2.6,0-4.9-0.9-6.8-2.8c-1.9-1.9-2.8-4.1-2.8-6.8v-25.6c0-2.6,0.9-4.9,2.8-6.8
		c1.9-1.9,4.1-2.8,6.8-2.8h12.8c2.6,0,4.9,0.9,6.8,2.8c1.9,1.9,2.8,4.1,2.8,6.8v25.6c0,2.7-0.9,4.9-2.8,6.8
		C438.3,314.1,436,315,433.3,315z M433.3,276.5h-12.8c-0.9,0-1.7,0.3-2.3,0.9c-0.6,0.6-0.9,1.4-0.9,2.3v25.6c0,0.9,0.3,1.7,0.9,2.3
		c0.6,0.6,1.4,0.9,2.3,0.9h12.8c0.9,0,1.7-0.3,2.3-0.9c0.6-0.6,0.9-1.4,0.9-2.3v-25.6c0-0.9-0.3-1.7-0.9-2.3
		C435,276.8,434.2,276.5,433.3,276.5z"/>
	<path class="st0" d="M449.4,270.1h32v6.4h-12.8V315h-6.4v-38.5h-12.8V270.1z"/>
	<path class="st0" d="M510.3,315h-12.8c-2.6,0-4.9-0.9-6.8-2.8c-1.9-1.9-2.8-4.1-2.8-6.8v-25.6c0-2.6,0.9-4.9,2.8-6.8
		c1.9-1.9,4.1-2.8,6.8-2.8h12.8c2.6,0,4.9,0.9,6.8,2.8c1.9,1.9,2.8,4.1,2.8,6.8v25.6c0,2.7-0.9,4.9-2.8,6.8
		C515.2,314.1,512.9,315,510.3,315z M510.3,276.5h-12.8c-0.9,0-1.7,0.3-2.3,0.9c-0.6,0.6-0.9,1.4-0.9,2.3v25.6
		c0,0.9,0.3,1.7,0.9,2.3c0.6,0.6,1.4,0.9,2.3,0.9h12.8c0.9,0,1.7-0.3,2.3-0.9c0.6-0.6,0.9-1.4,0.9-2.3v-25.6c0-0.9-0.3-1.7-0.9-2.3
		C511.9,276.8,511.2,276.5,510.3,276.5z"/>
	<path class="st0" d="M551.3,295.4l6.1,6.2c0.6,0.7,0.9,1.4,0.9,2.2V315h-6.4v-9.9l-9.2-9.3h-10.1V315h-6.4v-44.9h22.4
		c2.6,0,4.9,0.9,6.8,2.8c1.9,1.9,2.8,4.1,2.8,6.8v6.4c0,2.2-0.7,4.1-2,5.8C555.1,293.6,553.4,294.8,551.3,295.4z M532.7,289.4h16
		c0.9,0,1.7-0.3,2.3-0.9c0.6-0.6,0.9-1.4,0.9-2.3v-6.4c0-0.9-0.3-1.7-0.9-2.3c-0.6-0.6-1.4-0.9-2.3-0.9h-16V289.4z"/>
	<path class="st0" d="M587.2,315h-12.8c-2.6,0-4.9-0.9-6.8-2.8c-1.9-1.9-2.8-4.1-2.8-6.8v-2h6.4v2c0,0.9,0.3,1.7,0.9,2.3
		c0.6,0.6,1.4,0.9,2.3,0.9h12.8c0.9,0,1.7-0.3,2.3-0.9c0.6-0.6,0.9-1.4,0.9-2.3v-3.1c0-0.9-0.6-1.7-1.7-2.3l-18.9-9.1
		c-1.7-0.9-2.9-2.1-3.8-3.6c-0.9-1.5-1.3-2.9-1.3-4.3v-3.2c0-2.6,0.9-4.9,2.8-6.8c1.9-1.9,4.1-2.8,6.8-2.8h12.8
		c2.6,0,4.9,0.9,6.8,2.8c1.9,1.9,2.8,4.1,2.8,6.8v2h-6.4v-2c0-0.9-0.3-1.7-0.9-2.3c-0.6-0.6-1.4-0.9-2.3-0.9h-12.8
		c-0.9,0-1.7,0.3-2.3,0.9c-0.6,0.6-0.9,1.4-0.9,2.3v3.1c0,0.9,0.6,1.7,1.7,2.3l18.9,9.1c1.7,0.9,2.9,2.1,3.8,3.6
		c0.9,1.5,1.3,2.9,1.3,4.3v3.2c0,2.7-0.9,4.9-2.8,6.8C592.1,314.1,589.8,315,587.2,315z"/>
</g>
</svg>
