<?xml version="1.0" encoding="utf-8"?><svg xmlns="http://www.w3.org/2000/svg" xml:space="preserve" id="logo" x="0" y="0" style="enable-background:new 0 0 600 600" version="1.1" viewBox="0 0 600 600"><style>.st0{display:none}.st1{fill-rule:evenodd;clip-rule:evenodd;fill:#fff}.st1,.st2{display:inline}.st2,.st3{fill:#fff}</style><path d="M186.9 316.3c-2.5 5.9-5.9 10.9-10.1 14.3-4.2 3.4-9.2 5.9-13.4 8.4-5 1.7-10.1 2.5-15.1 2.5-6.7 0-12.6-.8-17.6-3.4-5-1.7-9.2-5-12.6-8.4-3.4-3.4-5.9-7.6-7.5-11.8-1.7-4.2-3.4-9.2-3.4-14.3 0-5 0-10.1.8-15.1h63.7c-.8-7.6-4.2-12.6-10.9-16-5.9-3.4-13.4-5-21.8-5-10.1 0-18.4 1.7-26.8 5.9v-16c8.4-4.2 18.4-5.9 30.2-5.9 13.4 0 25.1 4.2 34.4 11.8 9.2 7.6 13.4 18.5 13.4 32.8.9 7.6-.7 14.3-3.3 20.2zm-57.8 1.7c3.4 5 9.2 7.6 17.6 7.6 6.7 0 12.6-1.7 17.6-5.9 5-4.2 7.5-9.2 7.5-16h-46.9c-.8 4.2.8 9.3 4.2 14.3zM373.9 286.9h-35.2v-35.3h-19.3v35.3h-35.2v19.3h35.2v35.3h19.3v-35.3h35.2v-19.3zM270.8 252.4l-30.2 30.3-30.2-30.3-14.3 13.4 30.2 30.3-30.2 30.3 14.3 13.4 30.2-30.3 30.2 30.3 13.4-13.4-30.2-30.2 30.2-30.3-13.4-13.5zM70.4 251.6H0v89.1h19.3v-69.8h51.1v69.8h19.3v-89.1H70.4zM400.1 311.4c4.2-3.4 9.2-5.9 15.1-5.9s10.9 1.7 15.1 5.9c4.2 3.4 5.9 8.4 5.9 15.1 0 6.7-1.7 11.8-5.9 15.1-4.2 3.4-9.2 5.9-15.1 5.9s-10.9-1.7-15.1-5.9c-4.2-3.4-6.7-8.4-6.7-15.1.9-5.8 2.5-10.9 6.7-15.1zm23.5 8.4c-1.7-1.7-4.2-3.4-7.5-3.4-3.4 0-5.9.8-7.5 3.4-1.7 1.7-2.5 4.2-2.5 7.6s.8 5.9 2.5 7.6c1.7 1.7 4.2 3.4 7.5 3.4 3.4 0 5.9-.8 7.5-3.4 1.7-1.7 2.5-4.2 2.5-7.6s-.8-5.9-2.5-7.6zM447.9 346.7v-29.4h-6.7v-9.2h6.7v-2.5c0-5 1.7-9.2 5-11.8 3.4-2.5 7.5-4.2 12.6-4.2 4.2 0 9.2.8 13.4 3.4 3.4-3.4 8.4-5 14.3-5 4.2 0 9.2.8 13.4 2.5v10.1c-4.2-1.7-7.5-2.5-11.7-2.5-2.5 0-5 .8-6.7 1.7-1.7.8-2.5 3.4-2.5 5.9v3.4h26v39.5H500V319h-15.1v29.4h-11.7V319H458v29.4h-10.1v-1.7zm11.8-39.5h15.1v-6.8c-2.5-.8-5-1.7-7.5-1.7s-4.2.8-5.9 1.7c-1.7.8-1.7 2.5-1.7 5v1.8zM521.7 318.1c1.7-2.5 3.4-5 5-6.7 2.5-1.7 4.2-2.5 6.7-3.4 2.5-.8 5-1.7 8.4-1.7 4.2 0 8.4.8 11.7 2.5V319c-3.4-1.7-6.7-3.4-10.9-3.4-3.4 0-6.7.8-8.4 2.5-2.5 1.7-3.4 4.2-3.4 8.4 0 3.4.8 5.9 3.4 8.4 2.5 1.7 5 2.5 8.4 2.5 4.2 0 7.5-.8 10.9-2.5V345c-4.2 1.7-8.4 2.5-13.4 2.5-5.9 0-10.9-1.7-15.1-5-4.2-3.4-6.7-8.4-6.7-15.1 1.7-3.4 2.5-6.7 3.4-9.3zM561.9 317.3c.8-2.5 2.5-5 5-6.7 1.7-1.7 4.2-2.5 6.7-3.4 2.5-.8 4.2-.8 6.7-.8 4.2 0 7.5.8 10.1 2.5 2.5 1.7 5 3.4 6.7 5.9 1.7 2.5 2.5 5 2.5 7.6.8 2.5 0 5.9-.8 8.4H572c.8 2.5 2.5 5 5 5.9 2.5 1.7 5.9 1.7 9.2 1.7 4.2 0 8.4-.8 11.7-2.5v9.2c-4.2 1.7-8.4 2.5-14.3 2.5-6.7 0-11.7-1.7-15.9-5.9-4.2-3.4-6.7-8.4-6.7-15.1-.7-3.4.1-5.9.9-9.3zm26 .8c-1.7-1.7-3.4-2.5-6.7-2.5-2.5 0-5 .8-6.7 2.5-1.7 1.7-2.5 3.4-2.5 5.9h17.6c0-2.5-.8-4.2-1.7-5.9z" class="st3"/></svg>