<?xml version="1.0" encoding="utf-8"?><svg version="1.1" id="logo" xmlns="http://www.w3.org/2000/svg" x="0" y="0" viewBox="0 0 600 600" style="enable-background:new 0 0 600 600" xml:space="preserve"><style>.st0{display:none}.st1{fill-rule:evenodd;clip-rule:evenodd;fill:#fff}.st1,.st2{display:inline}.st2,.st3{fill:#fff}</style><path class="st3" d="M102.1 206.2c0-3.9.7-7.8 2.1-11.4 1.3-3.4 3.3-6.4 5.9-8.9 2.5-2.5 5.6-4.4 8.9-5.7 3.5-1.4 7.3-2 11-2h26.8v14.1H130c-1.9 0-3.8.3-5.6 1.1-3.3 1.4-5.9 4.1-7.2 7.5-1.4 3.8-1.4 8.1 0 11.9.6 1.7 1.6 3.3 2.9 4.7 1.2 1.3 2.7 2.3 4.4 3 1.8.7 3.7 1.1 5.6 1.1h18v-8.4h-9.2v-12.6h21.6v35H130c-3.8 0-7.6-.8-11.1-2.3-6.8-2.9-12.1-8.5-14.7-15.4-1.5-3.9-2.2-7.8-2.1-11.7zM74.3 178.1h13.9v57.2H74.3zM211.5 178.1v22.3h-23.1v-22.3h-13.8v57.3h13.8v-22.3h23.1v22.3h13.9v-57.3zM280.9 178.1h-41.6v12.7h13.9v44.6H267v-44.6h13.9zM60.4 178.1H46.6v34l-34.1-32.2c-2.7-2.6-7-2.4-9.6.3-1.2 1.2-1.8 2.9-1.8 4.6v50.6h13.3v-34.6l34.4 32.6c2.7 2.6 7 2.4 9.6-.3 1.2-1.2 1.8-2.9 1.9-4.6l.1-50.4zM3.8 249.3h31c1.4 0 2.6 1.2 2.6 2.6v167.4c0 1.4-1.2 2.6-2.6 2.6h-31c-1.4 0-2.6-1.2-2.6-2.6V251.9c0-1.4 1.1-2.6 2.6-2.6zM94 335.6l51.4-82.3c.8-1.2.4-2.8-.8-3.6-.4-.3-.9-.4-1.4-.4h-36.6c-.9 0-1.7.5-2.2 1.2l-51.9 83-.4.7-.8 1.4.8 1.4 52.3 83.7c.5.8 1.3 1.2 2.2 1.2h36.6c1.4 0 2.6-1.2 2.6-2.6 0-.5-.1-1-.4-1.4L94 335.6z"/><path class="st3" d="M430.5 417.9c.8 1.2.4 2.8-.8 3.6-.4.3-.9.4-1.4.4h-246c-.9 0-1.8-.4-2.3-1.2l-53-85.1 53.1-85.1c.5-.8 1.4-1.3 2.3-1.2h245.9c1.4 0 2.6 1.2 2.6 2.6 0 .5-.1 1-.4 1.4l-51.4 82.3 51.4 82.3zM194.8 265.8v139.5c0 1.4 1.2 2.6 2.6 2.6h31c1.4 0 2.6-1.2 2.6-2.6V265.8c0-1.4-1.2-2.6-2.6-2.6h-31c-1.4 0-2.6 1.2-2.6 2.6zm167.7-2.6h-31c-1.4 0-2.6 1.2-2.6 2.6v73.8L282 264.5c-.5-.8-1.3-1.2-2.2-1.2h-32.2c-1.4 0-2.6 1.2-2.6 2.6v139.5c0 1.4 1.2 2.6 2.6 2.6h31c1.4 0 2.6-1.2 2.6-2.6v-73.7l46.9 75.1c.5.8 1.3 1.2 2.2 1.2h32.2c1.4 0 2.6-1.2 2.6-2.6V265.8c0-1.4-1.1-2.6-2.6-2.6z"/><path class="st3" d="M513.8 317.3h85.1v18.4c.4 22.9-8.7 44.9-25 60.9-32.2 33.1-85.1 33.9-118.2 1.8l-1.8-1.8c-16.3-16-25.4-38-25-60.9-.4-22.9 8.7-45 25-61 15.5-16.5 37.3-25.7 59.9-25.3 27.7 0 50 11.1 67.1 33.3L551.6 305c-15.8-20.9-45.5-25-66.3-9.3-2 1.5-3.8 3.1-5.6 4.9-18.8 19.6-18.8 50.5 0 70 16.3 16.8 42.3 19.3 61.4 5.7 7.9-5.6 14-13.3 17.5-22.4h-44.9v-36.6z"/></svg>