<?xml version="1.0" encoding="utf-8"?><svg xmlns="http://www.w3.org/2000/svg" xml:space="preserve" id="logo" x="0" y="0" style="enable-background:new 0 0 600 600" version="1.1" viewBox="0 0 600 600"><style>.st0{display:none}.st1{fill-rule:evenodd;clip-rule:evenodd;fill:#fff}.st1,.st2{display:inline}.st2,.st3{fill:#fff}</style><path d="M178.3 381.8C149.7 374.6 121 368 92.6 360c-33.3-9.4-56.2-31.1-70.2-62.6v-42.5c18.4-41.5 43.1-79.4 68.9-116.6 6.6-9.6 1.9-14.1-4.1-19.5-14.5-13.2-29.1-26.4-43.9-39.3-6.3-5.5-9.1-11.1-8.2-20.4 3.2-32.8 2.8-33 36.2-34.8 24.3-1.3 48.7-2.4 73-4.4 11.3-.9 18.6 2.1 25.7 11.6 22.4 29.6 23.8 29.7 3.2 62.7-14.6 23.4 9.7 23.1 17.9 31.8 10.8 11.4 16.4 2.3 22.1-7.6 16.5-28.6 34.1-56.5 50.8-84.9 5.5-9.4 11.2-9.1 18.6-3 6 4.9 21.3 7.9 12.7 17.6-24.7 28-.4 35.9 16.7 47.6 1.3.9 2.2 2.2 3.3 3.3 0 6.6.5 13.6-9.1 14.1-37.4-20.5-37.4-20.5-59.7 16.6-24.4 40.4-24.4 40.4-63.4 14.3-3.3-2.2-6.8-4-9.6-6.7-14-13.1-22.6-8.8-31.8 6.7-17.7 29.5-37.7 57.6-55.9 86.9-29.8 48-16.5 92.4 34.7 116 19.1 8.8 39.1 15.8 58.7 23.6-.4 3.7-.7 7.5-.9 11.3zM75.5 65.9C86 77.8 93.9 86.3 101.3 95.2c8.9 10.8 15.7 11 20.8-3.1 2.8-7.8 12.4-15.3 8.1-23-4.5-7.9-15.5-2.5-23.6-3.1-9.7-.6-19.5-.1-31.1-.1z" class="st3"/><path d="M178.3 381.8c.3-3.8.6-7.7.8-11.5 31 12.2 63.2 17.5 96.2 21.6 72.5 9 139.7 35 203.1 70.9 32.9 18.6 63.2 40.8 90.8 66.8 10.3 9.7 12.6 15.4-1.2 24.5-11.2 7.3-25.3 12.4-30.9 26.7h-9.4c-13.1-30.8-39.4-49.7-64.6-68.7-60-45.3-127.6-76.5-198.4-101.1-28.7-9.9-57.6-19.4-86.4-29.2zM385.3 168.4C405.5 134 426.1 99.8 445.5 65c6.9-12.4 13.8-6.6 20.8-2.3 7.2 4.5 17.9 7.1 9.4 20.6-25.9 41-50.7 82.7-75.9 124.1-12.2-10.2 8-32.5-14.5-39z" class="st3"/><path d="M385.3 168.4c22.5 6.5 2.3 28.7 14.4 39.1-14.1 24.3-28.5 48.4-42 73-6.8 12.4-13.7 8.6-22.6 3.2s-15.3-9.7-7.7-21.6c19.9-30.9 38.7-62.4 57.9-93.7zM352.8 65.4c5.3-11.1 10.9-22.1 15.8-33.4 5.9-13.5 12.7-16.3 26.8-8.1 15.4 8.9 9.3 17.1 3.1 26.4-8.2 12.3-12.8 27.1-25.7 36.1-4.6-8.9-23.6-4.1-20-21zM324.1 224c-5 8.5-8.3 20.3-15.5 18.4-11.4-3-24.7-9-28.2-21.7-1.5-5.6 6.3-18.5 12.9-16.4 11.2 3.5 20.6 12.8 30.8 19.7zM367.9 99.8c-4 8.2-8.2 16.4-11.8 24.7-7.1 16.3-16.1 16.5-26.9 3.6.3-13.7 14.4-18.1 19.2-28.8 6.4.2 12.9.4 19.5.5z" class="st3"/><path d="M348.3 99.3c-4.7 10.7-18.9 15.1-19.2 28.8-10.6-.5-15.2-10.1-22.9-15 9.5-.5 9-7.5 9.1-14.1 15.7 8.6 16.7-7.7 23.7-13.9 3 4.7 10 6.9 9.3 14.2zM176.7 265c-7-4.4-21-5.4-11-18.7 5.1-6.9 8.6-24.3 22.8-8.3-3.2 9.4 5.3 23.8-11.8 27zM234.6 228.4c29 15.7 31.3 21.5 15.8 36.7-6.5 6.4-10.6 4-15.2-1.3 11.7-12 3.7-23.6-.6-35.4z" class="st3"/><path d="M348.3 99.3c.8-7.3-6.2-9.5-9.4-14.3 3-7.7 5.1-16 13.9-19.6-3.6 16.8 15.4 12 20 20.9.5 1.2.3 2.2-.6 3.2-4.2 2.2-5.1 5.8-4.5 10.2l.2.1c-6.6-.1-13.1-.3-19.6-.5zM176.7 265c17.1-3.2 8.7-17.6 11.8-26.9 5.7 3.4 11.9 3 18.1 2.7.3 6.3-1.1 13.6 8.9 13.6l.8.9-.9 4.5c-12.5-2-19.9 3.9-23.5 15.5-5.1-3.6-10.2-7-15.2-10.3zM234.6 228.4c4.3 11.7 12.3 23.4.6 35.4-4.6-3-9.2-6.1-13.9-9.1 9.8-9.7-7-22.9 4.1-32.4 3.1 2 6.1 4.1 9.2 6.1z" class="st3"/><path d="M191.9 275.1c3.6-11.5 10.9-17.5 23.5-15.5-6.3 7.6-4.4 27.6-23.5 15.5zM225.4 222.2c-11.1 9.6 5.6 22.7-4.1 32.4-1.7.2-3.4.3-5 .5l-.8-.9c1.6-7-1.5-12.8-4.4-18.7 3.9-5.3 3.9-14.8 14.3-13.3z" class="st3"/><path d="M211.1 235.6c3 5.9 6 11.8 4.4 18.7-10 .1-8.6-7.3-8.9-13.6 1.5-1.6 3-3.4 4.5-5.1zM367.7 99.7c-.6-4.3.3-8 4.5-10.2 1.1 4.6-.5 7.9-4.5 10.2z" class="st3"/></svg>