<?xml version="1.0" encoding="utf-8"?><svg version="1.1" id="logo" xmlns="http://www.w3.org/2000/svg" x="0" y="0" viewBox="0 0 600 600" style="enable-background:new 0 0 600 600" xml:space="preserve"><style>.st0{display:none}.st1{fill-rule:evenodd;clip-rule:evenodd;fill:#fff}.st1,.st2{display:inline}.st2,.st3,.st4{fill:#fff}.st4{fill-rule:evenodd;clip-rule:evenodd}.st5{display:inline}</style><path class="st4" d="M470.5 274.6v-26s-1.8-26.3 15.9-26.3 37.6 15.8 51.3 25.8 37.2 26.6 37.2 26.6l-104.4-.1zm-7.3 41.5v-76.2s-.8-37.8 27.5-37.8 73.5 40.7 85 49c11.5 8.4 20.9 14.2 20.9 24.3 0 10.1-7.6 17.4-20.2 17.4H470.3V312l-7.1 4.1zM400.3 205.1c-14.2 10.4 3.4 54.6 25.6 26.3 0 0 12.1 9.6 10.9 27.1-4.2 61.9-83.3 90.5-134.9 49.1v7.4s20.8 20.4 58.2 20.8c8.1.1 19.2-.3 19.2 11.3 0 0 26.3-3.4 45.9-25.5 50.8-57.1 2.1-136.4-24.9-116.5M138.2 260.3c-6.1 60.2-83.8 87.6-134.7 46.8v7.4s20.8 20.4 58.2 20.8c8.1.1 19.2-.3 19.2 11.3 49.5-6.5 69.5-54.6 65-98.6-.4-3.9-1.3-4.9-4-7.3-7.4-6.6-23.7-22.8-21.5-37.9.1-.5-.1-1.2-.7-.3-19.7 31.8 18.2 57.6 18.5 57.8"/><path class="st4" d="M138.2 261c-6.1 60.2-83.8 87.6-134.7 46.8v7.4s20.8 20.4 58.2 20.8c8.1.1 19.2-.3 19.2 11.3 49.5-6.5 69.5-54.6 65-98.6-.4-3.9-1.3-4.9-4-7.3-7.4-6.6-23.7-22.8-21.5-37.9.1-.5-.1-1.2-.7-.3-19.7 31.8 18.2 57.5 18.5 57.8M333.5 200.7c0 2.6.8 8.2 8 13.2 9.4 6.5 52.4 34.5 59.9 39.1 7.4 4.6 13.8 8.6 13.8 18.4 0 9.6-9 21.5-21 21.5h-57.1l-6.7-18.2h69.8s-46.4-30.5-58.2-37.6c-11.6-6.9-22.9-20.2-8.9-36.6.3-.9.4-.5.4.2"/><path class="st4" d="M505.8 176.1h90.8v-7.3h-90.9c.3 1.3.3 6.3.1 7.3m-300.7 38.1s15.5 13.4 33.2 26c17.7 12.7 45.9 34.3 45.9 34.3h-83.3s-26 4.3-26-26v-79.2l-17.3-10v86.6c0 12.4-2.3 46.8 42.8 46.8h81.1s10.8.4 14.7-6.6c4-6.9 10.7-18.2.7-25.5-10-7.3-63.7-45.7-76.5-58.3-12.8-12.4-14.4-14.3-14.4-19.6s3.6-6.7 42.2-6.7h216.3c-.1-1.2-.1-6.2 0-7.3H337.7c-3 0-10.9.5-10.9-9.3H222.4c-8.1 0-15.1.4-24.6 12.8-27.7 36.6 4.3 31.3-3.2 51.4-.4 1.1.3 1.5 1.2.9 2.8-1.1 7.3-4.5 9.3-10.3zM485.2 187.7c7.2 0 13.1-5.8 13.1-13.1 0-7.2-5.8-13.1-13.1-13.1-7.2 0-13.1 5.8-13.1 13.1 0 7.2 5.8 13.1 13.1 13.1M480.1 287.2l-9.6-12.7h-7.3s-15.9.1-15.9-16.3l-5.5 3.6s-.4 30.8 22.1 30.8l13.9-5.1 2.3-.3z"/><path class="st4" d="m336.8 282.1-4-7.6s-11.7.8-11.7-11.3c0-.8-6.5-1.5-6.5-2.4.3 9-3.1 31.8 22.4 31.8v-10.5h-.2z"/><path class="st4" d="m314.4 266.4 6.6 7.3v-15l-6.6-3.8z"/><path class="st3" d="M39.4 286.1c3.2-11.9 5.7-9.4 15.8-15.8 1.6-1.1 3.4-2.2 5-3.5 1.6-1.2 3.1-2.6 4.3-3.9 1.3-1.3 2.2-2.7 2.4-4-1.6.7-3.4 1.1-5.4 1.1-.9 0-2-.1-2.8-.4-.9-.3-1.8-.8-2.6-1.3s-1.3-1.3-1.8-2.2c-.4-.8-.7-1.9-.7-2.8 0-.7.1-1.2.5-1.8.8-1.5 1.3-2.7 1.9-3.5.5-.8.9-1.6 1.2-2.4l1.2-2.4c.4-.8.9-2 1.6-3.5.7-.9 1.3-1.8 2.3-2.4.9-.5 1.9-.9 3-.9 1.5 0 2.7.4 3.6 1.2.9.8 1.8 1.8 2.2 3 .5 1.2.9 2.6 1.1 3.9.1 1.3.3 2.7.3 3.8.7-.1 1.5-.5 2.3-1.1.8-.5 1.6-1.1 2.4-1.9.8-.7 1.5-1.5 2.2-2.2.7-.8 1.2-1.5 1.5-2 .1-.3.4-.7.7-1.2.3-.5.7-.8 1.1-.9.1.4.3.8.7 1.2.3.3.8.5 1.3.5.7 0 1.3-.1 2-.4.5-.3 1.1-.7 1.6-1.2s.9-1.1 1.2-1.6c.4-.7.7-1.2.9-1.8.1-.3.4-.5.5-.9.1-.4.4-.5.7-.7.1.4.3.7.7.8.3.1.7.1 1.1.1.7 0 1.1-.1 1.5-.5.4-.4.8-.9.9-1.5.3-.5.4-1.2.7-1.8.1-.7.3-1.1.5-1.6.1-.4.3-.9.5-1.5.3-.5.7-.8 1.1-.7-.1.4-.3.9-.3 1.5-.1.5-.1.9-.3 1.5-.1 1.3-.5 3-.9 4.7-.4 1.8-1.1 3.5-1.9 5.1s-1.8 3.1-3 4.2c-1.1 1.2-2.6 1.8-4.2 1.8-.4.7-.9 1.3-1.5 2-.7.7-1.3 1.2-2 1.5-.7.4-1.5.7-2.3.7s-1.5-.1-2.3-.5c-.5.7-1.1 1.2-1.9 1.9-.8.7-1.5 1.3-2.4 2-.8.7-1.6 1.2-2.6 1.8-.8.5-1.6.9-2.2 1.3-.4 1.5-.8 3-1.5 4.6-.5 1.5-1.2 3-1.9 4.3-.7 1.3-1.5 2.7-2.3 3.9-.8 1.2-1.8 2.2-2.6 2.8-.7.5-1.2.8-1.9.9-.7.1-1.1.3-1.6.3-1.2 0-2.6.3-3.9.7-2.3.7-7.7 2.6-11.1 4-1.3.7-1.6 1.5-.7 2 1.2.5 2.2 1.3 2.8 2.3 1.1 1.5 1.6 3.4 1.6 5.9 0 1.5-.3 3-.9 4.6-.7 1.6-1.5 3.1-2.6 4.6-1.1 1.3-2.3 2.6-3.6 3.4-1.3.9-2.8 1.3-4.5 1.3-2 0-3.6-.7-4.9-1.9-1.2-1.2-2-2.8-2.6-4.7-.5-2.6-.5-5.3-.1-8 .5-2.7 1.2-5.5 2.2-8.2.9-2.7 2.2-5.4 3.5-8.1 1.3-2.6 2.6-5 3.6-7.2-1.9 0-3.5-.4-4.7-1.2-1.2-.8-2.3-1.8-3-3.1-.7-1.3-1.2-2.7-1.5-4.3-.3-1.6-.4-3.2-.4-5 0-1.6 0-3.2.3-4.9.1-1.5.4-2.8.5-4 .3-1.5.7-3.2.9-5.4.4-2 .8-4.5 1.5-7.2.1-.4.3-.9.3-1.5.1-.5.3-1.1.7-1.8.5-.8.9-1.8 1.5-2.8.5-1.1.9-2 1.5-3.1.5-1.1.9-2 1.2-3.1.4-.9.7-1.9.9-2.6.8.8.7 3.8-.3 8.8-.1.9-.4 2.2-.8 3.8-.4 1.6-.7 3.4-1.1 5.4-.3 1.9-.5 3.9-.7 5.9-.1 2 0 3.8.3 5.5.3 1.6.9 3 1.9 4 .9 1.1 2.3 1.5 4 1.5 1.1 0 1.9-.3 2.6-.8.7-.5 1.1-1.1 1.5-1.6.4-.7.7-1.2.9-1.8.3-.5.5-.9.9-1.1.1.3.3.7.3 1.1v3c0 .5-.1.9-.1 1.2-.3 1.8-.8 3.4-1.3 4.7s-1.1 2.6-1.8 3.8-1.3 2.4-2 3.6c-.8 1.2-1.5 2.6-2.3 4.2-.3.5-.7 1.3-1.2 2.6-.5 1.1-1.1 2.4-1.5 3.9-.5 1.5-.9 3-1.3 4.5s-.5 3-.5 4.3.1 2.4.7 3.4c1.7 1 2.5 1.5 3.7 1.8M46.1 201.5c.5.7.7 1.8.3 3.1-.4 1.3-1.1 2.7-1.9 4.2-.8 1.3-1.9 2.7-2.8 3.8-1.1 1.1-2 1.8-2.8 2-2.8-3-6.5-5.5-11.2-7.7.5-.9 1.2-1.9 2.2-3.2.7-1.1 1.6-2.4 2.7-3.9 1.1-1.6 2.3-3.4 3.8-5.5 2.2.9 4 2 5.8 3.2 1.4 1.2 2.8 2.5 3.9 4"/><path class="st3" d="M72.7 160.3c.3-.5.5-.8.9-.8-.3 1.2-.5 2.6-.8 3.9-.1 1.5-.3 2.8-.1 3.9.3 6.2.3 12 0 17.3-.3 5.4-1.1 10.4-2.4 15.4-.9 3.5-2.2 7.2-3.8 10.8-1.6 3.6-3.4 7.2-5.5 10.5-2.2 3.4-4.5 6.5-7.2 9.3-2.7 3-5.5 5.4-8.8 7.6-3.1 2.2-6.6 3.9-10.3 5.1-3.6 1.2-7.6 1.9-11.7 1.9-3.5 0-6.5-.7-8.9-1.9-2.4-1.3-4.6-3-6.1-5.1-1.6-2.2-2.7-4.7-3.5-7.6-.8-2.8-1.1-5.8-1.1-8.9 0-3.1.3-6.2.9-9.2.7-3.1 1.5-6.1 2.7-9 1.1-3 2.4-5.8 3.9-8.6s3-5.5 4.6-8.1c.3-.5.5-1.1.8-1.5.3-.4.4-.8.7-1.1.3-.3.4-.7.4-.8.4.7.3 1.9-.5 3.6-.8 1.6-1.5 3.1-2.2 4.6-.7 1.5-1.3 3-2 4.5s-1.2 3-1.6 4.6c-.4 1.6-.9 3.2-1.2 5-.7 3.8-.7 7.2-.3 10.3.5 3.1 1.6 5.7 3.2 8 1.6 2.2 3.9 3.9 6.6 5.1 2.7 1.2 6.1 1.8 10 1.8 3 0 6.1-.4 9.3-1.3 3.2-.9 6.3-2.3 9.3-4.2 3-1.9 5.8-4.2 8.4-6.9 2.6-2.7 4.9-5.9 6.6-9.4 1.8-3.5 3.1-7.6 3.9-12 .8-4.5.9-9.3.4-14.6-.3-2.8-.4-5.1-.3-7.2.1-2 .4-3.6 1.1-4.9.3-.7.7-1.5 1.2-2.6.4-.8.8-1.9 1.3-3.1.8-1.2 1.3-2.7 2.1-4.4"/><path class="st4" d="M3.5 371.1h592.9v3.1H3.5zM3.5 437.6h592.9v3.1H3.5z"/><path class="st3" d="M564.1 405H566c4.3 0 7.6-.9 9.7-2.8 2.2-1.9 3.2-4.3 3.2-7.2 0-2.8-.9-5.1-2.6-6.9-1.8-1.8-4-2.7-7-2.7-1.2 0-3 .3-5.3.7l.1 18.9zm32.3 23.3h-12.1L568.8 407c-1.1 0-2 .1-2.7.1h-2v13.2c0 2.8.3 4.6.9 5.3.8.9 2.2 1.5 3.8 1.5h1.8v1.2h-19.4v-1.2h1.8c1.9 0 3.2-.7 4.2-1.9.4-.7.7-2.3.7-4.9v-29.4c0-2.8-.3-4.6-.9-5.3-.8-.9-2.2-1.5-3.9-1.5h-1.8V383h16.6c4.9 0 8.4.4 10.7 1.1 2.3.7 4.2 2 5.8 3.9 1.6 1.9 2.4 4.2 2.4 6.7 0 2.8-.9 5.3-2.7 7.3-1.9 2-4.6 3.5-8.5 4.3l9.4 13.1c2.2 3 4 5 5.5 5.9 1.5.9 3.5 1.6 6.1 1.9v1.1h-.2zm-65.6-17.7-7.7-18.4-7.8 18.4h15.5zm1.1 2.6h-17.7l-3.1 7.2c-.8 1.8-1.1 3.1-1.1 3.9 0 .7.3 1.3.9 1.9.7.5 2 .8 4.3 1.1v1.2H501v-1.2c1.9-.3 3.1-.8 3.6-1.3 1.1-1.1 2.4-3.2 3.8-6.5l16.1-37.4h1.1l15.8 37.8c1.2 3.1 2.4 5 3.5 5.9 1.1.9 2.4 1.3 4.3 1.5v1.2h-17.9v-1.2c1.8-.1 3-.4 3.6-.9.7-.5.9-1.1.9-1.9 0-.9-.4-2.6-1.3-4.7l-2.6-6.6zm-60.6-10.1 16.7 16.6c2.7 2.8 5.1 4.7 7 5.7 1.9.9 3.9 1.6 5.8 1.8v1.2h-21.6v-1.2c1.3 0 2.3-.3 2.8-.7.5-.4.8-.9.8-1.5 0-.5-.1-1.1-.3-1.5-.3-.4-.9-1.2-2.2-2.4l-15.7-15.5v14.7c0 2.3.1 3.8.4 4.6.3.5.7 1.1 1.5 1.5.9.5 2 .8 3.1.8h1.6v1.2H452v-1.2h1.6c1.9 0 3.2-.5 4-1.6.5-.7.8-2.4.8-5.1v-29.4c0-2.3-.1-3.8-.4-4.6-.3-.5-.7-.9-1.3-1.3-.9-.5-2-.8-3.1-.8H452V383h19.4v1.2h-1.6c-1.1 0-2.2.3-3.1.8-.7.4-1.2.9-1.5 1.6-.3.7-.4 2.2-.4 4.5V405c.4-.4 2-1.9 4.6-4.3 6.6-6.1 10.7-10.1 12-12.1.5-.9.9-1.6.9-2.3 0-.5-.3-.9-.7-1.3-.4-.4-1.2-.5-2.4-.5h-1.1v-1.2h16.7v1.2c-.9 0-1.9.1-2.7.4-.8.3-1.8.7-3 1.5-1.2.7-2.6 1.9-4.3 3.5-.5.4-2.8 2.7-6.9 6.9l-6.6 6.3zm-55.9 21.8c2.8.7 5.3.9 7.2.9 5.1 0 9.4-1.8 12.8-5.5 3.4-3.6 5.1-8.6 5.1-14.8 0-6.3-1.8-11.2-5.1-14.8-3.4-3.6-7.8-5.4-13.1-5.4-2 0-4.3.3-6.9.9v38.7zm-12.9 3.4v-1.2h1.8c1.9 0 3.2-.7 4-1.9.5-.7.7-2.4.7-5v-29.4c0-2.8-.3-4.6-.9-5.3-.8-.9-2.2-1.5-3.9-1.5h-1.8v-1.2h18.5c6.7 0 12 .8 15.5 2.3 3.5 1.5 6.3 4.2 8.5 7.7 2.2 3.6 3.2 7.8 3.2 12.4 0 6.3-1.9 11.6-5.8 15.9-4.3 4.7-10.9 7.2-19.7 7.2h-20.1zm-26.3-44.1c-4 0-7.3 1.5-9.7 4.6-3.1 3.8-4.6 9.3-4.6 16.5 0 7.4 1.6 13.1 4.7 17.1 2.4 3.1 5.7 4.6 9.6 4.6 4.3 0 7.8-1.6 10.5-5 2.8-3.4 4.2-8.6 4.2-15.8 0-7.8-1.5-13.6-4.6-17.4-2.4-3.1-5.8-4.6-10.1-4.6zm.6-2.4c5.9 0 11.1 2.3 15.2 6.7 4.3 4.5 6.5 10.1 6.5 16.7 0 6.9-2.2 12.7-6.5 17.1-4.3 4.6-9.6 6.9-15.8 6.9s-11.5-2.3-15.8-6.6c-4.3-4.5-6.3-10.3-6.3-17.3 0-7.2 2.4-13.1 7.4-17.7 4.3-3.8 9.4-5.8 15.3-5.8zm-60.4 22.1h21v-13.1c0-2.3-.1-3.8-.4-4.6-.3-.5-.7-1.1-1.5-1.5-.9-.5-2-.8-3.1-.8h-1.6v-1.2h19.4v1.2h-1.6c-1.1 0-2.2.3-3.1.8-.7.4-1.2.9-1.5 1.6-.3.7-.4 2.2-.4 4.5v29.4c0 2.3.1 3.8.4 4.6.3.5.7 1.1 1.3 1.5.9.5 2 .8 3.1.8h1.6v1.2h-19.4v-1.2h1.6c1.9 0 3.2-.5 4-1.6.5-.7.8-2.4.8-5.1v-13.9h-21v13.9c0 2.3.1 3.8.4 4.6.3.5.7 1.1 1.3 1.5.9.5 2 .8 3.1.8h1.6v1.2H303v-1.2h1.6c1.9 0 3.2-.5 4-1.6.5-.7.8-2.4.8-5.1v-29.4c0-2.3-.1-3.8-.4-4.6-.3-.5-.7-1.1-1.3-1.5-.9-.5-2-.8-3.1-.8H303V383h19.4v1.2H321c-1.1 0-2 .3-3.1.8-.7.4-1.2.9-1.5 1.6-.3.7-.4 2.2-.4 4.5v12.8h.4zm-43.2-.8 16.7 16.6c2.7 2.8 5.1 4.7 7 5.7 1.9.9 3.9 1.6 5.8 1.8v1.2h-21.6v-1.2c1.3 0 2.3-.3 2.8-.7.5-.4.8-.9.8-1.5 0-.5-.1-1.1-.3-1.5-.3-.4-.9-1.2-2.2-2.4l-15.7-15.5v14.7c0 2.3.1 3.8.4 4.6.3.5.7 1.1 1.5 1.5.9.5 2 .8 3.1.8h1.6v1.2h-19.4v-1.2h1.6c1.9 0 3.2-.5 4-1.6.5-.7.8-2.4.8-5.1v-29.4c0-2.3-.1-3.8-.4-4.6-.3-.5-.7-.9-1.3-1.3-.9-.5-2-.8-3.1-.8h-1.6V383h19.4v1.2h-1.6c-1.1 0-2.2.3-3.1.8-.7.4-1.2.9-1.5 1.6-.3.7-.4 2.2-.4 4.5V405c.4-.4 2-1.9 4.6-4.3 6.6-6.1 10.7-10.1 12-12.1.5-.9.9-1.6.9-2.3 0-.5-.3-.9-.7-1.3-.4-.4-1.2-.5-2.4-.5h-1.1v-1.2h16.7v1.2c-.9 0-1.9.1-2.7.4-.8.3-1.8.7-3 1.5-1.2.7-2.6 1.9-4.3 3.5-.5.4-2.8 2.7-6.9 6.9l-6.4 6.3zm-88.1-20.3h12.3l27.8 34.1v-26.3c0-2.8-.3-4.6-.9-5.3-.8-.9-2.2-1.3-3.9-1.3h-1.6v-1.2h15.9v1.2H233c-1.9 0-3.4.5-4.2 1.8-.5.7-.8 2.3-.8 4.9V429h-1.1l-30-36.6v28.1c0 2.8.3 4.6.9 5.3.8.9 2.2 1.3 3.9 1.3h1.6v1.2h-15.9v-1.2h1.6c2 0 3.4-.5 4.2-1.8.5-.7.8-2.3.8-4.9v-31.7c-1.3-1.5-2.3-2.6-3-3.1-.7-.5-1.6-.9-3-1.3-.7-.1-1.6-.3-3-.3v-1.2h.1zm-18.2 27.8-7.7-18.4-7.8 18.4h15.5zm.9 2.6h-17.7l-3.1 7.2c-.8 1.8-1.1 3.1-1.1 3.9 0 .7.3 1.3.9 1.9.7.5 2 .8 4.3 1.1v1.2h-14.3v-1.2c1.9-.3 3.1-.8 3.6-1.3 1.1-1.1 2.4-3.2 3.8-6.5l16.1-37.4h1.1l15.8 37.8c1.2 3.1 2.4 5 3.5 5.9 1.1.9 2.4 1.3 4.3 1.5v1.2h-17.9v-1.2c1.8-.1 3-.4 3.6-.9.7-.5.9-1.1.9-1.9 0-.9-.4-2.6-1.3-4.7l-2.5-6.6zm-66.8-9.3h21v-13.1c0-2.3-.1-3.8-.4-4.6-.3-.5-.7-1.1-1.5-1.5-.9-.5-2-.8-3.1-.8h-1.6v-1.2h19.4v1.2h-1.6c-1.1 0-2.2.3-3.1.8-.7.4-1.2.9-1.5 1.6-.3.7-.4 2.2-.4 4.5v29.4c0 2.3.1 3.8.4 4.6.3.5.7 1.1 1.3 1.5.9.5 2 .8 3.1.8h1.6v1.2h-19.4v-1.2h1.6c1.9 0 3.2-.5 4-1.6.5-.7.8-2.4.8-5.1v-13.9h-21v13.9c0 2.3.1 3.8.4 4.6.3.5.7 1.1 1.3 1.5.9.5 2 .8 3.1.8h1.6v1.2H87.8v-1.2h1.6c1.9 0 3.2-.5 4-1.6.5-.7.8-2.4.8-5.1v-29.4c0-2.3-.1-3.8-.4-4.6-.3-.5-.7-1.1-1.3-1.5-.9-.5-2-.8-3.1-.8h-1.6V383h19.4v1.2h-1.6c-1.1 0-2 .3-3.1.8-.7.4-1.2.9-1.5 1.6s-.4 2.2-.4 4.5v12.8h.4zm-39.2-19.7c-4 0-7.3 1.5-9.7 4.6-3.1 3.8-4.6 9.3-4.6 16.5 0 7.4 1.6 13.1 4.7 17.1 2.4 3.1 5.7 4.6 9.6 4.6 4.3 0 7.8-1.6 10.5-5 2.8-3.4 4.2-8.6 4.2-15.8 0-7.8-1.5-13.6-4.6-17.4-2.4-3.1-5.8-4.6-10.1-4.6zm.7-2.4c5.9 0 11.1 2.3 15.2 6.7 4.3 4.5 6.5 10.1 6.5 16.7 0 6.9-2.2 12.7-6.5 17.1-4.3 4.6-9.6 6.9-15.8 6.9-6.2 0-11.5-2.3-15.8-6.6-4.3-4.5-6.3-10.3-6.3-17.3 0-7.2 2.4-13.1 7.4-17.7 4.2-3.8 9.3-5.8 15.3-5.8zm-31.8 0v15.7h-1.2c-.4-3-1.1-5.4-2.2-7.2-1.1-1.8-2.6-3.2-4.5-4.3-1.9-1.1-3.9-1.6-5.9-1.6-2.3 0-4.3.7-5.8 2.2-1.5 1.5-2.3 3.1-2.3 4.9 0 1.3.5 2.7 1.5 3.8 1.3 1.6 4.7 3.9 9.8 6.7 4.3 2.3 7.2 4 8.8 5.3s2.7 2.7 3.6 4.3c.8 1.6 1.2 3.4 1.2 5.3 0 3.5-1.3 6.3-4 8.9-2.7 2.4-6.1 3.8-10.3 3.8-1.3 0-2.6-.1-3.8-.3-.7-.1-2.2-.5-4.3-1.2-2.2-.7-3.5-1.1-4.2-1.1-.5 0-.9.1-1.3.5-.3.4-.5 1.1-.7 2.2H4V414h1.2c.5 3.2 1.3 5.7 2.3 7.3.9 1.6 2.4 3 4.5 4 2 1.1 4.2 1.6 6.6 1.6 2.8 0 5-.8 6.6-2.2 1.6-1.5 2.4-3.2 2.4-5.3 0-1.1-.3-2.3-.9-3.4-.7-1.1-1.6-2.2-2.8-3.2-.8-.7-3.2-2.2-7.2-4.3-3.9-2.2-6.6-3.9-8.4-5.1-1.6-1.3-3-2.7-3.8-4.3s-1.2-3.2-1.2-5.1c0-3.2 1.2-6.1 3.8-8.4 2.6-2.3 5.7-3.5 9.6-3.5 2.4 0 5 .5 7.7 1.8 1.2.5 2.2.8 2.7.8s1.1-.1 1.5-.5c.4-.4.7-1.1.9-2.2h1.2v-.2z"/></svg>