<?xml version="1.0" encoding="utf-8"?><svg width="106" height="33" fill="none" xmlns="http://www.w3.org/2000/svg"><g fill="#000"><path d="M28.612 8.114h5.253c4.954 0 8.691 3.622 8.691 8.297 0 4.675-3.737 8.298-8.69 8.298h-5.254V8.114Zm5.253 14.064c3.554 0 5.93-2.502 5.93-5.767 0-3.274-2.386-5.767-5.93-5.767h-2.549v11.543h2.55v-.01Z"/><path d="M42.305 18.855c0-3.342 2.617-6.027 6.074-6.027s6.074 2.685 6.074 6.027-2.617 6.027-6.074 6.027-6.074-2.685-6.074-6.027Zm9.511 0c0-2.058-1.4-3.622-3.428-3.622-2.027 0-3.457 1.564-3.457 3.622 0 2.057 1.43 3.622 3.457 3.622 2.019 0 3.428-1.565 3.428-3.622Z"/><path d="M54.443 8.114h2.568v10.229l5.35-5.322h3.158l-5.562 5.506 5.465 6.172h-3.254l-5.157-5.844v5.844h-2.568V8.114Z"/><path d="M72.935 18.111c0-1.632-.792-2.898-2.386-2.898-1.12 0-2.056.657-2.52 1.73v7.756h-2.568V13.02h2.568v1.072c.792-.889 1.96-1.265 3.061-1.265 1.584 0 2.733.676 3.457 1.729.84-1.073 2.24-1.73 3.834-1.73 2.964 0 4.558 2.058 4.558 4.975V24.7h-2.57V18.11c0-1.632-.772-2.898-2.355-2.898-1.101 0-2.028.58-2.55 1.826.02.26.049.512.049.773v6.896h-2.569v-6.597h-.01ZM94.603 8.114h2.569v6.008c.82-.908 2.057-1.285 3.293-1.285 2.868 0 4.722 1.99 4.722 4.975v6.897h-2.569V18.12c0-1.662-.937-2.898-2.665-2.898-1.284 0-2.289.705-2.781 1.913v7.573h-2.569V8.114Z"/><path d="M88.829 24.796c-3.438 0-5.9-2.531-5.9-5.99 0-3.41 2.375-5.988 5.92-5.988 3.524 0 5.986 2.695 5.754 6.617H85.43c.087 1.748 1.429 3.13 3.476 3.13 1.265 0 2.375-.503 2.907-1.614h2.645c-.627 2.164-2.703 3.845-5.63 3.845Zm-3.303-7.168h6.364c-.396-1.864-1.71-2.695-3.11-2.695-1.593 0-2.906.928-3.254 2.695ZM19.845 32.793l-12.196-12.2a.362.362 0 0 1 0-.502l12.195-12.2c.55-.55 1.459.097 1.111.802 0 0-4.394 7.583-6.16 10.81-.29.52-.29 1.158 0 1.68 1.757 3.236 6.16 10.809 6.16 10.809.348.705-.56 1.352-1.11.801ZM1.188.212l12.196 12.2a.362.362 0 0 1 0 .502L1.188 25.105c-.55.551-1.458-.096-1.11-.801 0 0 4.258-7.612 5.977-10.828.28-.522.28-1.14 0-1.652C4.336 8.616.078 1.004.078 1.004-.27.3.628-.348 1.188.212Z"/></g></svg>