<?xml version="1.0" encoding="utf-8"?><svg xmlns="http://www.w3.org/2000/svg" xml:space="preserve" id="logo" x="0" y="0" style="enable-background:new 0 0 600 600" version="1.1" viewBox="0 0 600 600"><style>.st0{display:none}.st1{fill-rule:evenodd;clip-rule:evenodd;fill:#fff}.st1,.st2{display:inline}.st2,.st3,.st4{fill:#fff}.st4{fill-rule:evenodd;clip-rule:evenodd}.st10,.st7,.st8,.st9{fill:#fff;stroke:#fff;stroke-width:.2;stroke-miterlimit:10}.st10,.st8,.st9{stroke-miterlimit:10.0001}.st10,.st9{stroke-miterlimit:9.9997}.st10{stroke-miterlimit:10.0004}</style><path d="M414.5 241.6c5.8 0 10.6-4.8 10.6-10.6s-4.8-10.6-10.6-10.6-10.6 4.8-10.6 10.6c0 5.9 4.8 10.6 10.6 10.6M124.5 331.9H137v-73.2h14.5c24.6-.3 22.4 9 22.4 25 0 3.6-2.2 7.3-4.3 8.9-5.2 4-15.2 3-22.7 3v13.5c16.1 0 23.2 1.8 33.3-8.3 8.8-8.8 7.1-18.3 7.3-30.2.3-14.9-11.3-25-24.4-25.1-9.7-.1-38.8 0-38.8 0v86.4zM428.6 272.5v36.3h13.8v-36.3c0-11.9 7.9-13.8 16.9-13.8V245c-5.1-.1-10.1-.6-16.7 2.7-8.4 4.1-14 13.7-14 24.8M406.7 245.2h13.8v63.7h-13.8zM463.9 274.4c0 9.7.1 18.5 6.1 25.2 10.3 11.5 18.7 9.2 35.2 9.2v-13.1c-9.9 0-27.5 2.4-27.5-12.5 0-7.9-2.1-24.4 11.3-24.4h25.7V307c0 1 .7 1.9 2.2 1.9h9.7c1.4 0 1.9-.4 1.9-1.9v-62h-38.8c-15.8 0-25.8 12.4-25.8 29.4M262.8 274.4c0 9.7.1 18.5 6.1 25.2 10.3 11.5 18.7 9.2 35.2 9.2v-13.1c-9.9 0-27.5 2.4-27.5-12.5 0-7.9-2.1-24.4 11.3-24.4h25.7V307c0 1 .7 1.9 2.2 1.9h9.7c1.4 0 1.9-.4 1.9-1.9v-61.8h-38.8c-15.9 0-25.8 12.2-25.8 29.2M192.6 274.4c0 9.7.3 18.3 6.1 25.2 6.9 8.3 18.6 9.2 27.7 9.3h7.5v-13.3h-8.7c-9.1 0-18.5-1.3-18.8-12.4-.2-7.9-2.1-24.4 11.3-24.4h25.7V307c0 1 .7 1.9 2.2 1.9h9.7c1.4 0 1.9-.4 1.9-1.9v-61.8h-38.8c-15.8 0-25.8 12.2-25.8 29.2M398.5 222.4H386v73.2h-14.5c-24.6.3-22.4-9-22.4-25 0-3.6 2.2-7.3 4.3-8.9 5.2-4 15.2-3 22.7-3v-13.5c-16.1 0-23.2-1.8-33.3 8.3-8.8 8.8-7.1 18.3-7.3 30.2-.3 14.9 11.3 25 24.4 25.1 9.7.1 38.8 0 38.8 0l-.2-86.4z" class="st4"/><path d="M600 271.1c0-15.9-11.7-25.5-29.5-26-9.8-.3-18.5.3-25.5 6.2-7.8 6.5-9.1 17.2-9.4 26 0 .1-.1.2-.1.2v30.1c0 .9.5 1.2 2 1.2h9.1c1.6 0 2.3-.6 2.3-1.2v-20.7h.1v-11.5c.3-8.3 2.4-16.1 12.5-16.4 6.9-.2 20.4-1.7 23.8 6.7.6 1.9.8 3.7.8 5.5v60.7H600v-60.8z" class="st3"/><path d="M92.1 308.4v-53.2L46 228.7 0 255.2v53.2L46 335z" style="fill:#fff;stroke:#fff;stroke-miterlimit:10"/><path d="m78.8 263.6-.1 4.3-.1.2L54 281.9l24.2 14.4.1.2-.1 4.3-.1.2-3.7 2.1h-.3L50 288.8l-.4 28.2-.1.2-3.7 2.1h-.3l-3.7-2.2-.1-.2.3-28.1-24.5 13.8h-.3l-3.7-2.2-.1-.2.1-4.3.1-.2 24.4-14-24.2-14.4-.1-.2v-4.3l.1-.2 3.8-2.1h.3l24.2 14.4.3-28.2.1-.2 3.8-2.1h.3l3.7 2.2.1.2-.3 28.1 24.5-13.8h.4l3.7 2.2.1.3zm-.6 4.1v-4l-3.4-2L50 275.6l-.4-.2.3-28.5-3.4-2-3.5 2-.3 28.5-.4.2L17.7 261l-3.5 2v4l24.5 14.5v.5l-24.8 13.9v4l3.4 2L42.1 288l.4.2-.3 28.5 3.4 2 3.5-2 .3-28.5.4-.2 24.5 14.5 3.5-2v-4L53.3 282v-.5l24.9-13.8zM13.5 300.1l61.2-34.4" class="st7"/><path stroke-width=".200002" d="m13.369 299.84 61.207-34.376.245.436-61.207 34.376z" class="st8"/><path d="m41.9 316.9 3.7-2.2" class="st7"/><path stroke-width=".200002" d="m41.722 316.594 3.75-2.106.244.436-3.749 2.106z" class="st8"/><path d="m49.4 317-3.8-2.3M49.5 316.7l-.3.5-3.7-2.2.3-.5zM45.6 314.7l.9-70.1" class="st7"/><path stroke-width=".199994" d="m45.363 314.798.835-70.193.6.008-.835 70.192z" class="st9"/><path d="m13.9 267.1 3.8-2.1" class="st7"/><path stroke-width=".200002" d="m13.757 266.917 3.749-2.106.245.436-3.75 2.106z" class="st8"/><path d="M17.7 260.7v4.3M18 260.7v4.3h-.6l.1-4.3zM78.1 300.8 17.7 265" class="st7"/><path stroke-width=".20000800000000002" d="m17.573 265.227.306-.516 60.358 35.85-.306.517z" class="st10"/><path d="m78.5 267.9-3.8-2.2" class="st7"/><path d="M76.3 264.6h.5v4.3h-.5z" style="fill:#fff;stroke:#fff;stroke-width:.2;stroke-miterlimit:10.0003" transform="rotate(-59.404 76.596 266.78)"/><path d="m74.8 261.4-.1 4.3" class="st7"/><path stroke-width=".199994" d="m74.504 265.71.052-4.299.6.007-.052 4.3z" class="st9"/><path d="m53.5 281.9-3.8 2.1" class="st7"/><path stroke-width=".200002" d="m49.643 283.767 3.75-2.106.244.436-3.749 2.106z" class="st8"/><path d="M49.7 288.3V284M50 284v4.3h-.6l.1-4.3zM42.2 288.2l.1-4.3M42.5 283.9v4.3h-.6l.1-4.3zM38.5 281.7l3.8 2.2" class="st7"/><path stroke-width=".20000800000000002" d="m38.438 282.013.306-.516 3.697 2.196-.306.516z" class="st10"/><path d="m42.4 275.3 3.7 2.2M46.2 277.3l-.3.4-3.7-2.2.3-.4zM49.8 275.4l-3.7 2.1" class="st7"/><path stroke-width=".200002" d="m45.96 277.283 3.75-2.106.245.436-3.75 2.106z" class="st8"/><path d="M201.7 363.4c0 4.6-1.4 8.5-4.3 11.5s-6.6 4.6-11.2 4.6c-4.4 0-8-1.5-10.8-4.6s-4.1-6.9-4.1-11.5v-6.7c0-4.6 1.4-8.4 4.1-11.5s6.4-4.6 10.8-4.6c4.6 0 8.3 1.5 11.2 4.6 2.9 3.1 4.3 6.9 4.3 11.5v6.7zm-5.1-6.8c0-3.5-.9-6.3-2.8-8.5s-4.4-3.3-7.5-3.3c-3 0-5.4 1.1-7.1 3.3-1.8 2.2-2.7 5.1-2.7 8.5v6.8c0 3.5.9 6.4 2.7 8.6 1.8 2.2 4.2 3.3 7.1 3.3 3.2 0 5.7-1.1 7.5-3.3 1.9-2.2 2.8-5.1 2.8-8.6v-6.8zM211.9 378.9v-24.3h-4.4v-3.8h4.4v-3.6c0-3 .8-5.3 2.4-7 1.6-1.6 3.7-2.5 6.6-2.5.6 0 1.2 0 1.8.1.6.1 1.3.2 2 .4l-.6 3.9c-.3-.1-.7-.1-1.1-.2-.4-.1-.9-.1-1.4-.1-1.5 0-2.6.4-3.3 1.3-.7.9-1.1 2.2-1.1 3.9v3.6h5.1v3.8H217v24.3l-5.1.2zM230.7 378.9v-24.3h-4.4v-3.8h4.4v-3.6c0-3 .8-5.3 2.4-7 1.6-1.6 3.7-2.5 6.6-2.5.6 0 1.2 0 1.8.1.6.1 1.3.2 2 .4l-.6 3.9c-.3-.1-.7-.1-1.1-.2s-.9-.1-1.4-.1c-1.5 0-2.6.4-3.3 1.3-.7.9-1.1 2.2-1.1 3.9v3.6h5.1v3.8H236v24.3l-5.3.2zM252.9 343.6h-5.1v-5.2h5.1v5.2zm0 35.3h-5.1v-28.1h5.1v28.1zM273.3 375.5c1.6 0 3-.5 4.1-1.6 1.2-1 1.8-2.3 1.8-3.9h4.6l.1.2c.1 2.4-1 4.6-3.1 6.5-2.1 1.9-4.6 2.8-7.5 2.8-4 0-7-1.3-9.1-4-2.2-2.7-3.2-6-3.2-10v-1.1c0-4 1.1-7.3 3.2-10 2.2-2.7 5.2-4 9.1-4 3.1 0 5.7 1 7.7 2.9s3 4.3 2.9 7.1l-.1.2h-4.7c0-1.7-.6-3.2-1.7-4.4-1.1-1.2-2.5-1.8-4.2-1.8-2.5 0-4.3 1-5.5 2.9-1.1 2-1.7 4.3-1.7 7.1v1.1c0 2.8.6 5.2 1.7 7.1 1.2 1.9 3.1 2.9 5.6 2.9zM303 379.5c-4 0-7.2-1.3-9.4-3.9-2.3-2.6-3.4-6-3.4-10.2v-1.1c0-4 1.2-7.4 3.5-10 2.3-2.6 5.2-4 8.5-4 3.8 0 6.6 1.2 8.4 3.5 1.9 2.3 2.8 5.4 2.8 9.3v2.7h-18l-.1.1c0 2.8.6 5.1 1.9 6.9s3.1 2.6 5.7 2.6c1.7 0 3.2-.2 4.6-.7 1.3-.5 2.4-1.2 3.4-2l2 3.3c-1 1-2.3 1.8-4 2.5-1.6.7-3.6 1-5.9 1zm-.8-25.2c-1.8 0-3.3.7-4.4 2.1-1.2 1.4-1.9 3.1-2.1 5.3l.1.1h12.7v-.4c0-2-.5-3.7-1.5-5.1-1.2-1.3-2.7-2-4.8-2zM356.8 362.2h-15.9v16.7h-5.1v-37.8h23.7v4h-18.6v13h15.9v4.1zM383 374.8c-.9 1.5-2 2.7-3.4 3.5s-3 1.2-4.8 1.2c-3.1 0-5.5-1-7.2-2.9-1.7-2-2.6-5-2.6-9.1v-16.6h5.1v16.6c0 3 .4 5.1 1.3 6.2.9 1.1 2.3 1.7 4.1 1.7 1.8 0 3.3-.4 4.5-1.1 1.2-.7 2.1-1.8 2.7-3.1v-20.3h5.1V379h-4.6l-.2-4.2zM410 355.4l-2.6-.2c-1.4 0-2.5.3-3.4 1-.9.6-1.6 1.5-2.1 2.7V379h-5.1v-28.1h4.6l.5 4.1c.8-1.5 1.8-2.6 2.9-3.4 1.2-.8 2.5-1.2 4-1.2.4 0 .7 0 1.1.1.3.1.6.1.9.2l-.8 4.7zM421.3 350.8l.4 4.2c.9-1.5 2.1-2.6 3.5-3.5 1.4-.8 3-1.2 4.8-1.2 3 0 5.4.9 7 2.7s2.5 4.5 2.5 8.2v17.7h-5.1v-17.6c0-2.5-.5-4.2-1.5-5.3-1-1-2.5-1.6-4.5-1.6-1.6 0-2.9.3-4 .9-1.1.6-2 1.5-2.6 2.7v20.9h-5.1v-28.1h4.6zM453.8 343.6h-5.1v-5.2h5.1v5.2zm0 35.3h-5.1v-28.1h5.1v28.1zM470.1 344.1v6.8h5.3v3.8h-5.3v17.1c0 1.3.3 2.2.8 2.8.5.5 1.3.8 2.2.8.3 0 .6 0 1-.1s.7-.2.9-.2l.7 3.5c-.4.3-.9.6-1.7.8-.7.2-1.5.3-2.2.3-2.1 0-3.7-.6-5-1.9-1.2-1.2-1.8-3.2-1.8-5.9v-17.1h-4.5V351h4.5v-6.8h5.1zM500.1 374.8c-.9 1.5-2 2.7-3.4 3.5s-3 1.2-4.8 1.2c-3.1 0-5.5-1-7.2-2.9-1.7-2-2.6-5-2.6-9.1v-16.6h5.1v16.6c0 3 .4 5.1 1.3 6.2.9 1.1 2.3 1.7 4.1 1.7 1.8 0 3.3-.4 4.5-1.1 1.2-.7 2.1-1.8 2.7-3.1v-20.3h5.1V379h-4.6l-.2-4.2zM527.1 355.4l-2.6-.2c-1.4 0-2.5.3-3.4 1-.9.6-1.6 1.5-2.1 2.7V379h-5.1v-28.1h4.6l.5 4.1c.8-1.5 1.8-2.6 2.9-3.4 1.2-.8 2.5-1.2 4-1.2.4 0 .7 0 1.1.1.3.1.6.1.9.2l-.8 4.7zM544.9 379.5c-4 0-7.2-1.3-9.4-3.9-2.3-2.6-3.4-6-3.4-10.2v-1.1c0-4 1.2-7.4 3.5-10s5.2-4 8.5-4c3.8 0 6.6 1.2 8.4 3.5 1.9 2.3 2.8 5.4 2.8 9.3v2.7h-18l-.1.1c0 2.8.6 5.1 1.9 6.9s3.1 2.6 5.7 2.6c1.7 0 3.2-.2 4.6-.7 1.3-.5 2.4-1.2 3.4-2l2 3.3c-1 1-2.3 1.8-4 2.5-1.6.7-3.6 1-5.9 1zm-.8-25.2c-1.8 0-3.3.7-4.4 2.1-1.2 1.4-1.9 3.1-2.1 5.3l.1.1h12.7v-.4c0-2-.5-3.7-1.5-5.1-1.2-1.3-2.7-2-4.8-2z" class="st3"/></svg>