<?xml version="1.0" encoding="utf-8"?><svg version="1.1" id="logo" xmlns="http://www.w3.org/2000/svg" x="0" y="0" viewBox="0 0 600 600" style="enable-background:new 0 0 600 600" xml:space="preserve"><style>.st0{display:none}.st1{fill-rule:evenodd;clip-rule:evenodd;fill:#fff}.st1,.st2{display:inline}.st2,.st3,.st4{fill:#fff}.st4{fill-rule:evenodd;clip-rule:evenodd}.st5{display:inline}.st10,.st7,.st8,.st9{fill:#fff;stroke:#fff;stroke-width:.2;stroke-miterlimit:10}.st10,.st8,.st9{stroke-miterlimit:10.0001}.st10,.st9{stroke-miterlimit:9.9997}.st10{stroke-miterlimit:10.0004}</style><path class="st3" d="M302.9 492.8V368.6c0-1.1.4-1.4 1.3-1.4 6.8 0 13.5 0 20.3.1.2 0 .4.1.8.1-.8 1-1.5 1.9-2.2 2.9-1.6 2.1-1.5 3 .5 4.7 2.8 2.3 5.6 4.5 8.5 6.7 1 .8 2 1.5 2.9 2.3 1.1 1 .7 3.7-.6 4.3-.3.2-.6.3-.8.6-2 3.3-4.6 6.2-7 9.1-.9 1.1-1.8 2.2-2.7 3.4-1 1.4-.9 2.1.3 3.4 1.8 1.9 4 3.3 6 4.9 1.9 1.5 3.9 3 5.8 4.5 1.2 1 1.3 1.6.6 3-1.2 2.4-2.8 4.6-4.1 6.9-.4.6-.8 1.2-1 1.9-.1.3-.1.6.1.9.3.3.6 0 .8-.1 1.3-.6 2.3-1.5 3.4-2.5 3.6-3.3 7-6.6 9.6-10.8 1.3-2.2 2.3-4.4 2.6-7 .4-4-1.5-6.9-4.4-9.3-1.9-1.6-3.9-3.2-5.8-4.7-.8-.6-.7-1.1 0-1.7 3.1-3.1 6-6.4 7.8-10.4 1.5-3.3 1.9-6.6-.1-10-.5-.8-1.1-1.5-1.7-2.3-.1-.2-.5-.4-.3-.6.2-.3.5-.1.7-.2H428.6v124.2c0 1.2-.2 1.6-1.4 1.4-.3-.1-.6 0-.9 0-.3-.4-.8-.2-1.2-.2H305.7c-.4 0-.8-.1-1.2.2-.6-.1-1.1-.1-1.6-.1zM171.4 492.8v-2.5c.3-.4.2-.8.2-1.2V371c0-.4.1-.8-.2-1.2-.1-2.5-.1-2.5 2.4-2.5h77.7c2.3 0 4.1 1.2 6 2.1 5.5 2.6 10.6 5.8 15.3 9.6 9.5 7.7 16.5 17.1 19.3 29.3.6 2.6.9 5.2 1.1 7.8.3 3 .1 6-.1 9-.3 3.3-1 6.6-1.7 9.9-1.6 7.4-4.1 14.5-6.7 21.5-4.6 12.1-9.4 24.2-14.6 36.1v.3h-.5c-.4-.4-.9-.2-1.4-.2h-94c-.4 0-.8-.2-1.2.2-.5-.1-1-.1-1.6-.1zM428.6 362.7h-89.9c-1 0-1.8-.2-2.5-.9-1.1-1-2.2-2-3-3.3-.4-.6-.6-.7-1.1 0-2.4 4.1-2.5 4.1-7.3 4.1H304c-1 0-1.2-.3-1.2-1.2 0-13.9 0-27.8-.1-41.6 0-.9.2-1.3 1.2-1.5 2.9-.5 5.6-1.7 8.3-3 5-2.5 9.8-5.6 14.6-8.4 4.3-2.5 8.6-5.2 12.9-7.8 1.1-.7 1.3-.6 1.5.6.4 3.3.9 6.5 2.1 9.6 2.8 7.7 11 10.5 17.6 8.8 4.4-1.1 8.2-3.4 11.9-6 5.5-3.9 11-7.5 17.5-9.5 2.8-.9 5.5-1.9 8.5-1.8 2.9.1 5.4 1 6.6 3.9.3.6.7 1.3 1.2 1.7 1 .9 1.6.9 2.3-.2 1.2-1.7 1.8-3.7 2.1-5.7.6-3.7 1-7.5.1-11.2-1-4.2-3.8-6.3-8.1-6.3-3.8 0-7.3 1.3-10.7 2.6-5.9 2.3-11 5.9-16.5 9-4 2.2-8 4.4-12.5 5.4-3.6.9-7.3 1.1-10.7-.9-1.7-1.1-2.9-2.6-3.9-4.3-.7-1.1.2-1.6 1-2 3.6-2.3 7.2-4.7 10.7-7.2 2.8-2 5.6-4 7.9-6.6 3.2-3.6 5.1-7.8 5.2-12.6.1-4.2-1.3-8-3.6-11.5-3.3-5.2-8-8.9-13.3-11.9l-7.2-3.9c-.7-.3-.8-.7-.7-1.4.2-.7.5-.9 1.3-.9h67.9c1.5 0 1.6.2.8 1.5-1.2 2.1-2.5 4.1-3.8 6.2-.3.5-.8 1.2-.5 1.5.5.4 1.2-.2 1.7-.6 2.8-2.1 5.4-4.5 7.6-7.1 1-1.2 2.1-1.7 3.5-1.5.4.1.8 0 1.3 0v12.1c-.6.1-.8-.5-1.1-.9-.7-.9-1.5-1.8-2.1-2.8-.4-.6-.6-.4-1-.1-1.3 1.2-2.5 2.5-3.7 3.9-3.2 4-5.1 8.5-5.1 13.6 0 4.3 1.2 8.2 2.8 12.1 1.9 4.3 4.4 8.2 6.9 12.2 1.1 1.8 2.2 3.7 3.3 5.6v9.6c-1.2.5-2.3 1.4-3.4 2.1-6.8 4.1-13.7 8-20.8 11.6-10.2 5.2-20.6 9.9-31.1 14.3-9.6 4.1-19.2 7.9-29 11.6-7.3 2.8-14.6 5.5-21.9 8.2-5.6 2.1-11.2 4.2-16.8 6.2-.8.3-1.5.6-2 1.4.6.4 1.3.3 1.9.2 2.3-.4 4.5-.8 6.8-1.2 5.3-.9 10.6-1.8 16-1.7 1.8 0 3.6.4 5.3.4 7.5.1 14.6-1.7 21.6-4.3 6.4-2.4 12.6-5.3 18.8-8 11.5-5 23-10 34-16.2 6.2-3.5 12.4-6.8 18.2-11 .8-.6 1.4-1.4 2.4-1.6.1 16.4.1 32.5.1 48.6zm-28.4-97.5c0-.9-.2-1.7-.4-2.6-.9-3.1-3.2-5.2-5.7-7.1-2.7-2.1-5.5-4.1-7.5-6.8-.3-.4-.4-.4-.7 0-2.6 4-5.8 7.6-8.8 11.3-1.9 2.4-1.9 3.2.5 5.2.1.1.2.2.4.3 3.2 2.5 6.4 4.9 9.5 7.3 2.4 1.8 2.3 2.9 1 5.1-1.4 2.2-2.8 4.5-4.1 6.7-.3.5-.8 1.1-.3 1.5.4.4 1-.2 1.4-.5 4.3-3.2 8-7 11.1-11.3 1.9-2.7 3.4-5.6 3.6-9.1zM178.5 197.7c1.6-5.8 2.8-11.7 4-17.6 2.2-10.8 4.1-21.7 6.4-32.5.4-2 .9-4.1 1.3-6.1 0-.2-.1-.6.4-.6.4 0 .4.3.4.6 2.2 6.4 4.1 13 5.8 19.6 2.1 8.4 3.9 16.9 5.2 25.5 1 6.6 1.8 13.2 2.4 19.9.8 8.4 1.2 16.7 1.3 25.1 0 1-.2 1.3-1.2 1.3-4.6-.1-9.2 0-13.8 0-.8 0-1.1-.2-1.4-1-1-3-3.2-4.8-5.8-6.2-3.1-1.7-6.4-2.9-9.3-5-.3-.2-.6-.4-.8-.6-1.2-1-1.2-1-2 .4 0-.3-.1-.6-.1-.8V107.1h125.9v23.6c0 .6-.2.9-.8 1.2-8.6 4.6-17.1 9.2-25.7 13.8-6.9 3.7-13.8 7.5-20.7 11.3l-20.4 11.1c-5.2 2.8-9.7 6.4-13.1 11.4-2 2.9-3.2 6.1-3.8 9.5-.1.3-.2.7-.3 1-.2.1-.3.1-.5 0-.5-2.1-.5-4.4-.7-6.5-.6-5.4-1.3-10.7-2.2-16-1.7-10.3-4.1-20.4-7.2-30.3-2.3-7.4-5.1-14.7-8.4-22-1.2 2.3-2.4 4.4-3.7 6.6-1.4 2.5-2.7 5-4.2 7.4-.6 1.1-.5 2.4-.5 3.7-.2 5.5-.5 11.1-.5 16.6 0 3.3.4 6.7.2 10-.4 7-1.7 13.9-3.1 20.8-1.1 5.6-2.4 11.3-3.6 16.9-.6 2.1-1 4.2-1.3 6.4.8-2.1 1.6-3.9 1.8-5.9zm62.8-41c.4-.3.6-.5.8-.6 7.2-5.1 15-9.5 22.8-13.6 7.8-4.1 15.5-8.1 23.3-12.2.9-.5 2.1-.8 2.7-1.6 2.9-4.1 4.3-8.5 3-13.5-.2-.9-.5-1-1.2-.4-2.3 2-4.8 3.6-7.4 5.2-7.3 4.5-15 8.4-22.5 12.5-6.7 3.6-13.3 7.4-19.5 11.9-1.7 1.2-3.2 2.7-3.1 5.1 0 2.4.7 4.7 1.1 7.2zM428.6 218.7c-3.6-3.6-8.2-6.1-11.4-10.3-.2-.3-.4-.7-.8 0-2.5 4.2-6 7.8-8.9 11.6-.3.4-.7.9-1 1.4-.7 1.2-.5 2 .4 2.9 2.1 2 4.5 3.7 6.8 5.5 1.1.8 2.1 1.7 3.3 2.6-1 .6-1.9.2-2.7.2h-62.2c-1.6 0-1.6 0-1.1-1.5 2.5-7.4 5.2-14.7 8.4-21.9 5.3-11.8 11.7-23 19-33.7 3.2-4.6 6.5-9.1 9.3-14 4.5-8 8.4-16.2 10.5-25.1 2.1-8.8.6-16.8-5.2-23.8-1.5-1.8-3.3-3.4-5.2-4.8.3-.9 1-.5 1.5-.5h37.5c.4 0 .9.2 1.3-.2.1.1.5-.2.5.2V218.7zM271.7 492.8l3.9-8.1c3.9-8.4 7.7-16.9 11.1-25.5 4.1-10.6 7.5-21.3 10.1-32.3.7.1.4.7.4 1.1V489.4c0 .7-.1 1.4 0 2.1 0 .9-.3 1.2-1.3 1.2-7.4-.1-14.9 0-22.3 0-.4 0-.9-.2-1.3.2-.3-.1-.4-.1-.6-.1z"/><path class="st3" d="M304.5 492.8c.3-.4.8-.2 1.2-.2h119.4c.4 0 .8-.2 1.2.2H304.5zM173 492.8c.3-.4.8-.2 1.2-.2h94c.5 0 1-.2 1.4.2H173zM272.2 492.8c.4-.4.9-.2 1.3-.2h22.3c1 0 1.3-.3 1.3-1.2V436.6h.1V492.7c-8.2.1-16.6.1-25 .1zM347.5 107.1c-.1.6-.6.2-.9.5-1.4-.5-2.8-.2-4.2-.2h-38.2c-.5 0-1-.1-1.3.5v-.7c14.9-.1 29.7-.1 44.6-.1zM428.1 107.1c-.4.4-.9.2-1.3.2h-37.5c-.5 0-1.3-.4-1.5.5-.3-.2-.6-.3-.7-.8 13.7.1 27.4.1 41 .1zM324.9 212.2c-7.9-2.9-14.7-7.4-21.5-12-.5-.4-.5-.8-.5-1.3v-54.8c0-.8.3-1.2 1-1.6 6.7-3.6 13.4-7.2 20.2-10.8 6.1-3.2 12.7-5.4 19.3-7.4 5-1.5 10-2.7 15.2-3.3 8.1-.9 16-.7 23.4 3.3 6.8 3.7 10.4 10.3 9.6 18.1-.5 5-2.5 9.3-4.8 13.7-5.8 11-12.8 21.3-19.3 31.9-8.4 13.6-14.8 28-18.8 43.5-.2.8-.5 1.1-1.4 1.1-2.8-.1-5.6 0-8.5 0-.8 0-1.5-.1-2.2-.5-6.5-3.8-13-7.4-19.3-11.6-.7-.5-.7-.8-.3-1.5 1.9-2.8 4.4-4.9 7.3-6.6.2 0 .3 0 .6-.2zM248.7 279.9c-.3 2.7 0 5.5.2 8.2.2 3.2.8 6.4 2 9.4 1.7 4.1 4.5 7 8.9 7.9 2.6.5 5.3.5 7.9 0 4.4-.7 8.6-2.1 12.7-4 1.1-.5 1.2-.5 1.4.7.6 3.8 1.7 7.3 4 10.5 2.6 3.5 6.2 5.7 10.5 6.3 1 .1 1 .5 1 1.3v41.3c0 1-.3 1.3-1.3 1.3h-19.6c-.8 0-1.4-.2-2-.7-6.3-4.9-13.2-8.5-20.6-11.4-8.7-3.5-17.6-6.2-26.5-9.3-8.6-3-17-6.3-25.2-10.4-6.2-3.1-12.3-6.4-17.6-10.9-3.5-2.9-6.6-6.2-8.4-10.5-2.7-6.3-1.6-12.1 2.3-17.5 2.7-3.7 6.1-6.5 9.7-9.2 6.9-5.2 14.3-9.5 21.9-13.6.6-.3 1-.2 1.3.4 2 3.8 4.8 7 8.5 9.2 3.1 1.8 6.4 2.8 10 3 6.2.4 12.4-.2 18.3-2 .4-.1.5 0 .6 0zM297.4 177v29.2c0 2-.7 3.8-1 5.8-.3 2.5-.2 4.8.5 7.2.3 1 .4 2 .4 3v7.2c0 .3.3.8-.3.9-.5.1-.5-.4-.6-.7-2.7-6.6-8-10.1-14.6-11.8-5.5-1.4-11.2-2.2-16.7-3.6-7.8-2-15.4-4.6-22.9-7.9-.2-.1-.4-.1-.5-.3-.2-.2-.7-.2-.7-.7 0-.5.5-.5.8-.6 3-1.1 3.3-2.4 1-4.6-2-1.9-4.5-3-7-4.2-4-1.9-8-3.9-12-5.9-1.2-.6-1.1-.7-.1-1.4 11.7-8 23.8-15.4 36.1-22.4 11-6.3 22.2-12.3 33.4-18.2 1-.5 1.9-1 2.9-1.5.7-.4 1-.2 1 .6v7c.3 7.7.3 15.3.3 22.9zM344.1 256.6c.4-1.4.4-1.4 1.8-.6 4.1 2.3 8.2 4.6 12 7.4 1.9 1.5 3.8 3.1 5.5 4.8 1 1.1 1 1.1-.2 1.9-6.6 4.2-13.3 8.3-20.2 12.1-6.8 3.8-13.6 7.6-20.5 11.4-.5.3-1 .8-1.5.5-.5-.3-.2-1.1-.2-1.6.2-2 .5-4 .8-6 .3-2.3.3-4.5-.4-6.8-1.4-4.7-5.6-6.2-9.9-5.7-2.5.3-4.9.9-7.3 1.6-.8.3-1 0-1-.8v-36.7c0-.8.2-1 1-1h7.8c.6 0 1.1.2 1.6.5 6.7 5.1 14 9.1 21.6 12.7 2 1 4.1 2 6.1 3 .1 0 .1.1.2.1s.2.1.3.1c0 0 .1.1.2.1s.2.1.3.1c.1 0 .1.1.2.1s.2.1.3.1c.1 0 .1.1.2.1s.2.1.3.1c.1 0 .1.1.2.2.1 0 .2 0 .3.1 0 .1.1.2.2.2s.2 0 .2.1c.2.3.1.6.1.9 0 .3 0 .6-.1.9-.7 2.8-1 5.6-1.3 8.4.2-.3.2-.6.3-1 .1-2.4.6-4.8 1.1-7.3zM171.7 240c2.7 1.3 5.5 2.5 8.2 3.8 1.3.6 1.6 1.5 1.2 2.8-.8 2.8-1.8 5.4-2.8 8.1-.2.7-.8 1.8-.2 2.2.7.5 1.4-.5 1.9-1.1 4.3-5.3 8-11 9.6-17.7.2-.7.5-.9 1.2-.9h14.1c.7 0 .9.2.9.9-.1 4.2.2 8.4.5 12.6.1 1.9.5 3.8.8 5.7.1.7 0 1.1-.7 1.4-6.1 3.4-12 7.2-17.5 11.6-6.5 5-12.1 10.9-16.4 17.8-.2.3-.3.7-.7.9 0-.8-.1-1.5-.1-2.3V240zM171.9 326.4c4.1 5.9 9.3 10.6 15.2 14.6 5.6 3.8 11.6 6.9 17.8 9.6 10.2 4.5 20.9 7.9 31.6 10.9.4.1 1.1 0 1.3.7-.3.3-.7.2-1.1.2H171.6v-34.9c.1-.3-.1-.7.3-1.1zM225.3 261.8c3.4-1.6 6.7-3 9.9-4.6 6.8-3.2 13.7-6.4 20.5-9.7.8-.4 1.2-1.2 1.7-1.8 1.7-2.4 3-5 3.5-8 .1-.8.7-.6 1.1-.6h17.5c3.7-.3 6 1.8 8.1 4.4.7.8.7 1.4-.3 2.2-8.7 6.7-17.9 12.7-28.3 16.7-6.9 2.6-13.9 4.3-21.2 4.4-3.9 0-7.6-.5-11.2-2.2-.3-.1-.5-.3-.8-.4 0-.1-.2-.2-.5-.4zM213.1 218.6c0-6-.1-12-.3-18 0-.7-.1-1.4-.2-2 0-.2-.1-.5.2-.6.4-.1.4.2.5.5.6 2.3 1.5 4.5 2.6 6.6 1.2 2.2 3 3.9 4.7 5.7 7.8 8.5 17.4 14 28.5 17.2 2.9.8 5.8 1.4 8.7 2.1.3.1.6.1.7.3.1.3-.3.5-.5.6-1.4 1.1-2.9 1.7-4.9 1.7-12.8-.1-25.6-.1-38.5 0-1.2 0-1.5-.4-1.5-1.5.1-4.2 0-8.4 0-12.6z"/><path class="st3" d="M284.7 259.6c-1.3 4.1-2.6 8.1-3.3 12.3-.2 1.2-.3 2.3-.3 3.5-.1 3.3-.2 6.6-.2 9.9 0 .6-.2.9-.8 1.2-4.4 1.5-8.8 2.6-13.4 2.5-6.3-.1-11.6-3.9-13.6-9.7-.2-.5-.3-.8.4-1.1 8.9-3.4 16.8-8.5 24.5-14 1.9-1.4 3.7-2.8 5.6-4.1.3-.3.5-.7 1.1-.5zM302.9 107.8c.3-.5.8-.5 1.3-.5h38.2c1.4 0 2.8-.3 4.2.2-.8.7-1.9.9-2.8 1.2-8 2.9-15.6 6.6-23.2 10.5-5.5 2.9-11 5.7-16.5 8.6-1.3.7-1.3.7-1.3-.8.1-6.4.1-12.8.1-19.2zM297.3 246.6v31c0 .5-.1.8-.6 1-3.3 1.7-6.7 3.5-10 5.2-1 .5-1.1.4-1-.6l.6-14.7c.1-2.6.2-5.2.2-7.7 0-1-.2-1.8-1.6-1.6 5.2-4.4 9.6-9.3 11.7-15.9.7 0 .5.5.5.9.2.7-.2 1.5.2 2.4zM247.1 237.2c-1.9 1.5-4 2.5-6 3.5-7.8 3.8-15.7 7.6-23.5 11.4-.7.4-1 .2-1.2-.5-1.2-3.1-1.9-6.3-2.3-9.6-.1-1.3-.3-2.6-.4-3.8-.1-.8.2-.9.9-.9h27.2c1.7-.1 3.5-.1 5.3-.1zM280.9 367.6c.8-.3 1.6-.2 2.3-.3h12.9c1 0 1.3.3 1.3 1.3v24.5c0 .3.2.8-.3.9-.5.1-.4-.5-.5-.8-2.3-8.1-6.5-15.1-11.9-21.5-1.2-1.4-2.5-2.7-3.8-4.1zM302.9 296.4v-4.1c0-.3-.1-.7.4-.8 3.2-.4 6.2-.3 8.9 1.8 1.3 1 1.9 2.4 2.3 3.9.2.6-.1.9-.5 1.1-3.1 1.7-6.5 2.7-10 3.1-.9.1-1.2-.2-1.1-1.1v-3.9zM297.4 297v3c0 .8-.3.8-.9.7-2.4-.6-4.5-1.8-6.4-3.3-.4-.3-.5-.6.1-.9 2.1-1.1 4.2-2.2 6.4-3.1.7-.3.8-.1.8.6-.1.9 0 2 0 3zM171.5 369.8c.3.4.2.8.2 1.2v118.1c0 .4.1.8-.2 1.2V370.8c-.1-.3 0-.7 0-1zM171.7 362.5H236.8c.4 0 .8.1 1.1-.2.5 0 .9.4 1.5.3-2.9.3-5.7.1-8.6.1h-58.2c-.3 0-.8.2-1-.2h.1zM171.7 240v45.9c0 .8 0 1.5.1 2.3-.1 0 0 .6-.3.2-.1-.2 0-.6 0-.9v-46.3c-.1-.5-.3-1 .2-1.2z"/><path class="st3" d="M171.7 362.5h-.2V326.3c0-.1 0-.3.2-.2l.3.3c-.4.3-.2.8-.2 1.2-.1 11.6-.1 23.3-.1 34.9zM306.5 232.7h-3c-.5 0-.7-.2-.7-.7v-3.1c1.4 1.3 2.6 2.6 3.7 3.8zM264.3 232.6c-.9.3-1.9.1-2.8 0-.6-.1-.6-.9-.5-1.4.1-.7.6-.2.7-.1 1.5.3 3 .5 4.5 1.1-.6.3-1.2.4-1.9.4zM297.3 436.7h-.1V428c0-.4.3-1-.4-1.1.2-.7.3-1.5.5-2.2h.1c-.1 4-.1 8-.1 12zM178.5 197.7c-.3 2-1 3.8-1.6 5.7.3-2.2.7-4.3 1.3-6.4.2.2 0 .5.3.7z"/><path class="st3" d="M264.3 232.6c.7-.1 1.3-.1 1.9-.5.5.1 1.1.2 1.6.3-1.2.3-2.3.3-3.5.2zM297.3 246.6c-.4-.8 0-1.7-.1-2.5 0-.4.2-.9-.5-.9.1-.6.2-1.2.7-2-.1 2-.1 3.7-.1 5.4zM212.2 189.9c.2.1.3.1.5 0v3.2c-.5-1.2-.6-2.2-.5-3.2z"/></svg>