<svg width="87" height="11" viewBox="0 0 87 11" fill="none" xmlns="http://www.w3.org/2000/svg">
<path d="M3.54453 1.41789C2.81796 1.36175 2.1183 1.67052 1.63392 2.20382C1.14954 2.84941 0.907345 3.69146 0.961165 4.50546C0.907345 5.34753 1.14954 6.16153 1.63392 6.83518C2.1183 7.39655 2.81796 7.67724 3.54453 7.62111C4.10964 7.62111 4.70166 7.48075 5.26677 7.31234V8.09827C4.64784 8.29475 4.02891 8.43509 3.35616 8.43509C2.44122 8.49123 1.55318 8.12634 0.880434 7.42461C0.261503 6.58255 -0.0883263 5.54401 0.0193138 4.42126C-0.0345063 3.71954 0.126953 2.96168 0.449874 2.3161C0.745884 1.75472 1.12262 1.27755 1.63392 0.912656C2.19903 0.57583 2.87178 0.407413 3.54453 0.407413C4.2711 0.407413 4.94385 0.547758 5.56278 0.856515L5.23986 1.61437C4.64784 1.55824 4.13655 1.41789 3.54453 1.41789ZM10.9717 6.358C11.0255 6.94745 10.7295 7.56497 10.2451 7.95793C9.68001 8.3509 9.00726 8.54738 8.33451 8.51931C7.66176 8.57545 6.93519 8.40703 6.31626 8.12634V7.22814C6.61227 7.36848 6.93519 7.48076 7.28502 7.5369C7.66176 7.64917 8.0385 7.67724 8.38833 7.73338C8.81889 7.78952 9.24945 7.6211 9.62619 7.42461C9.9222 7.172 10.0568 6.83517 10.0568 6.47028C10.0568 6.21766 10.0029 6.02118 9.86838 5.8247C9.73383 5.62822 9.54546 5.48787 9.33018 5.31946C9.00726 5.12297 8.60361 4.98263 8.28069 4.81422C7.71558 4.67388 7.2312 4.30898 6.85446 3.85988C6.55845 3.46692 6.4239 2.96168 6.4239 2.45644C6.4239 1.89507 6.66609 1.36175 7.09665 0.996858C7.58103 0.660032 8.14614 0.435484 8.76507 0.491622C9.43782 0.491622 10.1644 0.631967 10.7833 0.940724L10.595 1.69858C10.0298 1.44596 9.43782 1.36176 8.81889 1.30562C8.44215 1.30562 8.06541 1.41789 7.7694 1.61437C7.52721 1.81086 7.39266 2.17575 7.44648 2.51257C7.44648 2.70905 7.5003 2.96168 7.55412 3.15816C7.66176 3.35464 7.85013 3.49499 8.0385 3.60726C8.36142 3.80374 8.71125 3.94409 9.03417 4.1125C9.59928 4.30898 10.1375 4.67387 10.6219 5.06684C10.8102 5.4598 10.9717 5.9089 10.9717 6.358ZM16.5152 6.358C16.569 6.94745 16.273 7.56496 15.7886 7.90179C15.2235 8.29475 14.5507 8.49124 13.878 8.49124C13.2052 8.54738 12.4787 8.37896 11.8597 8.09827V7.20007C12.1557 7.34042 12.4787 7.45269 12.8285 7.50883C13.1514 7.62111 13.5551 7.62111 13.878 7.62111C14.3085 7.67724 14.7391 7.50882 15.1158 7.31234C15.4119 7.05972 15.5464 6.7229 15.5464 6.358C15.5464 6.10538 15.4926 5.90891 15.358 5.71243C15.2235 5.51594 15.0351 5.3756 14.8198 5.20718C14.4969 5.0107 14.0933 4.87036 13.7703 4.70195C13.2052 4.5616 12.7208 4.19671 12.3441 3.74761C12.0481 3.35465 11.9135 2.84941 11.9135 2.34417C11.9135 1.78279 12.1557 1.24948 12.5863 0.884584C13.0707 0.547758 13.6358 0.323211 14.2547 0.379348C14.9275 0.379348 15.654 0.519686 16.273 0.828443L16.0846 1.72665C15.5195 1.47403 14.9275 1.33369 14.3085 1.33369C13.9318 1.33369 13.5551 1.44596 13.259 1.64245C13.0169 1.83893 12.8823 2.20382 12.9361 2.54064C12.9361 2.73713 12.9899 2.98975 13.0438 3.18623C13.1514 3.38271 13.3398 3.52305 13.5281 3.63533C13.8511 3.83181 14.2009 3.97216 14.5238 4.14057C15.0889 4.33705 15.681 4.64581 16.1115 5.09491C16.4075 5.4598 16.5421 5.9089 16.5152 6.358ZM23.9154 4.39319C23.9692 5.48787 23.6194 6.52642 22.9197 7.34041C22.1663 8.09827 21.1437 8.49124 20.0942 8.37896H17.6992V0.660036H20.1749C21.1706 0.603899 22.1394 0.912654 22.8928 1.61437C23.5656 2.37223 23.9692 3.35464 23.9154 4.39319ZM21.8703 4.44933C21.9241 3.88795 21.7626 3.35465 21.4397 2.90554C21.1437 2.56872 20.7131 2.4003 20.2557 2.4003H19.6905V6.75097H20.1211C20.6055 6.8071 21.0899 6.61062 21.4128 6.18959C21.7626 5.71242 21.951 5.09491 21.8703 4.44933ZM27.8443 8.54737C27.037 8.60351 26.2566 8.29475 25.6377 7.76144C25.0726 7.172 24.8304 6.30187 24.8842 5.51594C24.8304 4.67387 25.0725 3.85988 25.6108 3.18623C26.149 2.59679 26.9024 2.28802 27.6559 2.4003C28.3825 2.34416 29.0552 2.59678 29.6203 3.10202C30.1047 3.6634 30.3738 4.33705 30.3469 5.09491V6.04925H26.8486C26.8486 6.358 26.9832 6.6387 27.1715 6.83518C27.4137 7.03166 27.7366 7.14393 28.0327 7.14393C28.3556 7.14393 28.6516 7.08779 29.0014 7.03165C29.3243 6.91938 29.6742 6.83517 29.9702 6.63869V8.12634C29.6742 8.26668 29.3512 8.43509 29.0014 8.43509C28.6516 8.43509 28.221 8.49123 27.8443 8.54737ZM27.6828 3.74761C27.4406 3.74761 27.2523 3.85988 27.1177 4.00023C26.9293 4.19671 26.8217 4.44933 26.8217 4.70195H28.4901C28.5439 4.44933 28.4363 4.19671 28.2479 4.00023C28.1134 3.80374 27.8712 3.74761 27.6828 3.74761ZM35.6751 6.61062C35.7289 7.172 35.4867 7.70531 35.11 8.07021C34.5718 8.40703 33.9529 8.63158 33.3339 8.57544C33.011 8.57544 32.6074 8.57545 32.2844 8.51931C31.9615 8.46317 31.6655 8.37896 31.3157 8.26668V6.61062C31.6117 6.7229 31.9884 6.86324 32.3113 7.00358C32.6343 7.05972 32.9303 7.11587 33.2801 7.11587C33.7107 7.11587 33.9529 7.00359 33.9529 6.80711C33.9529 6.69483 33.899 6.61063 33.7645 6.55449C33.6568 6.49835 33.2801 6.30187 32.7688 6.04925C32.3921 5.9089 32.0153 5.65629 31.7193 5.29139C31.531 4.98263 31.4233 4.58967 31.4233 4.25284C31.3695 3.74761 31.6117 3.24236 31.9884 2.96167C32.5266 2.62485 33.0917 2.45643 33.7107 2.51257C34.0336 2.51257 34.4372 2.56872 34.7602 2.62486C35.0831 2.68099 35.4329 2.82134 35.7558 3.01782L35.2176 4.30899C34.9754 4.16864 34.6794 4.05636 34.4103 4.00023C34.1681 3.94409 33.9259 3.88795 33.6838 3.88795C33.3877 3.88795 33.1994 3.94409 33.1994 4.14057C33.1994 4.25285 33.307 4.33705 33.3877 4.39319C33.4954 4.44932 33.8183 4.58967 34.3565 4.84229C34.6794 4.95456 34.9754 5.15104 35.2176 5.34752C35.406 5.48787 35.5406 5.68435 35.6482 5.9089C35.6751 6.10538 35.6751 6.358 35.6751 6.61062ZM36.7246 0.968789C36.6708 0.71617 36.7784 0.463549 36.9668 0.267067C37.209 0.126723 37.4512 0.0144512 37.7203 0.0144512C38.0163 -0.0416865 38.2854 0.0705853 38.4737 0.267067C38.6621 0.463549 38.7698 0.71617 38.7159 0.968789C38.7159 1.61437 38.393 1.86699 37.6664 1.86699C37.2359 1.97927 36.8591 1.72665 36.6977 1.27755C36.7246 1.16527 36.7246 1.053 36.7246 0.968789ZM38.7159 8.43509H36.7784V2.45644H38.7428V8.43509H38.7159ZM45.3358 2.45644V3.46692L44.5823 3.77567C44.7169 3.97215 44.7707 4.22477 44.7707 4.47739C44.7707 5.06684 44.5285 5.62822 44.0979 5.96504C43.5328 6.35801 42.8601 6.52641 42.1873 6.47028C42.0528 6.47028 41.8644 6.47029 41.7029 6.41415C41.6491 6.47029 41.6491 6.55449 41.6491 6.66676C41.6491 6.80711 41.7568 6.91938 41.8913 6.91938C42.0797 6.97552 42.2681 7.03166 42.4564 6.97552H43.4252C44.6631 6.97552 45.3358 7.5369 45.3358 8.65965C45.3896 9.36137 45.0398 10.007 44.4747 10.3438C43.7212 10.7929 42.8601 10.9894 41.999 10.9894C41.38 11.0455 40.7073 10.8771 40.196 10.5403C39.7654 10.2876 39.5232 9.83854 39.5232 9.3333C39.5232 8.63158 39.9538 8.12634 40.7611 7.92986C40.5727 7.81759 40.4382 7.73338 40.2767 7.5369C40.1691 7.39655 40.0883 7.22814 40.0883 7.03165C40.0883 6.89131 40.1422 6.69483 40.196 6.52642C40.3844 6.32994 40.5727 6.18959 40.7611 6.02117C40.4651 5.88083 40.2229 5.68435 40.0345 5.3756C39.8462 5.03877 39.7923 4.67387 39.7923 4.33705C39.7923 3.7476 40.0345 3.18623 40.4651 2.8494C41.0033 2.45644 41.6222 2.25996 42.2411 2.28802C42.4295 2.28802 42.5641 2.28803 42.7794 2.34417C42.9677 2.40031 43.1023 2.4003 43.3176 2.4003L45.3358 2.45644ZM41.1647 9.19296C41.1647 9.38944 41.2724 9.52979 41.4069 9.64206C41.6491 9.75434 41.8913 9.7824 42.1335 9.75434C42.5102 9.75434 42.887 9.69819 43.2368 9.55785C43.479 9.50171 43.6136 9.30523 43.6674 9.05261C43.6674 8.91227 43.5597 8.74386 43.4252 8.74386C43.183 8.63158 42.887 8.60351 42.6717 8.63158H41.8913C41.7029 8.63158 41.5146 8.68772 41.3531 8.74386C41.2186 8.82806 41.1647 9.05262 41.1647 9.19296ZM41.7299 4.39319C41.7299 5.03877 41.9182 5.34752 42.295 5.34752C42.4833 5.34752 42.6179 5.23525 42.7255 5.09491C42.8601 4.89843 42.9139 4.64581 42.9139 4.39319C42.9139 3.7476 42.7255 3.43885 42.3488 3.43885C41.972 3.46692 41.7299 3.80374 41.7299 4.39319ZM49.776 8.43509V5.15105C49.776 4.84229 49.7221 4.5616 49.5876 4.25284C49.4799 4.05636 49.2647 3.94408 49.0494 3.94408C48.7534 3.88795 48.4843 4.08443 48.3228 4.39319C48.1344 4.84229 48.0806 5.34753 48.0806 5.85277V8.49124H46.1162V2.51257H47.5962L47.8384 3.27043H47.9461C48.1344 3.01782 48.3766 2.7652 48.6726 2.62486C48.9956 2.48451 49.3454 2.42837 49.6683 2.42837C50.2065 2.37223 50.7716 2.56871 51.1484 2.98975C51.5251 3.43885 51.7135 4.02829 51.6866 4.64581V8.54737H49.7221L49.776 8.43509ZM57.849 8.43509L56.9878 5.99311H54.0816L53.2204 8.43509H52.4131L55.3194 0.716169H56.046L58.8715 8.40703L57.849 8.43509ZM56.7457 5.15105L55.9384 2.7652C55.8038 2.42837 55.6962 2.00734 55.6154 1.61437C55.5616 1.92313 55.4271 2.3161 55.3194 2.7652L54.5121 5.15105H56.7457ZM64.0652 8.40703L63.0695 5.0107C63.0157 4.81422 62.8811 4.30898 62.7466 3.60726C62.639 4.1125 62.5582 4.5616 62.4237 5.06684L61.428 8.46317H60.4323L58.9523 2.68099H59.8672C60.1901 4.14056 60.4323 5.26332 60.6745 6.02117C60.8091 6.52641 60.9167 7.03166 60.9705 7.50883H61.0243C61.132 7.25621 61.1589 7.00358 61.2127 6.75097C61.2665 6.49835 61.3473 6.24573 61.4549 5.99311L62.4506 2.65292H63.3655L64.3343 5.99311C64.4688 6.49835 64.6303 7.00359 64.6572 7.48076H64.711C64.711 7.28428 64.7648 7.08779 64.8187 6.91938C64.8725 6.66676 65.2492 5.23526 65.8143 2.62486H66.6216L65.0878 8.40703H64.119H64.0652ZM70.8465 8.40703L70.6581 7.62111H70.6043C70.416 7.92986 70.1199 8.21055 69.797 8.37896C69.4741 8.51931 69.1243 8.57544 68.8014 8.57544C68.3708 8.63158 67.8864 8.46316 67.5635 8.12634C67.2406 7.78951 67.0791 7.34041 67.0791 6.89131C67.0791 5.68435 67.9941 5.15104 69.7432 5.03877L70.712 4.98264V4.58967C70.712 4.25285 70.6043 3.88795 70.416 3.57919C70.1738 3.38271 69.8508 3.24237 69.501 3.27043C68.9628 3.27043 68.4515 3.41078 67.9671 3.71954L67.725 3.01782C68.021 2.90554 68.2631 2.7652 68.6399 2.62486C68.9628 2.56872 69.2588 2.51257 69.6087 2.51257C70.1469 2.45643 70.6581 2.62485 71.0349 2.96167C71.3578 3.35464 71.5731 3.85988 71.5193 4.42126V8.35089H70.9542L70.8465 8.40703ZM69.0166 7.78952C69.4472 7.84565 69.8778 7.67724 70.2007 7.34041C70.4967 7.00359 70.6312 6.55449 70.6312 6.10539V5.60014L69.8239 5.65628C69.3396 5.60015 68.8283 5.76856 68.3977 5.96504C68.1017 6.16152 67.9671 6.52641 67.9671 6.86324C67.9671 7.11586 68.0748 7.36848 68.2632 7.56496C68.4515 7.73337 68.7475 7.78952 69.0166 7.78952ZM75.6365 2.51257C75.8787 2.51257 76.0671 2.51257 76.3092 2.56871L76.2016 3.35464C76.0132 3.2985 75.8249 3.29851 75.6365 3.29851C75.2059 3.29851 74.7754 3.49499 74.4794 3.85988C74.1564 4.25285 73.995 4.75808 73.995 5.31946V8.40703H73.1339V2.68099H73.8066L73.9143 3.71954H73.9681C74.1565 3.38271 74.3986 3.07395 74.6946 2.82133C74.9637 2.65292 75.2867 2.51257 75.6365 2.51257ZM80.9647 7.64917C80.5341 8.23862 79.8614 8.54737 79.1886 8.54737C78.5697 8.60351 77.9508 8.29475 77.5202 7.78952C76.7667 6.44221 76.7667 4.75808 77.5202 3.41078C78.2737 2.45644 79.6192 2.31609 80.5341 3.10202C80.6418 3.2143 80.7763 3.2985 80.857 3.43885H80.9109L80.857 2.98975V0.154793H81.7182V8.37896H81.0454L80.9647 7.64917ZM79.3501 7.78952C79.8345 7.84565 80.265 7.64916 80.5879 7.28427C80.884 6.83517 80.9647 6.2738 80.9109 5.68435V5.48787C80.9647 4.89843 80.8032 4.25285 80.4803 3.74761C80.1843 3.35465 79.7268 3.18623 79.2424 3.24237C78.7581 3.24237 78.3813 3.43885 78.0853 3.88795C77.7893 4.39319 77.6548 4.98263 77.6548 5.57208C77.6009 6.16152 77.7624 6.77904 77.9777 7.25621C78.4351 7.59304 78.8657 7.78952 79.3501 7.78952ZM86.9925 6.83518C87.0464 7.34042 86.8042 7.84566 86.4274 8.07021C85.943 8.40703 85.3779 8.57545 84.8397 8.51931C84.2746 8.57545 83.6557 8.40703 83.1175 8.12634V7.34041C83.3597 7.48076 83.6557 7.59303 83.9248 7.64917C84.2208 7.70531 84.4899 7.76144 84.8397 7.76144C85.1896 7.76144 85.5125 7.70531 85.8354 7.56496C86.0776 7.42462 86.2121 7.172 86.1583 6.86324C86.1583 6.61062 86.0507 6.41414 85.8623 6.30186C85.5394 6.04924 85.1896 5.85276 84.8128 5.74049C84.4361 5.62821 84.0863 5.43173 83.7633 5.23525C83.575 5.12298 83.3866 4.9265 83.2789 4.73002C83.1444 4.53353 83.0906 4.28092 83.0906 4.0283C83.0906 3.5792 83.3328 3.18623 83.6557 2.87747C84.0863 2.56872 84.5706 2.37223 85.0819 2.42837C85.647 2.42837 86.266 2.56871 86.8042 2.82133L86.5081 3.52305C86.0238 3.27043 85.5394 3.18623 85.0281 3.13009C84.7321 3.07395 84.4092 3.18623 84.1132 3.32658C83.9248 3.43885 83.8171 3.6634 83.8171 3.88795C83.8171 4.0283 83.871 4.14057 83.9248 4.28091C84.0324 4.42126 84.1132 4.53354 84.2477 4.58967C84.5437 4.78616 84.8666 4.92649 85.2165 5.03877C85.7009 5.17911 86.1314 5.43173 86.5081 5.79663C86.858 6.10538 86.9925 6.44221 86.9925 6.83518Z" fill="white"/>
</svg>
