<svg width="580" height="182" viewBox="0 0 580 182" fill="none" xmlns="http://www.w3.org/2000/svg">
<path d="M157.77 44.7368H186.735C214.049 44.7368 234.655 64.71 234.655 90.4888C234.655 116.268 214.049 136.241 186.735 136.241H157.77V44.7368ZM186.735 122.286C206.329 122.286 219.427 108.491 219.427 90.4888C219.427 72.433 206.276 58.6914 186.735 58.6914H172.678V122.339H186.735V122.286Z" fill="#333333"/>
<path d="M233.27 103.964C233.27 85.5353 247.699 70.7285 266.76 70.7285C285.822 70.7285 300.251 85.5353 300.251 103.964C300.251 122.393 285.822 137.199 266.76 137.199C247.699 137.199 233.27 122.393 233.27 103.964ZM285.716 103.964C285.716 92.6191 277.995 83.9907 266.814 83.9907C255.632 83.9907 247.752 92.6191 247.752 103.964C247.752 115.309 255.632 123.937 266.814 123.937C277.942 123.937 285.716 115.309 285.716 103.964Z" fill="#333333"/>
<path d="M300.199 44.7368H314.362V101.141L343.86 71.7939H361.271L330.602 102.153L360.738 136.187H342.795L314.362 103.964V136.187H300.199V44.7368Z" fill="#333333"/>
<path d="M402.165 99.8638C402.165 90.8625 397.798 83.8852 389.013 83.8852C382.837 83.8852 377.672 87.507 375.116 93.4191V136.188H360.953V71.7947H375.116V77.7068C379.482 72.8067 385.925 70.7295 391.995 70.7295C400.727 70.7295 407.063 74.4578 411.056 80.2634C415.689 74.3513 423.409 70.7295 432.195 70.7295C448.541 70.7295 457.326 82.0743 457.326 98.1594V136.188H443.163V99.8638C443.163 90.8625 438.903 83.8852 430.171 83.8852C424.101 83.8852 418.99 87.0809 416.115 93.9517C416.221 95.3897 416.381 96.7746 416.381 98.2126V136.242H402.218V99.8638H402.165Z" fill="#333333"/>
<path d="M521.645 44.7368H535.808V77.8657C540.333 72.8591 547.149 70.7819 553.964 70.7819C569.778 70.7819 580.001 81.7538 580.001 98.2118V136.241H565.838V99.9161C565.838 90.7551 560.673 83.9376 551.142 83.9376C544.061 83.9376 538.523 87.8257 535.808 94.4834V136.241H521.645V44.7368Z" fill="#333333"/>
<path d="M489.802 136.72C470.847 136.72 457.27 122.765 457.27 103.697C457.27 84.8957 470.368 70.6748 489.909 70.6748C509.343 70.6748 522.92 85.5349 521.643 107.159H471.06C471.539 116.8 478.94 124.416 490.228 124.416C497.203 124.416 503.326 121.646 506.255 115.521H520.844C517.383 127.452 505.935 136.72 489.802 136.72ZM471.592 97.1992H506.681C504.498 86.9197 497.256 82.3392 489.536 82.3392C480.751 82.3392 473.509 87.4523 471.592 97.1992Z" fill="#333333"/>
<path d="M109.424 180.821L42.1763 113.552C41.4308 112.806 41.4308 111.581 42.1763 110.782L109.424 43.5123C112.459 40.4763 117.464 44.0449 115.548 47.933C115.548 47.933 91.3212 89.7436 81.5774 107.533C79.98 110.409 79.98 113.924 81.5774 116.801C91.2679 134.643 115.548 176.401 115.548 176.401C117.464 180.289 112.459 183.857 109.424 180.821Z" fill="#333333"/>
<path d="M6.55193 1.17124L73.8001 68.441C74.5455 69.1867 74.5455 70.4117 73.8001 71.2106L6.55193 138.427C3.51698 141.463 -1.48803 137.895 0.428783 134.006C0.428783 134.006 23.9097 92.036 33.3873 74.2998C34.9314 71.4237 34.9314 68.0149 33.3873 65.192C23.9097 47.5091 0.428783 5.53872 0.428783 5.53872C-1.48803 1.6506 3.46374 -1.91795 6.55193 1.17124Z" fill="#333333"/>
</svg>
