<svg width="27" height="14" viewBox="0 0 27 14" fill="none" xmlns="http://www.w3.org/2000/svg">
<path d="M21.5334 9.20777L21.7734 8.96777H24.0414C24.3694 8.96777 24.6454 8.93977 24.8694 8.88377C25.0934 8.82777 25.2734 8.73577 25.4094 8.60777C25.5534 8.47977 25.6534 8.31577 25.7094 8.11577C25.7734 7.90777 25.8054 7.65577 25.8054 7.35977V6.97577H25.7454C25.6334 7.23977 25.4454 7.44777 25.1814 7.59977C24.9254 7.75177 24.6214 7.82777 24.2694 7.82777C23.6294 7.82777 23.1334 7.66377 22.7814 7.33577C22.4294 7.00777 22.2534 6.54377 22.2534 5.94377C22.2534 5.59177 22.3054 5.25977 22.4094 4.94777C22.5214 4.63577 22.6734 4.36377 22.8654 4.13177C23.0574 3.89977 23.2854 3.71577 23.5494 3.57977C23.8214 3.44377 24.1174 3.37577 24.4374 3.37577C25.1254 3.37577 25.6654 3.67177 26.0574 4.26377C26.4494 4.85577 26.6454 5.68777 26.6454 6.75977C26.6454 7.35977 26.6014 7.86777 26.5134 8.28377C26.4254 8.69977 26.2774 9.03577 26.0694 9.29177C25.8694 9.53977 25.6014 9.71977 25.2654 9.83177C24.9374 9.94377 24.5294 9.99977 24.0414 9.99977H21.5334V9.20777ZM24.5094 6.77177C24.8534 6.77177 25.1254 6.74377 25.3254 6.68777C25.5334 6.62377 25.6934 6.52777 25.8054 6.39977C25.7894 5.79177 25.6534 5.30777 25.3974 4.94777C25.1414 4.58777 24.7974 4.40777 24.3654 4.40777C23.9574 4.40777 23.6414 4.53977 23.4174 4.80377C23.2014 5.05977 23.0934 5.39977 23.0934 5.82377C23.0934 6.15977 23.1854 6.40377 23.3694 6.55577C23.5614 6.69977 23.8614 6.77177 24.2694 6.77177H24.5094ZM24.3654 1.93577C24.2054 1.93577 24.0774 1.89177 23.9814 1.80377C23.8854 1.70777 23.8374 1.55577 23.8374 1.34777C23.8374 1.13977 23.8854 0.991766 23.9814 0.903766C24.0774 0.807766 24.2054 0.759766 24.3654 0.759766H24.4974C24.6574 0.759766 24.7854 0.807766 24.8814 0.903766C24.9774 0.991766 25.0254 1.13977 25.0254 1.34777C25.0254 1.55577 24.9774 1.70777 24.8814 1.80377C24.7854 1.89177 24.6574 1.93577 24.4974 1.93577H24.3654Z" fill="black"/>
<path d="M21.527 10.0001C21.143 10.0001 20.815 9.96812 20.543 9.90412C20.279 9.84012 20.063 9.73612 19.895 9.59212C19.735 9.44012 19.619 9.24412 19.547 9.00412C19.475 8.76412 19.439 8.47212 19.439 8.12812V1.12012H20.327V8.12812C20.327 8.43212 20.411 8.64812 20.579 8.77612C20.747 8.90412 21.007 8.96812 21.359 8.96812H21.779V9.76012L21.539 10.0001H21.527Z" fill="black"/>
<path d="M14.6433 11.8482H15.0873C15.5273 11.8482 15.8873 11.7842 16.1673 11.6562C16.4473 11.5282 16.6673 11.3562 16.8273 11.1402C16.9873 10.9322 17.0993 10.6842 17.1633 10.3962C17.2273 10.1162 17.2593 9.82023 17.2593 9.50823C17.2593 9.27623 17.2473 9.03623 17.2233 8.78823C17.1993 8.53223 17.1673 8.28823 17.1273 8.05623L16.8753 6.70023L17.7153 6.53223L17.8713 7.44423C17.9993 8.18023 18.0633 8.87623 18.0633 9.53223C18.0633 9.97223 18.0153 10.3922 17.9193 10.7922C17.8233 11.2002 17.6593 11.5562 17.4273 11.8602C17.2033 12.1722 16.8993 12.4202 16.5153 12.6042C16.1393 12.7882 15.6633 12.8802 15.0873 12.8802H14.6433V11.8482Z" fill="black"/>
<path d="M4.16398 13.6717C3.00398 13.6717 2.09998 13.4077 1.45198 12.8797C0.803981 12.3517 0.47998 11.6157 0.47998 10.6717C0.47998 10.3037 0.52798 9.91567 0.62398 9.50767C0.72798 9.09167 0.86798 8.67967 1.04398 8.27167L1.78798 8.49967C1.63598 8.81167 1.51198 9.13967 1.41598 9.48367C1.31998 9.81967 1.27198 10.1397 1.27198 10.4437C1.27198 11.1237 1.49198 11.6517 1.93198 12.0277C2.37998 12.4037 3.00398 12.5917 3.80398 12.5917H4.52398C5.48398 12.5917 6.22798 12.4397 6.75598 12.1357C7.29198 11.8397 7.55998 11.4237 7.55998 10.8877V10.7437L5.74798 10.3357C5.41998 10.2637 5.14398 10.1797 4.91998 10.0837C4.69598 9.98767 4.51198 9.87567 4.36798 9.74767C4.23198 9.61167 4.13198 9.45967 4.06798 9.29167C4.01198 9.11567 3.98398 8.91167 3.98398 8.67967C3.98398 8.30367 4.05598 7.93967 4.19998 7.58767C4.35198 7.23567 4.54798 6.92767 4.78798 6.66367C5.03598 6.39167 5.31998 6.17567 5.63998 6.01567C5.95998 5.84767 6.29198 5.76367 6.63598 5.76367C7.62798 5.76367 8.34398 6.28367 8.78398 7.32367L9.19198 8.28367C9.32798 8.58767 9.47198 8.80367 9.62398 8.93167C9.77598 9.05167 9.98398 9.11167 10.248 9.11167C10.624 9.11167 10.9 9.02367 11.076 8.84767C11.26 8.67167 11.352 8.37167 11.352 7.94767V7.01167H12.192V7.94767C12.192 8.37967 12.252 8.68367 12.372 8.85967C12.492 9.02767 12.7 9.11167 12.996 9.11167H13.236C13.748 9.11167 14.004 8.85567 14.004 8.34367C14.004 8.21567 13.996 8.05167 13.98 7.85167C13.972 7.64367 13.948 7.42367 13.908 7.19167L13.812 6.53167L14.64 6.42367L14.724 7.05967C14.756 7.30767 14.78 7.54367 14.796 7.76767C14.812 7.99167 14.82 8.18367 14.82 8.34367C14.82 8.89567 14.672 9.33567 14.376 9.66367C14.08 9.98367 13.66 10.1437 13.116 10.1437C12.172 10.1437 11.62 9.74367 11.46 8.94367H11.4C11.312 9.35967 11.156 9.66367 10.932 9.85567C10.708 10.0477 10.4 10.1437 10.008 10.1437C9.81598 10.1437 9.63998 10.1157 9.47998 10.0597C9.31998 10.0037 9.17198 9.91567 9.03598 9.79567C8.90798 9.67567 8.77998 9.51967 8.65198 9.32767C8.53198 9.13567 8.41198 8.89967 8.29198 8.61967L7.89598 7.71967C7.75998 7.39967 7.57998 7.16767 7.35598 7.02367C7.13198 6.87167 6.85198 6.79567 6.51598 6.79567C6.29198 6.79567 6.07598 6.83967 5.86798 6.92767C5.65998 7.01567 5.47598 7.13567 5.31598 7.28767C5.15598 7.43967 5.02798 7.61167 4.93198 7.80367C4.83598 7.99567 4.78798 8.19567 4.78798 8.40367C4.78798 8.52367 4.79998 8.63167 4.82398 8.72767C4.85598 8.81567 4.90798 8.89567 4.97998 8.96767C5.05998 9.03167 5.16398 9.09167 5.29198 9.14767C5.41998 9.19567 5.58398 9.24367 5.78398 9.29167L7.30798 9.66367C7.66798 9.75167 7.93198 9.89167 8.09998 10.0837C8.26798 10.2837 8.35198 10.5517 8.35198 10.8877C8.35198 11.3277 8.25598 11.7197 8.06398 12.0637C7.87998 12.4077 7.60798 12.6997 7.24798 12.9397C6.88798 13.1797 6.44798 13.3597 5.92798 13.4797C5.40798 13.6077 4.81998 13.6717 4.16398 13.6717Z" fill="black"/>
</svg>
