<svg width="737" height="737" viewBox="0 0 737 737" fill="none" xmlns="http://www.w3.org/2000/svg">
<path d="M338.609 28.4102C341.731 -8.18999 395.269 -8.18998 398.391 28.4102L406.125 119.074C408.511 147.045 444.577 156.709 460.629 133.678L512.658 59.028C533.662 28.8924 580.028 55.6617 564.432 88.9194L525.798 171.303C513.878 196.72 540.28 223.122 565.697 211.202L648.081 172.568C681.338 156.972 708.108 203.338 677.972 224.342L603.322 276.371C580.291 292.423 589.955 328.489 617.926 330.875L708.59 338.609C745.19 341.731 745.19 395.269 708.59 398.391L617.926 406.125C589.955 408.511 580.291 444.577 603.322 460.629L677.972 512.658C708.108 533.662 681.338 580.028 648.081 564.432L565.697 525.798C540.28 513.879 513.878 540.28 525.798 565.697L564.432 648.081C580.028 681.338 533.662 708.108 512.658 677.972L460.629 603.322C444.577 580.291 408.511 589.955 406.125 617.926L398.391 708.59C395.269 745.19 341.731 745.19 338.609 708.59L330.875 617.926C328.489 589.955 292.423 580.291 276.371 603.322L224.342 677.972C203.338 708.108 156.972 681.338 172.568 648.081L211.202 565.697C223.121 540.28 196.72 513.878 171.303 525.798L88.9194 564.432C55.6617 580.028 28.8924 533.662 59.028 512.658L133.678 460.629C156.709 444.577 147.045 408.511 119.074 406.125L28.4102 398.391C-8.18999 395.269 -8.18998 341.731 28.4102 338.609L119.074 330.875C147.045 328.489 156.709 292.423 133.678 276.371L59.028 224.342C28.8924 203.338 55.6617 156.972 88.9194 172.568L171.303 211.202C196.72 223.122 223.122 196.72 211.202 171.303L172.568 88.9194C156.972 55.6617 203.338 28.8924 224.342 59.028L276.371 133.678C292.423 156.709 328.489 147.045 330.875 119.074L338.609 28.4102Z" fill="#84986E"/>
</svg>
