<?xml version="1.0" encoding="utf-8"?><svg version="1.1" id="logo" xmlns="http://www.w3.org/2000/svg" x="0" y="0" viewBox="0 0 600 600" style="enable-background:new 0 0 600 600" xml:space="preserve"><style>.st0{display:none}.st1{fill-rule:evenodd;clip-rule:evenodd;fill:#fff}.st1,.st2{display:inline}.st2,.st3{fill:#fff}</style><path class="st3" d="M371.3 269.2c-41.1-.1-69.1-33.2-61.6-70.6 4.4-21.6 18.2-36.2 39.2-43.2 29.3-9.9 62.6 2.9 75.5 29.3 10.2 21 7.9 41.1-5.6 60-12.4 17.2-29.9 23.9-47.5 24.5zM184.3 207.1c-2.6-7.7-5.3-15.3-7.9-23-4.4-13.1-8.8-26.3-13.2-39.5-.6-1.7-1.1-3.4-1.4-5.2-1.1-5.4 1.2-9.2 6.5-10.9 52.6-16.3 105.1-32.6 157.7-49 15.7-4.9 31.4-10 47.1-15 6.5-2.1 11.1.2 13.4 6.8 6.8 19.9 13.5 39.9 20.3 59.8.4 1.2 1.4 2.6.2 3.6-1.1.9-2.1-.3-3-.9-22.3-16.9-47.7-25.2-75.4-27.3-35.1-2.7-67.7 4.3-96.8 24.5-22.5 15.6-38.7 35.9-44.6 63.3-.9 4.1-1 8.3-1.5 12.4-.5.2-1 .3-1.4.4zM239.1 296.5c.4 0 .6.2.7.5.1.9.8 1.3 1.5 1.7 19.5 10.8 40.7 15.8 62.8 17.4 6.9.5 14 .1 20.9.1-1.7 1.1-3.5 1.3-4.6 2.9-.5.1-1 .2-1.6.3-.8.1-1.6 0-2.4.2-23 7.1-46 14.2-69 21.2-5 1.5-10 4.1-15.6 2-1.7-.7-2.7-1.8-3-3.6.5-1.7-.5-3.2-1-4.7-6.2-18.9-12.6-37.7-18.9-56.6-.6-1.9-2-3.8-.9-6.1 3.9 2.6 6.8 6.3 10.1 9.5.6 2 1.8 3.3 4 3.5.6.5 1.2.9 1.9 1.4.2 1.1.8 1.6 1.9 1.6.7.5 1.3 1 2 1.5.2 1.1 1 1.5 2 1.4.6.4 1.3.9 1.9 1.3.6 2 2.2 2.4 4 2.6l.9.6c.6 1.2 1.4 1.5 2.4 1.3zM453.3 272c-.3 4.5-3 7.1-7.1 8.4-11.8 3.7-23.7 7.3-35.6 11-6.5 2-13.1 4.1-19.6 6.2-1.2.4-2.6 1.5-3.2-.2-.5-1.3 1.2-1.5 2.1-2 20.2-12.1 36.4-28.1 46.3-49.8 1.2-2.7 2.1-5.5 3.1-8.2.3-.8.4-1.7 1.4-1.8.9 0 1.5.6 1.7 1.5 2.6 11.3 7.5 21.9 10.6 33 .2.6.2 1.3.3 1.9zM265.6 495.5v-15.2c0-2.4.7-3.9 3.5-3.1 2.3.6 4.5-.4 6.8-.6 5.1-.7 10 1.8 11.8 6 1.7 3.9.4 9.2-3.6 12.2-2.5 1.9-2.8 3.5-1.2 6.1 2 3.3 3.7 6.9 5.7 10.3.7 1.2 1 3.2 2.8 3 1.7-.1 1.9-2 2.4-3.3 3.4-9.9 6.8-19.7 10.2-29.6l.3-.9c.7-1.6 1.2-3.7 3.4-3.6 2 0 2.4 1.9 3 3.5 3 9 6 17.9 9 26.9.4 1.2 1.1 2.4 1.3 3.7.3 1.6 2.9 3.9-.3 4.8-2.6.7-6.1 1.6-7.3-2.6-.3-.9-.4-1.9-.6-2.9-.6-3.3-1.6-5.9-5.8-5.9-3.9 0-7 .5-8.2 5-.9 3.6-.8 9.3-7.4 5.2-.2-.2-1 .6-1.6.8-4.7 1.8-8.1.4-10.4-4.2-.9-1.9-1.6-3.9-2.5-5.8-.5-1.1-.7-2.9-2.5-2.4-1.7.5-1.1 2.2-1.1 3.4 0 1.6.2 3.3.5 4.8.6 2.6.6 4.6-2.8 4.8-2.9.2-5.3-.4-5.2-4.1-.1-5.5-.2-10.9-.2-16.3zm7.2-7.5v3.4c.1 1.5-.6 3.4 1.6 4.1 2 .7 3.6-.5 4.6-2 2.4-3.5 2.8-7.3.7-11-1-1.7-2.7-2.9-4.9-2.4-2.5.6-1.9 2.6-2 4.4-.1 1.2 0 2.4 0 3.5zm32.8 12.4c1.5-.2 4.3.2 3.5-1.9-1-2.8-.2-7.9-3.6-8-2.7-.1-2.7 4.9-3.5 7.7-.7 2.8 2.1 2 3.6 2.2zM406.1 494.8c-.1 16.2-11.3 24.7-25.3 20.7-6.9-2-9.9-7.2-11.3-13.5-1.7-8.2-.5-16.1 6.4-21.8 6.2-5.1 13.3-6 20.6-2.3 7.4 3.8 9.7 10.5 9.6 16.9zm-29.1 2.7c-.2 2.8.6 6.1 2 9.3 1.4 3.4 3.9 5.7 7.7 5.9 3.8.2 6.5-1.8 8.3-5 4.2-7.5 4.3-15.3.6-23-3.1-6.4-11.1-6.8-15.1-.9-2.5 3.9-3.5 8.4-3.5 13.7zM15.8 496c0-5.2.1-10.4 0-15.6 0-2.4.5-3.5 3.3-3.4 3.5.1 7.1-.8 10.7-.7 9.8.1 16.2 6.3 16.9 16 .3 3.9 0 7.8-1.4 11.5-3 8.4-7.3 11.6-16.3 12-13.3.6-13.3.6-13.2-12.4V496zm7.4.4v9.8c0 6 2.2 7.4 7.8 5 2.8-1.2 4.7-3.4 6-6.2 2.7-6 2.4-12.1.1-18.1-1.8-4.6-5.5-6.2-10.1-6.2-2.5 0-3.9 1.1-3.8 3.9.1 4 0 7.9 0 11.8zM107.2 514.2c-5.1 2.9-9.3 1.7-11.5-3.4-1.1-2.5-2.1-5.1-3.2-7.7-.3-.7-.8-1.5-1.8-1.3-1.1.2-1 1.2-1 1.9.1 2.8.2 5.5.6 8.3.4 2.6-.5 3.8-3.1 3.6-2.1-.1-5 .7-5-2.9v-33.3c0-1.2.2-2.7 1.7-2.4 3.5.8 6.8-.8 10.2-.6 4.7.3 8.7 1.9 10.4 6.8 1.6 4.8-.2 8.9-4 11.6-2.7 2-2.7 3.4-1.1 5.9 2.9 4.5 5.3 9.1 7.8 13.5.1.1 0 0 0 0zm-17.4-26.8s-.1 0 0 0c0 1.5-.1 2.9 0 4.4 0 1.4-.5 3.2 1.4 3.7 1.5.4 2.8-.4 3.9-1.5 2.9-3.1 3.1-6.7 1.7-10.4-.8-2.1-2.4-3.6-4.9-3.3-2.9.4-1.9 2.9-2 4.6-.2.9-.1 1.7-.1 2.5zM562.1 509.7c-3.1-.1-6.2-.2-9.2-1.2-2.3-.8-3.4-2-3.4-4.6 0-3.7.9-4.5 4.2-2.5 2.8 1.8 6 2.5 9.4 2.3 2.1-.1 4.9 0 5-2.7.1-2.3-2.5-2.6-4.3-3.1-2.5-.6-5.1-1.1-7.6-1.9-3.8-1.2-6.1-3.9-6.3-7.9-.2-4 2.2-6.7 5.7-8.4 5.8-2.8 11.7-2.2 17.7-.6 3.6 1 3.1 3.9 2.6 6.4-.5 2.5-2.4 1-3.5.4-3.3-1.8-6.7-2.4-10.4-1.8-1.5.2-3 .8-3 2.7 0 1.6 1.5 2.1 2.7 2.4 2.7.7 5.4 1.2 8 2 4 1.2 7.1 3.3 7.2 8.1.1 4.8-2.8 7.4-6.8 9.2-2.4 1.1-5.2 1.1-8 1.2zM464.3 493.6c0-3.7.1-7.5 0-11.2-.1-2.8.6-4.3 3.8-4.1 3.7.2 7.5 0 11.2.1 6.8.3 11 3.8 11.2 9.2.3 6-4.3 10.8-10.9 11.5-.6.1-1.3.2-2 .1-4.1-.6-5.7 1.2-5 5.2.7 4-1.2 5.1-5 4.9-2.5-.2-3.6-.9-3.5-3.4.2-4.1.2-8.2.2-12.3zm8.2-5.2c0 2.7-.5 5.3 3.2 5.1 3.2-.2 6.2-1 6.3-4.7.1-3.5-2.9-4.3-5.8-4.6-3.8-.4-3.9 1.9-3.7 4.2zM256.3 515.9c-3.5.2-5.1-1.8-5.3-5-.3-3.8-1.3-6.8-5.9-6.8-4.4-.1-7.7 1.3-8.3 6.3-.2 1.3-.6 2.6-1.1 3.7-.7 1.5-2.1 2.2-3.7 1.5-1.7-.7-1-2.1-.6-3.4 3.8-10.8 7.5-21.6 11.3-32.4.6-1.6 1.1-3.3 3.2-3.2 1.9.1 2.5 1.8 3.1 3.4l11.1 32.4c.8 2.8.1 3.5-3.8 3.5zm-12.6-15.4c1.5-.4 4.4.7 3.7-2.3-.7-2.8-.6-7.7-3.4-7.8-2.5 0-2.8 4.9-3.5 7.8-.7 2.6 1.7 2.1 3.2 2.3zM73.9 515.7c-4.5.4-5.7-1.7-6.2-5.2-.9-5.9-3.4-7.5-9.1-6.3-2.3.5-3.8 1.5-4.4 3.9-.5 1.9-1 3.8-1.7 5.6-.6 1.7-2 2.2-3.6 1.7-1.9-.5-1.2-1.9-.8-3.1l11.4-32.7c.5-1.3.9-3 2.7-3.1 2.1-.1 2.7 1.7 3.2 3.2 3.8 10.9 7.5 21.8 11.3 32.8 1.5 4.1-2 2.6-2.8 3.2zm-13.4-15.2c1.6-.2 4.4.5 3.6-2.2-.7-2.8-1-7.9-3.2-7.8-3.4.2-3 5.1-3.9 8-.6 2.3 2 1.8 3.5 2zM177 515.7c-2.9.3-4.9-1.4-5.5-4.5-.9-4.3-2.2-7.5-7.8-7.2-5.3.3-6.4 3.6-7.2 7.6-.2.9-.5 1.9-1.1 2.7-.8 1.2-2 1.8-3.4 1.3-1.7-.7-1.1-2-.7-3.3 3.8-10.9 7.6-21.8 11.5-32.7.5-1.4 1.2-2.9 2.9-3 1.7 0 2.4 1.4 2.9 2.8 3.9 11 6.9 22.4 11.4 33.3 1.3 2.7-.5 3.1-3 3zm-13-15.2c1.4-.3 4.4.5 3.5-2.2-.9-2.8-.5-7.7-3.4-7.8-2.9-.1-2.7 4.8-3.6 7.5-.8 2.7 1.6 2.4 3.5 2.5zM188 515.3c-.3 0-.6.1-1 .1-1.7-2.3-.3-5.1-1.4-7.5l.3-19.1c1.4-2.6 1.4-5.2 0-7.9V479c1.4-.4 2.9-.8 4.3-1.2 2.3 1 3.3 3.2 4.6 5.2-.1 1.1.4 1.8 1.5 2 1.5 1.9 3 3.8 4.4 5.7-.1 1.2.4 1.9 1.6 2.1 2 2.1 3.9 4.3 5.2 7 .1 1.8 1.1 2.9 2.8 2.5 1.7-.4 1.1-2.1 1.1-3.3v-17.9c0-1.1-.2-2.4 1.3-2.7 1.6-.3 1.6 1.3 2.1 2.2-.1.8-.1 1.6-.2 2.3-2.4 3.7-.9 7.8-1.2 11.8-.7 6.9.9 13.9-1 20.8-3.1.5-3.7-2.1-4.9-4 .2-1.2-.4-1.9-1.6-2.1-1.7-2.3-3.5-4.6-5.2-6.9.1-1.1-.4-1.8-1.5-2l-1.5-1.8c.1-1.2-.5-1.9-1.7-2.1-.4-.6-.9-1.2-1.3-1.8.1-1.2-.4-2-1.6-2.1-.4-.5-.8-1-1.1-1.5-.2-1.3-1.1-1.8-2.3-1.3-.8.3-1 1-.3 1.8 0 6.3 0 12.6.1 18.9-1.1 1.3-.6 2.7-.4 4-.3.2-.7.5-1.1.7zM528.5 491.4v6.8c0 7.4-3.5 11-11 11.3-2.3.1-4.6.1-6.8-.3-2.7-.4-2.5-2.7-2.3-4.6.2-2.1 1.6-1.9 3.3-1.6 7.2.9 8.2-.1 8.2-7.4 0-1.8-.1-3.6 0-5.4.1-3.4.4-6.7-4.9-6-1.8.3-2.5-1.2-2.4-2.9.1-1.7.7-2.9 2.5-3 3.6-.1 7.2-.1 10.8 0 2.1 0 2.7 1.4 2.7 3.3-.1 3.3 0 6.5-.1 9.8.1 0 0 0 0 0zM361.8 511.1c.3-.2.6-.5.9-.7.7.4 1.4.9 2.2 1.3 0 1.1-.3 2-1.3 2.6-1.9.7-4.2.4-5.8 1.9-1.3.5-2.6.5-3.9.1-3-.9-6-1.9-9-2.8-12.1-10.8-9.9-30.2 4-36.2 4.6-2 9.2-1.8 13.9-.2 1.5.5 3.3.9 3.3 3.1 0 1.2-.3 2.5-1.4 3-1.8.9-2.3-1.3-3.6-1.9-.7-.3-1.4-.8-2.1-1.3-1.6-1.5-3.3-1.5-5-.2-1.3.7-2.6 1.4-4 2.1-1.4.3-2 1.3-2.1 2.7l-.9 2.1c-1.5 1.5-2.3 3.3-1.6 5.4v8.1c-.4 1.3-.6 2.6.9 3.4 1.4 3.9 3.6 7 7.5 8.8 2.9 1.8 5.6 1.3 8-1.3zM440.7 497.4c-.2-6.8 2-12.5 5.8-17.6.8-1.1 1.5-2.3 2.9-2.5 2.2-.3 5-1.4 6.4.5 1.3 1.8-1.5 2.9-2.6 4.2-7.1 8.9-7 22.4.5 31.3 1.2 1.5 4.5 3.1 2.1 5-2 1.5-5.5 1.6-7.8-1.4-4.5-5.9-7.7-12.2-7.3-19.5zM598 497c.9 8.4-3.3 14.4-7.7 20.4-1.9 2.5-4.8 1.8-6.7 1.2-2.6-.8-1-2.7.3-4.1 4.7-5 7-10.8 6.9-17.7-.1-6.3-2.2-11.8-6.6-16.4-.8-.8-2-1.5-1.3-2.8.5-1.1 1.7-.5 2.7-.6 3.2-.3 5.6.7 7.4 3.6 3.1 5.2 6 10.4 5 16.4zM380.6 412.4v-13.7c0-1.7.1-3.5 2.3-3.6 2.6-.1 2.7 1.9 2.6 3.7 0 1 .1 2 0 2.9-.5 4.4-.1 6.9 5.6 4.7 4.5-1.7 9 1.5 9.5 6.5.5 4.7.4 9.5.4 14.2 0 1.6-.7 3-2.5 3-2.2 0-2.5-1.7-2.4-3.5 0-3.6 0-7.2.1-10.8.1-2.9-.6-5.6-3.9-5.6-3.4 0-6.6 1.4-6.7 5.6-.1 3.4 0 6.9 0 10.3 0 1.9-.2 3.9-2.6 3.9-2.6 0-2.4-2.2-2.4-4 0-4.4.1-9 0-13.6zM482.1 420.9v4.9c0 2.9 0 5.7-4.3 3.5-1.3-.7-2.5.4-3.7.8-3.7 1.3-7.1.9-9.8-2.1-2.1-2.3-2.5-5-1.2-7.7 1.6-3.4 4.7-4.6 8.4-5 1.8-.2 5.4 2.3 5.3-1.6-.1-3.3-3.6-3.5-6.5-3.6-1.9-.1-5.1 2.8-5.5-.9-.3-3.2 3.5-2.8 5.7-3.1 7.2-.8 11.5 3.1 11.6 10.3v4.5zm-10.7 6.1c2.7-.2 5.5-1 6.1-4.3.5-3-2-3.2-4.2-3.4-2.9-.2-5.9.2-6.2 3.8-.2 2.4 1.7 3.7 4.3 3.9zM434 419.6c-1 0-2-.1-2.9 0-1.6.2-4.1-1-4.5 1.5-.3 2 1.3 3.6 3.1 4.6 2.8 1.5 5.7 1.1 8.6.7 1.1-.1 2.4-.7 2.9.8.6 1.6-.7 2.3-1.9 2.9-6.1 2.8-14.6-.5-16.9-6.6-2.6-6.9.9-14.8 7.4-16.8 6.7-2 13.2 3.2 12.8 10.1-.1 1.9-1 2.7-2.7 2.7-2 .1-3.9.1-5.9.1zm-2.2-3.4c1.9-1 5.6 1.6 5.8-2.4.1-2.4-2.3-4-4.8-4.1-2.8-.1-5.7 1.5-5.9 4.2-.2 3.5 3.1 1.6 4.9 2.3zM301.6 418.5c0 7.3-4.9 12.4-11.7 12.3-6.8-.1-11.6-5.3-11.5-12.5.1-7 5.3-12.3 12-12.2 6.4.2 11.2 5.5 11.2 12.4zm-11.5-8.5c-4-.1-7.1 3.7-7.1 8.4 0 4.9 2.9 8.5 6.9 8.5 4.1 0 7-3.4 7.1-8.3.1-4.8-2.9-8.5-6.9-8.6zM21.6 419.6c-1 0-2-.1-2.9 0-1.6.2-4.1-1-4.6 1.4s1.6 3.8 3.5 4.8c2.8 1.5 5.7 1 8.6.6 1-.1 2-.3 2.5.9.4 1.1-.2 1.8-1.1 2.4-3.1 2.1-11.5 1.1-14.8-1.8-3.5-3.1-4.8-11.1-2.4-15.4 2.7-4.9 7.9-7.3 12.7-5.8 4.2 1.3 7.2 5.9 6.8 10.2-.2 1.8-1.1 2.6-2.8 2.6-1.9.1-3.7.1-5.5.1zm-2-3.2c1.4-1.4 5.3 1.6 5.3-2.5 0-2.6-2.6-4.1-5.2-4-2.7.1-5.5 1.7-5.4 4.5 0 3.1 3.3 1.1 5.3 2zM136.3 418.4c.1 7-5.1 12.4-11.7 12.4s-11.4-5.2-11.4-12c0-7.4 4.6-12.6 11.4-12.7 6.4-.1 11.6 5.3 11.7 12.3zm-4.9.2c0-5.2-2.5-8.4-6.6-8.5-4-.1-7.1 3.4-7.2 8.2-.1 5.1 2.9 8.8 7.1 8.8 4.1-.1 6.6-3.3 6.7-8.5zM123.4 490.9c.4.8.7 1.6 1.1 2.3-.4 1.1-.2 2 .9 2.6.4.8.7 1.6 1.1 2.4-.2 1.8 0 3.6 1.9 4.3 1 .4 1.7-.4 1.8-1.5.3-.8.6-1.5.9-2.3 1.4-1.1 2-2.5 1.8-4.2.1-1.4.6-2.6 1.5-3.6 1.3-.8 1.7-2 1.3-3.4.4-.8.7-1.6 1.1-2.3.4-.1.7-.2 1.1-.2-.2 2.1.5 4 1.1 5.9-2.4.4-2.8 2.2-2.9 4.2-.6 1.5-1.2 3.1-1.8 4.6-1.8 1.2-1.9 3.2-2.2 5.1-.3.6-.5 1.2-.8 1.8-2.1 2.1-3 4.6-2.8 7.5 0 .3-.1.4-.3.5h-2.9c-.1-.5-.2-1-.4-1.5.4-1.9-.4-3.4-1.9-4.5-.4-.8-.7-1.5-1.1-2.3.4-1.1.3-2-.8-2.6-.4-.8-.7-1.6-1.1-2.4.3-1.1.2-2-.9-2.5-.5-1.4-1.1-2.8-1.6-4.2.1-1.1.2-2.4-1.4-2.3-1.5.1-1.6 1.6-1.9 2.8h-1.6c-.5-3.2 1.8-6.1.6-9.3.1-.5.1-1 .2-1.5 1.8-1.8.8-4 1-6 2.6-.4 3.7 1.7 5.2 3.1.4.8.7 1.6 1.1 2.3-.2 2.6.6 5.1 2.7 7.2zM249.2 419.8c-.7-3.1 2.2-7.8-3.4-9.9-.9-.3-.8-2.2.3-2.4 3.7-.7 3-3.6 3.5-6 1-4.9 6.3-8.3 10.7-7.1 1.2.3 2.3.8 2.3 2.2 0 1.5-1.2 1.8-2.4 1.8-2.4 0-4.8.3-5.6 2.9-.8 2.7-1.6 5.8 3.1 5.6 1.5-.1 3.3-.1 3.2 2-.1 2-1.8 2.1-3.3 2-2.9-.2-3.6 1.3-3.5 3.9.2 3.9.1 7.8.1 11.8 0 1.8-.4 3.5-2.5 3.6-2.3.1-2.4-1.8-2.4-3.5-.1-2.1-.1-4.2-.1-6.9zM52.3 419.5c-.7-3 2.3-7.8-3.5-9.7-.9-.3-.7-2.4.7-2.6 3.4-.4 2.9-2.8 3.1-5 .5-5 5-8.6 10-7.9 1.4.2 2.8.6 2.9 2.1.2 1.8-1.5 1.9-2.8 1.9-2.9 0-5.1 1.1-5.7 4.2-.4 2.4-.4 4.7 3.2 4.5 1.5-.1 3.7-.5 3.7 2 0 1.9-1.9 2.1-3.4 1.9-3.3-.3-3.7 1.5-3.6 4.2.2 4.1.1 8.1 0 12.2 0 1.4-.3 2.8-2 2.9-1.9.1-2.6-1.2-2.6-2.8v-7.9zM84 419.6c-.6-3.1 2-7.7-3.6-9.7-.9-.3-.8-2.5.6-2.6 3.5-.3 2.9-2.8 3.1-5 .6-5.1 5-8.6 10-7.9 1.5.2 3.2.5 3.1 2.4-.1 1.8-1.7 1.6-3 1.6-2.4 0-4.3.9-5.1 3.1-1 2.8-1.5 5.7 3.1 5.5 1.4 0 3.3-.3 3.3 1.9 0 2-1.6 2.3-3.2 2.1-3.6-.4-4 1.6-3.8 4.5.2 3.9.1 7.8 0 11.7 0 1.5-.3 3.1-2.3 3.1-1.9-.1-2.2-1.6-2.2-3.2v-7.5zM198.4 430.8c-4.9 0-7.6-2.5-7.8-7.4-.1-2.6-.1-5.2 0-7.8.1-2.2.2-4.2-2.7-4.8-1.8-.4-2.5-2.6-.9-3.1 2.8-1 3.9-2.3 3.9-5.2 0-1 1.1-1.6 2.1-1.6 1.3 0 2.4.7 2.3 2-.2 3.3 1.1 4.5 4.3 4.1 1.2-.2 2.4.2 2.5 1.7.1 1.7-1.1 2.4-2.5 2.3-4.2-.5-4.4 2-4.2 5.1.1 2.3 0 4.6.1 6.8s1 3.8 3.5 3.8c1.5 0 3.7-.5 3.4 2.1-.4 2.2-2.4 2-4 2zM532.7 419.2c-.4-3.4 1.7-7.5-3.8-9-1.6-.4-1.1-2.7.8-3 2.5-.4 3.2-1.7 3-4-.1-1.3.6-2.2 2-2.3 1.6-.1 2.6.7 2.5 2.3-.2 3 1.2 4.1 4.1 3.8 1.3-.1 2.9-.1 2.9 1.8 0 1.5-1.1 2.5-2.6 2.3-4.6-.6-4.6 2.3-4.4 5.5.1 1.8 0 3.6 0 5.4 0 3 .9 5.1 4.5 4.9 1.3-.1 2.9-.1 2.9 1.7s-1.6 2.2-3.1 2.4c-5 .7-8.6-2.3-8.8-7.3-.1-1.6-.1-3.1 0-4.5z"/><path class="st3" d="M320.5 319.1c1.2-1.5 3-1.8 4.6-2.9-7 0-14 .4-20.9-.1-22.1-1.6-43.2-6.7-62.8-17.4-.7-.4-1.4-.8-1.5-1.7 9.2 3.7 17.9 8.4 27.5 11.2 19.1 5.6 38.6 7.7 58.5 6.6.6 0 1.3-.2 1.9-.3 1.8-.2 4.8-2.1 5.2-.1.6 3-3 2.6-5.1 2.9-2.5.4-4.7 2.5-7.4 1.8zM504.3 412.4v-13.7c0-1.7.1-3.5 2.3-3.6 2.3-.1 2.5 1.7 2.5 3.4v28.3c0 1.8-.5 3.5-2.6 3.4-2.2-.1-2.2-2-2.2-3.7 0-4.7-.1-9.4 0-14.1zM575.2 409.7c-4.7 1.8-6.8 5.1-5.9 10.3.3 1.9.1 3.9 0 5.9-.1 1.8.6 4.5-2.4 4.3-2.7-.2-2.2-2.7-2.2-4.7 0-4.9.1-9.8.1-14.7 0-3.9-.1-7.8-.1-11.7 0-1.8-.3-4 2.3-3.9 2.7 0 2.2 2.3 2.3 4 0 2.3 0 4.6-.1 6.8 0 1.6.5 2.5 2.3 2.2-.3 4.4 3-.3 3.7 1.5zM322.2 418.6c0-2.3-.1-4.6 0-6.8.1-3-.5-6.7 4.6-3.4 1.7 1.1 3.1-1.2 4.8-1.7 1.9-.5 3.8-1 4.4 1.3.5 2.1-1.3 2.8-3 3-5 .6-6.4 3.6-6 8.2.3 2.6.1 5.2.1 7.8 0 1.6-.4 3.1-2.2 3.2-2.1.1-2.7-1.5-2.7-3.3v-8.3zM138.9 490.7c-.6-1.9-1.3-3.8-1.1-5.9.6-2.3 2-4.4 2-6.8 2.8.1 4.1 1.4 4 4.3-.1 1.5-.5 3.3 1.1 4.6.1.9.1 1.8.2 2.6-.9 2.4-.2 4.8-.2 7.2-1.4 1.6-1.5 3 .7 4 .6 1.9-.5 4.2 1.3 5.8 0 .6.1 1.1.1 1.7-.8 1.7-.3 3.4-.3 5.1-.3.4-.6.7-.8 1.1 0 .3-.1.6-.1 1-2 .3-4.1.8-5.2-1.7.8-3 .2-6.1.2-9.2 1.4-1.9 1.8-3.7-.7-5-.7-2.9.5-6.1-1.2-8.8zM156.8 418.2v-8.3c0-1.6 1.2-3.8 2.3-2.7 3.2 3.1 5.2-.1 7.7-.7 1.5-.3 3.1-.9 3.7 1 .6 2-.5 3.1-2.4 3.3-5.6.5-6.9 3.9-6.4 8.8.3 2.6.1 5.2 0 7.8-.1 1.6-.9 2.9-2.7 2.8-1.6-.1-2.1-1.4-2.1-2.8-.1-3-.1-6.1-.1-9.2zM232 342.7c5.5 2.1 10.5-.4 15.6-2 23-7 46-14.1 69-21.2.7-.2 1.6-.1 2.4-.2-6.4 3.8-13.7 5-20.6 7.2-18.9 6-38 11.7-57 17.4-3.3 1.1-6.7 2.4-9.4-1.2zM208.1 271.8c-1.1 2.2.3 4.1.9 6.1 6.3 18.9 12.6 37.7 18.9 56.6.5 1.5 1.5 3 1 4.7-3.7-5.3-4.7-11.7-6.7-17.7-6.1-17.6-11.9-35.2-17.9-53.3 2 .4 3.6.7 3.7 3-.2.1-.5.3-.7.4.2 0 .5.1.8.2zM113.1 485.4c1.2 3.2-1 6.2-.6 9.3-.6 6.4-1.3 12.7-1.9 19.1.5.1 1 .1 1.4.2 1.3-4.4-.2-9.4 2.4-13.5 1 4.3-.4 8.6-.4 12.9 0 2.6-1.8 3.2-4.1 2.1-.9-.4-1.2-2.1-2.7-1.3l.1.1c2.5-.2 1.8-2.3 2-3.7.8-6.7 1.5-13.5 2.4-20.2.2-1.7.1-3.5 1.4-5zM500 500.7c3.2-.5 4.3.8 4.3 4.1 0 3.2-.6 4.7-4.3 4.7-3.7 0-4.3-1.5-4.3-4.7 0-3.3 1.1-4.6 4.3-4.1zM409.5 510.8c.2-1.8 1.4-3.7 4.2-3.6 2.7.2 4 2.2 3.9 4.7-.1 2.5-1.6 4.5-4.3 4.4-2.7-.1-4-2-3.8-5.5zM214.9 480.5c-.6-.9-.6-2.4-2.1-2.2-1.5.3-1.3 1.6-1.3 2.7v17.9c0 1.2.5 2.9-1.1 3.3-1.7.4-2.7-.7-2.8-2.5 2.8.7 2.4-1.3 2.4-2.9 0-5.7 0-11.4-.1-17.1 0-2.4 1.5-3.2 3.5-3 2.5.3 2.7 1.9 1.5 3.8z"/><path class="st3" d="M212.5 515.4c1.9-6.8.3-13.9 1-20.8.4-3.9-1.2-8.1 1.2-11.8v30.4c0 1.4-.3 2.7-2.2 2.2zM575.2 409.7c-.7-1.8-4 2.9-3.7-1.5 3.4-.1 6.8-1.1 10.2 0 1.1.5 1.6 1.4 1.9 2.5 0 5-.3 10.1.1 15.1.2 2.2-.5 3-2.4 3.3h.1c0-2.1.3-4.2.1-6.3-.4-3.5 1.4-7.3-1.2-10.6-1.5-1.3-3-2.4-5.1-2.5zM535.8 507.3c.2-2.3-1.9-5.5 2.2-6.3 1.8-.4 4.2-.9 5.4 1 1.1 1.7.9 3.9.1 5.7-1.3 2.8-3.9 1.3-6 1.3-.2-1-.8-1.6-1.7-1.7z"/><path class="st3" d="M581.3 429.1c1.9-.3 2.5-1 2.4-3.3-.3-5-.1-10.1-.1-15.1 2.5 5.8 1 11.8 1 17.8 0 1.9-1.8 2.7-3.3.6zM114.4 500.5c-2.6 4.1-1.1 9.1-2.4 13.5-.5-.1-1-.1-1.4-.2.6-6.4 1.3-12.7 1.9-19.1h1.6l.4.1.4-.2c-.1 2-.3 4-.5 5.9z"/><path class="st3" d="M580.2 412.3c2.6 3.3.8 7.1 1.2 10.6.2 2.1 0 4.2-.1 6.3-2.4-3.5-.6-7.4-1.1-11.1-.1-1.9 0-3.9 0-5.8zM138.9 490.7c1.7 2.8.5 5.9 1.2 8.8-.2 1-.4 1.9-.7 2.9-1.3-1.7-.6-3.7-.8-5.6-.1-1.8-.6-2.8-2.6-1.8.1-2.2.5-3.9 2.9-4.3zM144.8 486.8c-1.5-1.2-1.1-3-1.1-4.6.1-2.9-1.2-4.2-4-4.3 2.7-2.6 4.4-1.2 4.9 1.7.5 2.4 1.1 4.8.2 7.2zM581.7 408.3c-3.4-1.1-6.8-.1-10.2 0 3.4-2.9 6.8-3 10.2 0zM140.8 504.5c-.1 3.1.6 6.1-.2 9.2-2.2-2.9-1.4-6.1-1-9.3.4 0 .8.1 1.2.1zM185.6 507.9c1 2.4-.3 5.2 1.4 7.5-2.9-1.5-3-2.1-1.4-7.5zM344.8 513.4c3 .9 6 1.9 9 2.8-3.5.7-6.4-.5-9-2.8zM145.7 515.3c0-.3.1-.6.1-1 .3-.4.6-.7.8-1.1 0-1.7-.5-3.5.3-5.1.6 2.6 3.6 5.6-1.2 7.2zM185.9 480.9c1.4 2.6 1.4 5.2 0 7.9-.7-2.6-.7-5.2 0-7.9zM361.8 511.1c-2.4 2.6-5.1 3.1-8.1 1.3 2.7-.4 5.4-.9 8.1-1.3zM146.8 506.5c-1.8-1.6-.7-3.9-1.3-5.8.2-.8.4-1.7.6-2.5 1.2 2.7 1.3 5.4.7 8.3zM144.8 496.6c.1-2.4-.7-4.8.2-7.2 1.4 2.3 1.5 4.7 1 7.2-.4.1-.8.1-1.2 0zM119.5 481.1c-1.5-1.4-2.6-3.6-5.2-3.1 3.6-1.8 4.1-1.5 5.2 3.1zM123.4 490.9c-2.1-2-2.9-4.6-2.8-7.5 1.3 2.3 2.8 4.6 2.8 7.5zM128.4 513.8c-.2-2.9.7-5.4 2.8-7.5 0 2.9-1.6 5.1-2.8 7.5z"/><path class="st3" d="M139.8 477.9c0 2.5-1.4 4.5-2 6.8-.4.1-.7.2-1.1.2.4-2.5 1-5 3.1-7zM114.3 477.9c-.2 2 .8 4.3-1 6-.2-2.1-1-4.3 1-6zM140.8 504.5c-.4 0-.8-.1-1.2-.1 0-.7-.1-1.4-.1-2 .2-1 .4-1.9.7-2.9 2.4 1.3 2 3.1.6 5zM190.2 477.8c-1.4.4-2.9.8-4.3 1.2.9-3 1.3-3.1 4.3-1.2zM357.7 516.2c1.6-1.5 3.9-1.2 5.8-1.9-1.4 2.1-3.4 2.6-5.8 1.9zM353.8 479.8c1.7-1.3 3.4-1.4 5 .2-1.6-.1-3.3-.1-5-.2zM130.1 500.9c-.1 1.2-.8 1.9-1.8 1.5-1.9-.8-2.1-2.5-1.9-4.3 1.2 1 1.2 3.7 3.7 2.8zM364.9 511.7c-.7-.4-1.4-.9-2.2-1.3.4-1.4 1.7-1.5 2.5-.9 1 .6.5 1.6-.3 2.2zM345.2 492.1c-.7-2.2.1-3.9 1.6-5.4.3 2.1-.4 3.8-1.6 5.4zM222.3 284.8c-2.2-.1-3.4-1.5-4-3.5 2 .4 3.2 1.7 4 3.5zM132 504.5c.3-1.9.4-3.9 2.2-5.1-.3 1.9-.5 3.8-2.2 5.1zM132.8 494.4c.2 1.8-.4 3.1-1.8 4.2-.4-1.8.7-3 1.8-4.2zM144.8 496.6c.4 0 .8 0 1.2.1 0 .5.1 1 .1 1.5-.2.8-.4 1.7-.6 2.5-2.2-1-2.1-2.4-.7-4.1zM236 294.6c-1.8-.2-3.4-.6-4-2.6 1.7.3 3.2 1 4 2.6zM189.1 514.5c-.2-1.4-.7-2.8.4-4 .7 1.4 1.2 2.8-.4 4zM114.9 494.7l-.4.2-.4-.1c.4-1.1.5-2.7 1.9-2.8 1.5-.1 1.4 1.2 1.4 2.3-.9-.4-1.7-.2-2.5.4zM123 508.3c1.5 1.1 2.2 2.6 1.9 4.5-1.5-1.2-2.1-2.7-1.9-4.5zM125.2 514.3h2.9c-1 2-1.9 1.9-2.9 0zM189.4 491.6c-.6-.7-.5-1.4.3-1.8 1.2-.5 2 0 2.3 1.3-.8.2-1.7.4-2.6.5zM346.1 503.6c-1.6-.8-1.3-2.1-.9-3.4 1 1 1.3 2.1.9 3.4zM347.8 484.6c.1-1.4.7-2.4 2.1-2.7-.5 1.1-.7 2.3-2.1 2.7zM135.6 487.4c.4 1.5 0 2.6-1.3 3.4 0-1.4.3-2.5 1.3-3.4zM196.3 485c-1.1-.2-1.6-.9-1.5-2 1.1.2 1.5 1 1.5 2zM535.8 507.3c.9.1 1.5.7 1.7 1.6-1.6.5-2.1-.1-1.7-1.6zM121 503.4c1.1.6 1.3 1.5.8 2.6-.8-.7-1.1-1.6-.8-2.6zM199.2 500.4c1.1.2 1.6.9 1.5 2-1.1-.2-1.5-.9-1.5-2zM226.1 287.8c-1.1 0-1.8-.5-1.9-1.6 1.1 0 1.7.6 1.9 1.6zM202.3 492.8c-1.2-.2-1.7-.9-1.6-2.1 1.1.3 1.5 1.1 1.6 2.1zM205.9 509.3c1.2.2 1.8.9 1.6 2.1-.9-.4-1.6-1-1.6-2.1zM125.3 495.8c-1.1-.6-1.3-1.5-.9-2.6 1 .7 1.3 1.5.9 2.6zM230.1 290.7c-1.1.1-1.8-.3-2-1.4 1.1-.1 1.8.3 2 1.4zM119 498.5c1.1.6 1.3 1.5.9 2.5-1-.6-1.1-1.5-.9-2.5zM196.1 496.6c1.2.2 1.8.9 1.7 2.1-1.1-.4-1.6-1.1-1.7-2.1zM239.1 296.5c-1.1.2-1.9-.1-2.2-1.2 1.1-.3 1.8.2 2.2 1.2zM193.2 492.6c1.3.2 1.7.9 1.6 2.1-1.1-.2-1.6-1-1.6-2.1zM208.1 271.8c-.3-.1-.5-.2-.8-.2.2-.1.5-.3.7-.4.2.1.2.4.1.6z"/><path class="st3" d="m188 515.3 1.2-.9c-.1.8-.5 1.1-1.2.9zM146.7 513.3c-.3.4-.6.7-.8 1.1.2-.4.5-.7.8-1.1z"/></svg>