<?xml version="1.0" encoding="utf-8"?><svg version="1.1" id="logo" xmlns="http://www.w3.org/2000/svg" x="0" y="0" viewBox="0 0 600 600" style="enable-background:new 0 0 600 600" xml:space="preserve"><style>.st0{display:none}.st1{fill-rule:evenodd;clip-rule:evenodd;fill:#fff}.st1,.st2{display:inline}.st2,.st3,.st4{fill:#fff}.st4{fill-rule:evenodd;clip-rule:evenodd}</style><path class="st3" d="M0 119c83.6 0 150.4 67.6 150.4 150.4 0 41.4-16.7 78-43 105.8-27-27.9-65.2-45.4-107.4-45.4V119zM107.4 375.2c27.1 27.1 43 64.5 43 105.8H0v-60.5c42.2-.7 80.4-17.4 107.4-45.3z"/><path class="st4" d="M562.6 377.6h35.8v8h-26.3v19.1h25.5v8h-25.5v19.9H600v8h-36.6v-62.9h-.8zm-15.1 0h8.8v62.9h-8L506.1 392v48.5h-8.8v-62.9h7.2l42.2 48.5v-48.5h.8zm-66.9 0h8.8v62.9h-8.8v-62.9zm-27.8 32.6h21.5v26.3c-8 3.2-15.1 4.8-23.1 4.8-10.3 0-19.1-3.2-24.7-8.8-6.4-6.4-9.5-13.5-9.5-22.3 0-9.5 3.2-17.5 9.5-23.1 6.4-6.4 14.3-9.5 23.9-9.5 3.2 0 7.2 0 10.3.8s7.2 2.4 11.9 4v9.5c-7.2-4-15.1-6.4-22.3-6.4s-12.7 2.4-17.5 7.2c-4.8 4.8-7.2 10.3-7.2 17.5 0 7.2 2.4 12.7 7.2 17.5 4.8 4.8 11.1 7.2 18.3 7.2 4 0 8-.8 12.7-2.4h.8v-12.7h-11.9c.1 0 .1-9.6.1-9.6zm-48.6-32.6h8.8v35.8c0 4.8 0 8.8-.8 11.1-.8 2.4-1.6 4.8-2.4 6.4-.8 1.6-2.4 3.2-4 4-4.8 4-11.1 6.4-19.9 6.4-8 0-15.1-2.4-19.9-6.4-1.6-1.6-2.4-2.4-4-4.8-.8-1.6-1.6-4-2.4-6.4s-.8-6.4-.8-11.1v-35.8h8.8v35.8c0 5.6.8 10.3 2.4 11.9 1.6 2.4 3.2 4 6.4 5.6 2.4 1.6 6.4 2.4 9.5 2.4 5.6 0 9.5-1.6 12.7-4 1.6-1.6 3.2-3.2 4-5.6.8-2.4.8-5.6.8-10.3v-35h.8zm-81.9 7.9c-7.2 0-13.5 2.4-17.5 6.4-4.8 4.8-7.2 10.3-7.2 17.5 0 7.2 2.4 12.7 7.2 16.7 4.8 4.8 10.3 6.4 17.5 6.4 7.2 0 12.7-2.4 17.5-7.2 4.8-4.8 7.2-10.3 7.2-17.5 0-6.4-2.4-11.9-7.2-16.7-4.8-3.2-11.2-5.6-17.5-5.6zm-.8-8.7c9.5 0 17.5 3.2 23.9 9.5 6.4 6.4 9.5 13.5 9.5 23.1s-3.2 16.7-9.5 23.1c-6.4 6.4-15.1 8.8-24.7 8.8-9.5 0-17.5-3.2-23.9-8.8-6.4-6.4-9.5-13.5-9.5-23.1s3.2-17.5 9.5-23.1c7.2-6.3 15.1-9.5 24.7-9.5zm-60.5 8.7h-2.4v19.9h3.2c4.8 0 8 0 9.5-.8 1.6-.8 3.2-1.6 4-3.2s1.6-3.2 1.6-5.6c0-1.6-.8-4-1.6-5.6-.8-1.6-2.4-2.4-4.8-3.2-1.5-1.5-4.7-1.5-9.5-1.5zm-11.1 55v-62.9h15.9c6.4 0 11.1 1.6 15.1 4.8 4 3.2 5.6 7.2 5.6 12.7 0 4-.8 7.2-2.4 9.5-1.6 2.4-4.8 4.8-8 6.4 2.4 1.6 4 3.2 5.6 5.6 1.6 2.4 4.8 6.4 8 11.9 2.4 3.2 4 6.4 5.6 8l3.2 4.8h-10.3l-2.4-4-.8-.8-1.6-2.4-2.4-4.8-3.2-4.8c-1.6-2.4-3.2-4.8-4.8-6.4-1.6-1.6-3.2-2.4-4-3.2-1.6-.8-3.2-.8-6.4-.8h-2.4v27.1h-10.3v-.7zM248.3 454.8v25.5h8.8c4 0 6.4-.8 8.8-3.2 1.6-2.4 3.2-5.6 3.2-9.5 0-4-.8-7.2-3.2-9.5-1.6-2.4-4.8-3.2-8.8-3.2-.1-.1-8.8-.1-8.8-.1zm2.4 23.1v-21.5h4.8c1.6 0 3.2 0 4.8.8 1.6 0 2.4.8 3.2 1.6.8.8 1.6 1.6 1.6 3.2s.8 3.2.8 4.8 0 3.2-.8 4.8c-.8 1.6-.8 2.4-1.6 3.2-.8.8-1.6 1.6-3.2 1.6s-3.2.8-4.8.8h-4.8v.7zM333.4 469.9l4.8-12.7 4.8 12.7h-9.6zm4-15.1-10.3 25.5h2.4l3.2-8h11.1l3.2 8h3.2l-9.5-25.5h-3.3zM405 466.7v-9.5h8.8c1.6 0 3.2.8 4 1.6.8.8 1.6 2.4 1.6 4 0 .8 0 1.6-.8 2.4 0 .8-.8.8-.8 1.6-.8.8-.8.8-1.6.8H405v-.9zm-2.3-11.9v25.5h2.4v-11.1h8.8c.8 0 2.4 0 2.4.8l1.6 1.6c0 .8.8 1.6.8 2.4v5.6h2.4s-.8-.8-.8-1.6V470.8c0-.8 0-1.6-.8-1.6 0-.8-.8-.8-1.6-1.6-.8 0-1.6-.8-2.4-.8 1.6 0 3.2-.8 4-2.4.8-.8 1.6-2.4 1.6-4 0-.8 0-2.4-.8-3.2-.8-.8-.8-1.6-1.6-2.4-.8-.8-1.6-.8-2.4-1.6h-13.5v1.6zM491 467.5c0-1.6 0-2.4.8-4 0-1.6.8-2.4 1.6-3.2.8-.8 1.6-1.6 3.2-2.4 1.6-.8 2.4-.8 4-.8s3.2 0 4 .8c1.6.8 2.4 1.6 3.2 2.4.8.8 1.6 2.4 1.6 3.2 0 1.6.8 2.4.8 4s0 2.4-.8 4c0 1.6-.8 2.4-1.6 3.2-.8.8-1.6 1.6-3.2 2.4-.8.8-2.4.8-4 .8s-3.2 0-4-.8c-1.6-.8-2.4-1.6-3.2-2.4-.8-.8-1.6-2.4-1.6-3.2-.8-1.6-.8-3.2-.8-4zm-2.4 0c0 1.6 0 3.2.8 4.8.8 1.6 1.6 3.2 2.4 4 .8 1.6 2.4 2.4 4 3.2s3.2.8 5.6.8c1.6 0 4 0 5.6-.8 1.6-.8 2.4-1.6 4-3.2.8-1.6 1.6-2.4 2.4-4s.8-3.2.8-4.8 0-3.2-.8-4.8c-.8-1.6-1.6-3.2-2.4-4-.8-1.6-2.4-2.4-4-3.2-1.6-.8-3.2-.8-5.6-.8-1.6 0-4 0-5.6.8s-2.4 1.6-4 3.2c-.8 1.6-1.6 2.4-2.4 4-.8.8-.8 3.2-.8 4.8zM576.9 454.8v15.9c0 1.6 0 2.4.8 4 0 .8.8 2.4 1.6 3.2.8.8 1.6 1.6 3.2 2.4 1.6.8 2.4.8 4.8.8 1.6 0 3.2 0 4.8-.8s2.4-1.6 3.2-2.4c.8-.8 1.6-1.6 1.6-3.2 0-.8.8-2.4.8-4v-15.9h-2.4v15.9c0 1.6 0 2.4-.8 4 0 .8-.8 1.6-1.6 2.4-.8.8-1.6.8-2.4 1.6-.8 0-1.6.8-3.2.8-.8 0-2.4 0-3.2-.8-.8 0-1.6-.8-2.4-1.6-.8-.8-.8-1.6-1.6-2.4 0-.8-.8-2.4-.8-4v-15.9h-2.4z"/></svg>