<?xml version="1.0" encoding="utf-8"?><svg version="1.1" id="logo" xmlns="http://www.w3.org/2000/svg" x="0" y="0" viewBox="0 0 600 600" style="enable-background:new 0 0 600 600" xml:space="preserve"><style>.st0{display:none}.st1{fill-rule:evenodd;clip-rule:evenodd;fill:#fff}.st1,.st2{display:inline}.st2,.st3,.st4{fill:#fff}.st4{fill-rule:evenodd;clip-rule:evenodd}.st5{display:inline}.st10,.st7,.st8,.st9{fill:#fff;stroke:#fff;stroke-width:.2;stroke-miterlimit:10}.st10,.st8,.st9{stroke-miterlimit:10.0001}.st10,.st9{stroke-miterlimit:9.9997}.st10{stroke-miterlimit:10.0004}.st13{display:inline;fill:#0c0c0c}</style><path class="st3" d="M160.3 352.2c-28.9 9.1-45.7-.3-55.5-26.2-5-13-13.9-24.6-22.9-40-3.7 20.7-1.8 38-.8 55.1.6 10.3-1.6 14-12.8 13.8-23.7-.4-23.1.3-22.8-23.5.4-38.4.4-76.8-.7-115.2-.3-11.5 1.9-14.9 13.7-14.2 17.2 1.1 34.6-.6 51.9.1 22.1.9 35.3 11.5 39 29.7 3.6 18-4.3 35.2-22.8 43.5-11.1 5-9.4 9.4-4.1 17.4 12.7 19.4 24.9 39.3 37.8 59.5zm-45.1-111.6c-.4-2.1-.7-6.7-2-11.1-3.9-13.2-14.8-15.2-26.1-14.3-12.6 1-5.9 11.4-6.8 17.4-1.3 8.4-1 17.1-.3 25.6.4 5.6-4.1 13.7 4.1 16.2 7.2 2.2 15-.2 21-5.2 8.2-6.6 9.9-16.1 10.1-28.6zM226.2 358c-34.9-.1-55.2-20.3-54.9-54.4.3-35.2 22.9-59.2 55.9-59.2 33.6 0 54.8 21.3 54.8 55.2 0 36-21.6 58.6-55.8 58.4zm21.8-58.6c-.2-10.8.3-21.7-4.1-32-3.1-7.5-8.4-12.3-16.8-12.3-7.7 0-13.1 4.5-15.8 11.3-9 23.1-9 46.7-1.2 70.1 2.5 7.5 8.5 12.2 17.1 11.8 7.9-.3 12.2-5.5 15.2-12.1 5.4-11.7 5.3-24.3 5.6-36.8zM507.8 350c-19.1 9.1-32.5 12.8-44-1.5-5.6-6.9-7.5.5-10.3 2.4-16.3 11-38.5 9.4-48.4-3.7-11.8-15.5-5.6-37.6 13.4-45.5 8.9-3.7 18.6-5.7 28-8.4 6.8-2 13.6-3.9 13.1-13.1-.5-9.1-5.3-14.6-14.1-17.2-9.7-2.8-17.9 1.1-26.4 4.7-2.9 1.2-5.4 8-9.5 2-2.7-4-2.9-8 1.4-12.2 11.3-10.9 41.6-16 59-9.2 18.4 7.1 21.2 22.2 20.7 39.3-.4 13.1-.2 26.3-.5 39.4-.4 9.9-.7 19.8 17.6 23zm-46.5-50.8c-15.6 3.7-27.7 7.6-30 22.5-1.4 9.3-.4 19.3 11.4 21.2 10.5 1.6 15.7-5.5 16.8-15 1-8.9 1.1-17.9 1.8-28.7zM351.4 318c8.2-22.8 14.8-40.8 21.2-58.8 2.1-6 3.5-11.5 12.6-10.6 7.6.8 8.9 2.6 6 9.3-21 49.6-41.9 99.2-62.6 148.9-4.3 10.4-11.9 5.5-20.6 5.1 6.9-14.3 12.7-27.9 20-40.7 6-10.4 6.2-19.5 1.2-30.6-12-26.6-22.4-53.9-34-80.7-3.9-8.9-3.2-10.6 7.5-11.6 17.4-1.6 25.8 4 30.1 20.9 3.9 15.1 11.1 29.4 18.6 48.8zM555.4 188.5c-3.2 55-3.3 109.9 0 164.9-34.4 3.8-34 3.8-32.7-29.2 1.5-38.3 2.1-76.8-.7-115-1.2-15.7.3-25.9 19.8-21.5 4.3 1 9 .6 13.6.8z"/></svg>