<?xml version="1.0" encoding="UTF-8" standalone="no"?>
<svg width="69" height="11" viewBox="0 0 69 11" fill="none" xmlns="http://www.w3.org/2000/svg">
<g id="Frame" clip-path="url(#clip0_2624_305)">
<path id="logo a1 1" d="M0.293617 5.15632C0.538298 3.87953 1.66383 2.99561 3.22979 2.99561C5.04043 2.99561 6.45957 3.78132 6.45957 6.23668V10.8036H4.89362L4.69787 9.8215C4.15957 10.509 3.42553 10.951 2.34894 10.951C1.02766 10.951 0 10.1161 0 8.59382C0 7.0715 1.37021 6.08936 3.27872 6.08936H4.55106V5.74561C4.55106 4.86168 3.91489 4.61614 3.18085 4.61614C2.64255 4.61614 2.10426 4.81257 1.85957 5.50007L0.293617 5.15632ZM2.78936 9.33043C3.67021 9.33043 4.55106 8.74114 4.55106 7.759V7.61168H3.32766C2.49574 7.56257 2.00638 7.90632 2.00638 8.59382C2.00638 8.93757 2.3 9.33043 2.78936 9.33043Z" fill="black"/>
<path id="logo a2 1" d="M37.1911 5.15632C37.4358 3.87953 38.5613 2.99561 40.1272 2.99561C41.9379 2.99561 43.357 3.78132 43.357 6.23668V10.8036H41.7911L41.5953 9.8215C41.057 10.509 40.323 10.951 39.2464 10.951C37.9251 10.951 36.8975 10.1161 36.8975 8.59382C36.8975 7.0715 38.2677 6.08936 40.1762 6.08936H41.4485V5.74561C41.4485 4.86168 40.8124 4.61614 40.0783 4.61614C39.54 4.61614 39.0017 4.81257 38.757 5.50007L37.1911 5.15632ZM39.6868 9.33043C40.5677 9.33043 41.4485 8.74114 41.4485 7.759V7.61168H40.1762C39.3443 7.61168 38.8549 7.90632 38.8549 8.59382C38.9038 8.93757 39.1975 9.33043 39.6868 9.33043Z" fill="black"/>
<path id="logo r 1" d="M45.0703 10.8527V3.09382H46.9788V4.37061C47.5171 3.43757 48.398 2.99561 49.2299 2.99561C49.5724 2.99561 49.8661 3.04471 50.1597 3.14293L49.8171 4.91078C49.5724 4.76346 49.3278 4.66525 49.0341 4.66525C47.9086 4.66525 46.9788 5.59828 46.9788 8.05364V10.8036L45.0703 10.8527Z" fill="black"/>
<path id="logo d 1" d="M54.2215 2.99554C55.0045 2.99554 55.7386 3.38839 56.0811 3.83036V0H57.9896V10.8527H56.0811V10.067C55.8364 10.4598 55.1513 11 54.2215 11C51.9215 11 50.7471 9.37946 50.7471 7.02232C50.7471 4.66518 51.9215 2.99554 54.2215 2.99554ZM54.5152 9.33036C55.4939 9.33036 56.2769 8.49554 56.2769 6.97321C56.2769 5.45089 55.4939 4.61607 54.5152 4.61607C53.5364 4.61607 52.7535 5.45089 52.7535 6.97321C52.7535 8.49554 53.5364 9.33036 54.5152 9.33036Z" fill="black"/>
<path id="logo s 1" d="M64.84 4.22335L63.7145 5.2546C63.3719 4.76353 62.8336 4.5671 62.4421 4.5671C62.0506 4.5671 61.7081 4.81264 61.7081 5.2055C61.7081 5.54925 62.0017 5.79478 62.4421 5.9421C63.5187 6.33496 65.2315 6.67871 65.2315 8.29925C65.2315 9.72335 64.1549 10.8528 62.4911 10.8528C60.8762 10.8528 59.7996 9.72335 59.457 8.79032L60.9741 7.9555C61.2677 8.6921 61.757 9.23228 62.54 9.23228C63.1272 9.23228 63.5187 8.93764 63.5187 8.39746C63.5187 7.75907 62.54 7.61175 61.6102 7.21889C60.7783 6.87514 60.0443 6.33496 60.0443 5.15639C60.0443 3.97782 61.023 2.89746 62.4911 2.89746C63.4698 2.94657 64.3996 3.48675 64.84 4.22335Z" fill="black"/>
<path id="logo w2 1" d="M25.3975 3.09375L24.0273 8.44643L22.706 3.09375H20.9443L19.672 8.44643L18.5954 5.35268L18.4486 5.69643L17.8613 7.70982L18.8401 10.8527H20.5039L21.8252 5.84375L23.1464 10.8527H24.8592L27.306 3.09375H25.3975Z" fill="black"/>
<path id="logo w3 1" d="M34.549 3.09375L33.1788 8.44643L31.8575 3.09375H30.0958L28.8234 8.44643L27.7468 5.35268L27.6 5.69643L26.9639 7.70982L27.9915 10.8527H29.6554L30.9766 5.84375L32.2979 10.8527H33.9617L36.4575 3.09375H34.549Z" fill="black"/>
<path id="logo w1 1" d="M18.1548 3.09375L15.708 10.8036H14.0442L12.7229 5.84375L11.4017 10.8527H9.73782L7.29102 3.14286H9.19953L10.5697 8.44643L11.891 3.14286H13.6527L14.974 8.44643L16.3442 3.14286L18.1548 3.09375Z" fill="black"/>
<path id="logo p 1" d="M67.7274 8.34814C68.4615 8.34814 68.9998 8.88832 68.9998 9.62493C68.9998 10.3615 68.4615 10.9017 67.7274 10.9017C66.9934 10.9017 66.4551 10.3615 66.4551 9.62493C66.4551 8.88832 66.9934 8.34814 67.7274 8.34814Z" fill="black"/>
</g>
<defs>
<clipPath id="clip0_2624_305">
<rect width="69" height="11" fill="white"/>
</clipPath>
</defs>
</svg>
