<?xml version="1.0" encoding="UTF-8" standalone="no"?>
<svg width="141" height="23" viewBox="0 0 141 23" fill="none" xmlns="http://www.w3.org/2000/svg">
<path d="M0.6 10.4996C1.1 7.89961 3.4 6.09961 6.6 6.09961C10.3 6.09961 13.2 7.69961 13.2 12.6996V21.9996H10L9.6 19.9996C8.5 21.3996 7 22.2996 4.8 22.2996C2.1 22.2996 0 20.5996 0 17.4996C0 14.3996 2.8 12.3996 6.7 12.3996H9.3V11.6996C9.3 9.89961 8 9.39961 6.5 9.39961C5.4 9.39961 4.3 9.79961 3.8 11.1996L0.6 10.4996ZM5.7 18.9996C7.5 18.9996 9.3 17.7996 9.3 15.7996V15.4996H6.8C5.1 15.3996 4.1 16.0996 4.1 17.4996C4.1 18.1996 4.7 18.9996 5.7 18.9996Z" fill="white"/>
<path d="M75.9984 10.4996C76.4984 7.89961 78.7984 6.09961 81.9984 6.09961C85.6984 6.09961 88.5984 7.69961 88.5984 12.6996V21.9996H85.3984L84.9984 19.9996C83.8984 21.3996 82.3984 22.2996 80.1984 22.2996C77.4984 22.2996 75.3984 20.5996 75.3984 17.4996C75.3984 14.3996 78.1984 12.3996 82.0984 12.3996H84.6984V11.6996C84.6984 9.89961 83.3984 9.39961 81.8984 9.39961C80.7984 9.39961 79.6984 9.79961 79.1984 11.1996L75.9984 10.4996ZM81.0984 18.9996C82.8984 18.9996 84.6984 17.7996 84.6984 15.7996V15.4996H82.0984C80.3984 15.4996 79.3984 16.0996 79.3984 17.4996C79.4984 18.1996 80.0984 18.9996 81.0984 18.9996Z" fill="white"/>
<path d="M91 22V6.2H94.9V8.8C96 6.9 97.8 6 99.5 6C100.2 6 100.8 6.1 101.4 6.3L100.7 9.9C100.2 9.6 99.7 9.4 99.1 9.4C96.8 9.4 94.9 11.3 94.9 16.3V21.9L91 22Z" fill="white"/>
<path d="M110.799 6.1C112.399 6.1 113.899 6.9 114.599 7.8V0H118.499V22.1H114.599V20.5C114.099 21.3 112.699 22.4 110.799 22.4C106.099 22.4 103.699 19.1 103.699 14.3C103.699 9.5 106.099 6.1 110.799 6.1ZM111.399 19C113.399 19 114.999 17.3 114.999 14.2C114.999 11.1 113.399 9.4 111.399 9.4C109.399 9.4 107.799 11.1 107.799 14.2C107.799 17.3 109.399 19 111.399 19Z" fill="white"/>
<path d="M132.5 8.60039L130.2 10.7004C129.5 9.70039 128.4 9.30039 127.6 9.30039C126.8 9.30039 126.1 9.80039 126.1 10.6004C126.1 11.3004 126.7 11.8004 127.6 12.1004C129.8 12.9004 133.3 13.6004 133.3 16.9004C133.3 19.8004 131.1 22.1004 127.7 22.1004C124.4 22.1004 122.2 19.8004 121.5 17.9004L124.6 16.2004C125.2 17.7004 126.2 18.8004 127.8 18.8004C129 18.8004 129.8 18.2004 129.8 17.1004C129.8 15.8004 127.8 15.5004 125.9 14.7004C124.2 14.0004 122.7 12.9004 122.7 10.5004C122.7 8.10039 124.7 5.90039 127.7 5.90039C129.7 6.00039 131.6 7.10039 132.5 8.60039Z" fill="white"/>
<path d="M51.9 6.2998L49.1 17.1998L46.4 6.2998H42.8L40.2 17.1998L38 10.8998L37.7 11.5998L36.5 15.6998L38.5 22.0998H41.9L44.6 11.8998L47.3 22.0998H50.8L55.8 6.2998H51.9Z" fill="white"/>
<path d="M70.6016 6.2998L67.8016 17.1998L65.1016 6.2998H61.5016L58.9016 17.1998L56.7016 10.8998L56.4016 11.5998L55.1016 15.6998L57.2016 22.0998H60.6016L63.3016 11.8998L66.0016 22.0998H69.4016L74.5016 6.2998H70.6016Z" fill="white"/>
<path d="M37.0984 6.2998L32.0984 21.9998H28.6984L25.9984 11.8998L23.2984 22.0998H19.8984L14.8984 6.3998H18.7984L21.5984 17.1998L24.2984 6.3998H27.8984L30.5984 17.1998L33.3984 6.3998L37.0984 6.2998Z" fill="white"/>
<path d="M138.401 17C139.901 17 141.001 18.1 141.001 19.6C141.001 21.1 139.901 22.2 138.401 22.2C136.901 22.2 135.801 21.1 135.801 19.6C135.801 18.1 136.901 17 138.401 17Z" fill="white"/>
</svg>
