<svg xmlns="http://www.w3.org/2000/svg" data-svg-sprite=""><symbol class="accodion-button" fill="none" id="sprite-accordion-close" viewBox="0 0 11 2"><title>accordion-close</title><path fill="#1D1D1D" d="M0 .5h11v1H0z"/></symbol><symbol class="accodion-button" fill="none" id="sprite-accordion-open" viewBox="0 0 11 12"><title>accordion-open</title><path fill="#1D1D1D" d="M0 5.5h11v1H0z"/><path fill="#1D1D1D" d="M5 11.5V.5h1v11z"/></symbol><symbol class="answer-mark" fill="none" id="sprite-answer-mark" viewBox="0 0 40 40"><title>answer-mark</title><circle cx="20" cy="20" r="20" fill="#1D1D1D"/><path d="M23.88 26c-.147-.48-.313-.973-.5-1.48L22.86 23h-5.4a68.692 68.692 0 01-.54 1.52c-.173.507-.333 1-.48 1.48H13.2c.52-1.493 1.013-2.873 1.48-4.14.467-1.267.92-2.46 1.36-3.58.453-1.12.893-2.18 1.32-3.18.44-1.013.893-2 1.36-2.96h2.98c.453.96.9 1.947 1.34 2.96.44 1 .88 2.06 1.32 3.18.453 1.12.913 2.313 1.38 3.58.467 1.267.96 2.647 1.48 4.14h-3.34zm-3.74-10.72c-.067.2-.167.473-.3.82l-.46 1.2c-.173.453-.367.953-.58 1.5-.2.547-.407 1.12-.62 1.72h3.94c-.213-.6-.42-1.173-.62-1.72-.2-.547-.393-1.047-.58-1.5l-.46-1.2c-.133-.347-.24-.62-.32-.82z" fill="#fff"/></symbol><symbol fill="none" id="sprite-arrow-circle" viewBox="0 0 21 21"><title>arrow-circle</title><circle cx="10" cy="10" r="10" transform="matrix(-1 0 0 1 20.016 .016)" fill="#ECEEF1"/><path d="M10.016 7.016l-3 3 3 3m3-3h-6" stroke="#1D1D1D"/></symbol><symbol fill="none" id="sprite-arrow-left-bare" viewBox="0 0 7 8"><title>arrow-left-bare</title><path stroke="currentColor" d="M4 7L1 4l3-3m3 3H1"/></symbol><symbol fill="none" id="sprite-arrow-pagination" viewBox="0 0 6 10"><title>arrow-pagination</title><path d="M1 9l4-4-4-4" stroke="currentColor"/></symbol><symbol fill="none" id="sprite-arrow-right_20x20" viewBox="0 0 20 20"><title>arrow-right_20x20</title><circle cx="10" cy="10" r="10" fill="#fff"/><path d="M9 8l2 2-2 2" stroke="#1D1D1D"/></symbol><symbol fill="none" id="sprite-arrow-right-bare" viewBox="0 0 7 8"><title>arrow-right-bare</title><path stroke="currentColor" d="M3 1l3 3-3 3M0 4h6"/></symbol><symbol fill="none" id="sprite-arrow-right-breadcrumbs" viewBox="0 0 14 14"><title>arrow-right-breadcrumbs</title><circle cx="7" cy="7" r="7" fill="#ECEEF1"/><path d="M6 5l2 2-2 2" stroke="#1D1D1D"/></symbol><symbol fill="none" id="sprite-arrow-right" viewBox="0 0 14 14"><title>arrow-right</title><circle cx="7" cy="7" r="7" fill="#ECEEF1"/><path d="M6 5l2 2-2 2" stroke="#1D1D1D"/></symbol><symbol fill="none" id="sprite-arrow-top_20x20" viewBox="0 0 20 20"><title>arrow-top_20x20</title><circle cx="10" cy="10" r="10" transform="rotate(-90 10 10)" fill="#1D1D1D"/><path d="M8 11l2-2 2 2" stroke="#fff"/></symbol><symbol fill="none" id="sprite-close_16x16" viewBox="0 0 16 16"><title>close_16x16</title><circle cx="8" cy="8" r="8" fill="#D9D9D9"/><path d="M6 10l4-4M6 6l4 4" stroke="#000" stroke-linecap="round"/></symbol><symbol fill="none" id="sprite-external-link-ico" viewBox="0 0 16 13"><title>external-link-ico</title><path fill-rule="evenodd" clip-rule="evenodd" d="M16 0H3.69v2.6h9.846v6.5H16V0z" fill="#fff"/><path fill="#fff" d="M0 3.9h12.308V13H0z"/></symbol><symbol id="sprite-global-logo" viewBox="0 0 24 5.76"><title>global-logo</title><defs><style>.cls-1{fill:#040000}</style></defs><g id="_レイヤー_1-2" data-name="レイヤー 1"><path class="cls-1" d="M10.08 4.58V.27h-.96v5.22h.65c1.97 0 2.73-1.35 2.73-2.61v-.07h-.9v.07c0 .88-.54 1.7-1.49 1.7h-.04zm-6.4-3.36C3.48.63 2.92 0 1.97 0h-.12C.91 0 .35.63.15 1.22 0 1.66 0 2.17 0 2.8v.16C0 3.6 0 4.1.15 4.55c.2.58.76 1.22 1.71 1.22h.12c.94 0 1.51-.63 1.71-1.22.15-.44.15-.95.15-1.58v-.16c0-.64 0-1.14-.15-1.59zm-2.71.4c.09-.42.48-.72.89-.72h.12c.38 0 .74.25.86.63L.91 3.15v-.34c0-.32 0-.86.06-1.19zm1.89 2.53c-.09.43-.48.72-.89.72h-.12c-.38 0-.74-.25-.86-.62l1.93-1.62v.34c0 .32 0 .86-.06 1.18zm1.79-2.92h3.59V.27H4.65v.96zm0 1.73H6v.63c0 .59-.34 1-.98 1h-.06v.9h.09c1.11 0 1.86-.83 1.86-1.88v-.65h1.35V2H4.67v.96zM17.13 2.39h2.93v.98h-2.93zm6.87 0h-2.04V.27h-1v5.22h1V3.38H24v-.99zM12.83.27v.96h2.71v.19c0 .29-.01.61-.19.86s-.38.33-.62.36v-.71h-.9v1.66c0 .53-.28.92-.81.99v.9c1.03-.07 1.71-.87 1.71-1.87v-.07c.54-.04 1.1-.31 1.41-.83.28-.46.3-.88.3-1.51V.27h-3.61z"/></g></symbol><symbol id="sprite-icon-angle" viewBox="0 0 18.27 28.35"><title>icon-angle</title><path d="M1.97 28.35L0 26.09l13.7-11.91L0 2.26 1.97 0l16.3 14.18-16.3 14.17z"/></symbol><symbol fill="none" id="sprite-icon-broadcast" viewBox="0 0 18 15"><title>icon-broadcast</title><path d="M17 1H1v9h16V1zM8 12h2a2 2 0 012 2H6a2 2 0 012-2zm2-2H8v2h2v-2z" stroke="#1D1D1D" stroke-linecap="round" stroke-linejoin="round"/></symbol><symbol style="width:256px;height:256px" opacity="1" id="sprite-icon-download" viewBox="0 0 512 512"><title>icon-download</title><style>.st0{fill:#4b4b4b}</style><path class="st0" d="M243.591 309.362c3.272 4.317 7.678 6.692 12.409 6.692 4.73 0 9.136-2.376 12.409-6.689l89.594-118.094c3.348-4.414 4.274-8.692 2.611-12.042-1.666-3.35-5.631-5.198-11.168-5.198H315.14c-9.288 0-16.844-7.554-16.844-16.84V59.777c0-11.04-8.983-20.027-20.024-20.027h-44.546c-11.04 0-20.022 8.987-20.022 20.027v97.415c0 9.286-7.556 16.84-16.844 16.84h-34.305c-5.538 0-9.503 1.848-11.168 5.198-1.665 3.35-.738 7.628 2.609 12.046l89.595 118.086z" fill="#fff"/><path class="st0" d="M445.218 294.16v111.304H66.782V294.16H0v152.648c0 14.03 11.413 25.443 25.441 25.443h461.118c14.028 0 25.441-11.413 25.441-25.443V294.16h-66.782z" fill="#fff"/></symbol><symbol id="sprite-icon-facebook" viewBox="0 0 1024 1017.78"><title>icon-facebook</title><path d="M1024 512C1024 229.23 794.77 0 512 0S0 229.23 0 512c0 255.55 187.23 467.37 432 505.78V660H302V512h130V399.2C432 270.88 508.44 200 625.39 200c56 0 114.61 10 114.61 10v126h-64.56c-63.6 0-83.44 39.47-83.44 80v96h142l-22.7 148H592v357.78c244.77-38.41 432-250.23 432-505.78z"/></symbol><symbol fill="none" id="sprite-icon-getpocket" viewBox="0 0 25 22"><title>icon-getpocket</title><path d="M2.24 0C.932.087.14.847.14 2.199v8.097C.14 16.872 6.565 22.04 12.12 22c6.249-.046 12.02-5.419 12.02-11.704V2.199C24.14.842 23.3.077 21.982 0H2.24zM7.3 6.587l4.82 4.663 4.826-4.663c2.16-.924 3.101 1.586 2.214 2.321l-6.283 6.107c-.205.2-1.303.2-1.508 0L5.086 8.908c-.847-.811.255-3.362 2.215-2.321z" fill="#fff"/></symbol><symbol id="sprite-icon-hatebu" viewBox="0 0 500 500"><title>icon-hatebu</title><path d="M214.9 227.3c5.6-3.4 8.5-8.9 8.5-17.4s-2.6-14.5-7.9-18-15.6-5.2-31-5.2h-13.3v45.6h12.3c15.3 0 25.8-1.6 31.4-5zm9.8 51.4c-5.5-3.8-15.9-5.7-30.9-5.7h-22.6v49.5h21.7c14.6 0 25-1.8 31.1-5.5l-.1.1c6.2-3.7 9.2-8.8 9.2-18.4s-2.9-16.2-8.4-20z"/><path d="M398.1 0H101.9A101.9 101.9 0 000 101.9v296.2A101.9 101.9 0 00101.9 500h296.2A101.9 101.9 0 00500 398.1V101.9A101.9 101.9 0 00398.1 0zm-65.5 136.4h50v151.52h-50zm-48.5 194.3a52.53 52.53 0 01-21.9 21.4c-7.7 4.1-17.2 7.1-28.6 8.9s-30 2.6-55.8 2.6h-64.2V136.4h62.3c25.6 0 43.5.7 53.7 2.4a82.37 82.37 0 0126.2 8.6A48.71 48.71 0 01275 166a55 55 0 016.6 27.1c0 12.9-3.2 23-9.8 30.7s-17 13.4-31.4 17.3q24.19 1.8 37.8 17c9.1 10.1 13.6 23.6 13.6 40.5 0 12.2-2.6 22.9-7.7 32.1zm102.3 4.2a28.8 28.8 0 11-28.8-28.8 28.79 28.79 0 0128.8 28.8z"/></symbol><symbol id="sprite-icon-instagram" viewBox="0 0 29.56 29.56"><title>icon-instagram</title><path d="M14.77 7.18a7.59 7.59 0 107.59 7.59 7.59 7.59 0 00-7.59-7.59zm0 12.52a4.93 4.93 0 114.93-4.93 4.93 4.93 0 01-4.93 4.93z"/><circle cx="22.66" cy="6.9" r="1.77"/><path d="M28.78 5.1A7.56 7.56 0 0024.46.78a10.85 10.85 0 00-3.59-.69C19.29.02 18.79 0 14.78 0s-4.52 0-6.09.09A10.85 10.85 0 005.1.78 7.56 7.56 0 00.78 5.1a10.85 10.85 0 00-.69 3.59C.02 10.27 0 10.77 0 14.78s0 4.52.09 6.09a10.85 10.85 0 00.69 3.59 7.56 7.56 0 004.32 4.32 10.85 10.85 0 003.59.74c1.58.07 2.08.09 6.09.09s4.52 0 6.09-.09a10.85 10.85 0 003.59-.69 7.56 7.56 0 004.32-4.32 10.85 10.85 0 00.69-3.59c.07-1.58.09-2.08.09-6.09s0-4.52-.09-6.09a10.85 10.85 0 00-.69-3.64zm-2 15.65a8.18 8.18 0 01-.51 2.77 4.9 4.9 0 01-2.81 2.81 8.18 8.18 0 01-2.74.51c-1.56.07-2 .09-6 .09s-4.41 0-6-.09a8.18 8.18 0 01-2.74-.51 4.89 4.89 0 01-2.82-2.81 8.18 8.18 0 01-.51-2.74c-.07-1.56-.09-2-.09-6s0-4.41.09-6a8.18 8.18 0 01.51-2.77A4.89 4.89 0 015.98 3.2a8.18 8.18 0 012.74-.51c1.56-.07 2-.09 6-.09s4.41 0 6 .09a8.18 8.18 0 012.74.51 4.9 4.9 0 012.81 2.81 8.18 8.18 0 01.51 2.74c.07 1.56.09 2 .09 6s0 4.43-.07 6z"/></symbol><symbol id="sprite-icon-line" viewBox="0 0 120 120"><title>icon-line</title><path d="M94 0H26A26 26 0 000 26v68a26 26 0 0026 26h68a26 26 0 0026-26V26A26 26 0 0094 0zm.13 76.54C85 87.09 64.47 99.94 59.8 101.9s-4-1.25-3.78-2.35l.62-3.74a8.93 8.93 0 00-.14-4c-.5-1.17-2.42-1.81-3.85-2.11-21-2.77-36.54-17.45-36.54-35 0-19.55 19.61-35.45 43.69-35.45s43.7 15.9 43.7 35.45c0 7.83-3 14.87-9.37 21.82z"/><path d="M50.93 45.28h-3.07a.85.85 0 00-.85.85v19a.85.85 0 00.85.85h3.07a.85.85 0 00.85-.85v-19a.85.85 0 00-.85-.85m21.07 0h-3a.85.85 0 00-.85.85v11.31l-8.77-11.79-.06-.08-.05-.05h-3.4a.85.85 0 00-.85.85v19a.85.85 0 00.85.85h3.06a.86.86 0 00.86-.85V53.86l8.73 11.79a.63.63 0 00.22.21h.11A.78.78 0 0069 66h3a.85.85 0 00.85-.85v-19a.85.85 0 00-.85-.85M43.54 61.25h-8.33V46.13a.85.85 0 00-.85-.85H31.3a.85.85 0 00-.85.85v19a.83.83 0 00.24.59.87.87 0 00.59.23h12.26a.85.85 0 00.85-.85v-3a.85.85 0 00-.85-.85M89 50a.85.85 0 00.85-.85v-3.02a.85.85 0 00-.85-.85H76.7a.85.85 0 00-.59.24.83.83 0 00-.24.59v19a.83.83 0 00.24.59.85.85 0 00.59.24H89a.85.85 0 00.85-.85V62.1a.85.85 0 00-.85-.85h-8.38V58H89a.85.85 0 00.85-.85v-3.04a.85.85 0 00-.85-.85h-8.38V50z"/></symbol><symbol fill="none" id="sprite-icon-link" viewBox="0 0 20 20"><title>icon-link</title><path d="M11.04 8.41l-2 3.46m4.11-1.1l1.06-1.83A2.879 2.879 0 0013.16 5l-.21-.12a2.88 2.88 0 00-3.93 1.06L7.96 7.77M6.95 9.51l-1.06 1.83a2.89 2.89 0 001.05 3.94l.21.11a2.88 2.88 0 003.94-1l1.05-1.83" stroke="#1D1D1D" stroke-linecap="round" stroke-linejoin="round"/></symbol><symbol id="sprite-icon-linked_in" viewBox="0 0 24 24"><title>icon-linked_in</title><path d="M19 0H5a5 5 0 00-5 5v14a5 5 0 005 5h14a5 5 0 005-5V5a5 5 0 00-5-5zM8 19H5V8h3v11zM6.5 6.732c-.966 0-1.75-.79-1.75-1.764s.784-1.764 1.75-1.764 1.75.79 1.75 1.764-.783 1.764-1.75 1.764zM20 19h-3v-5.604c0-3.368-4-3.113-4 0V19h-3V8h3v1.765c1.396-2.586 7-2.777 7 2.476V19z"/></symbol><symbol id="sprite-icon-pinterest" viewBox="0 0 242.8 243.2"><title>icon-pinterest</title><path d="M121.5 0a121.54 121.54 0 00-44.3 234.7c-1.1-9.6-2-24.4.4-34.9 2.2-9.5 14.2-60.4 14.2-60.4a44.26 44.26 0 01-3.6-18c0-16.9 9.8-29.5 22-29.5 10.4 0 15.4 7.8 15.4 17.1 0 10.4-6.6 26-10.1 40.5-2.9 12.1 6.1 22 18 22 21.6 0 38.2-22.8 38.2-55.6 0-29.1-20.9-49.4-50.8-49.4-34.6 0-54.9 25.9-54.9 52.7 0 10.4 4 21.6 9 27.7a3.62 3.62 0 01.8 3.5c-.9 3.8-3 12.1-3.4 13.8-.5 2.2-1.8 2.7-4.1 1.6-15.2-7.1-24.7-29.2-24.7-47.1 0-38.3 27.8-73.5 80.3-73.5 42.1 0 74.9 30 74.9 70.2 0 41.9-26.4 75.6-63 75.6-12.3 0-23.9-6.4-27.8-14l-7.6 28.9c-2.7 10.6-10.1 23.8-15.1 31.9A121.61 121.61 0 10121.5 0z"/></symbol><symbol id="sprite-icon-twitter" viewBox="0 0 24 24"><title>icon-twitter</title><path d="M24 4.557a9.83 9.83 0 01-2.828.775 4.932 4.932 0 002.165-2.724 9.864 9.864 0 01-3.127 1.195 4.916 4.916 0 00-3.594-1.555c-3.179 0-5.515 2.966-4.797 6.045A13.978 13.978 0 011.671 3.149a4.93 4.93 0 001.523 6.574 4.903 4.903 0 01-2.229-.616c-.054 2.281 1.581 4.415 3.949 4.89a4.935 4.935 0 01-2.224.084 4.928 4.928 0 004.6 3.419A9.9 9.9 0 010 19.54a13.94 13.94 0 007.548 2.212c9.142 0 14.307-7.721 13.995-14.646A10.025 10.025 0 0024 4.557z"/></symbol><symbol id="sprite-icon-youtube" viewBox="0 0 24 24"><title>icon-youtube</title><path d="M19.615 3.184c-3.604-.246-11.631-.245-15.23 0C.488 3.45.029 5.804 0 12c.029 6.185.484 8.549 4.385 8.816 3.6.245 11.626.246 15.23 0C23.512 20.55 23.971 18.196 24 12c-.029-6.185-.484-8.549-4.385-8.816zM9 16V8l8 3.993L9 16z"/></symbol><symbol id="sprite-logo-old" viewBox="0 0 24 5.8"><title>logo-old</title><path d="M10.1 4.6V.3h-1v5.2h.6c2 0 2.7-1.3 2.7-2.6v-.1h-.9v.1c.1.9-.4 1.7-1.4 1.7zM3.7 1.2C3.5.6 2.9 0 2 0h-.1C.9 0 .3.6.2 1.2c-.2.5-.2 1-.2 1.6V3c0 .6 0 1.1.2 1.6.2.6.8 1.2 1.7 1.2H2c.9 0 1.5-.6 1.7-1.2.2-.4.2-1 .2-1.6v-.2c-.1-.6-.1-1.1-.2-1.6zM1 1.6c.1-.4.5-.7.9-.7H2c.4 0 .7.2.9.6l-2 1.7v-.4c0-.3 0-.9.1-1.2zm1.9 2.6c-.1.4-.5.7-.9.7h-.1c-.4 0-.8-.3-.9-.7l1.9-1.6v1.6zm1.8-3h3.6v-1H4.6c0 .1 0 1 .1 1zm0 1.8H6v.6c0 .6-.3 1-1 1v.9h.1C6.2 5.5 7 4.7 7 3.6V3h1.3V2H4.7v1zM17.1 2.4H20v1h-2.9zm6.9 0h-2V.3h-1v5.2h1V3.4h2zM12.8.3v1h2.7v.2c0 .3 0 .6-.2.9-.2.2-.4.3-.6.4v-.9h-.9v1.7c0 .5-.3.9-.8 1v.9c1-.1 1.7-.9 1.7-1.9v-.1c.5 0 1.1-.3 1.4-.8.3-.5.3-.9.3-1.5V.3h-3.6z"/></symbol><symbol id="sprite-logo" viewBox="0 0 280 68"><title>logo</title><g clip-path="url(#clip0_7465_94601)"><path d="M117.613 53.397V3.187h-11.207v60.895h7.636c23.045 0 31.835-15.738 31.835-30.46v-.77h-10.465v.77c0 10.217-6.318 19.775-17.332 19.775h-.467zM42.959 14.228C40.65 7.388 34.059 0 23.045 0h-1.4C10.63 0 4.064 7.389 1.73 14.228 0 19.392 0 25.27 0 32.713v1.84c0 7.39 0 13.295 1.73 18.486 2.335 6.812 8.872 14.2 19.914 14.2h1.4c11.015 0 17.607-7.416 19.915-14.2 1.758-5.191 1.73-11.07 1.73-18.485v-1.84c0-7.444.028-13.35-1.73-18.486zm-31.67 4.67c1.071-4.945 5.576-8.406 10.355-8.406h1.4c4.423 0 8.57 2.912 10.026 7.307L10.602 36.64v-3.955c0-3.68-.11-10.026.687-13.843v.054zM33.373 48.37c-1.072 4.971-5.576 8.405-10.355 8.405h-1.401c-4.395 0-8.57-2.94-10.053-7.28l22.495-18.842v3.928c0 3.708.11 10.026-.686 13.816v-.027zM54.3 14.363h41.916V3.156H54.3v11.207zm0 20.188h15.712v7.334c0 6.84-3.9 11.673-11.426 11.673h-.742v10.493h.989c12.937 0 21.644-9.641 21.644-21.919v-7.58h15.711v-11.18H54.273v11.18h.028zm179.666-6.613h-34.114v11.48h34.114v-11.48zm46.033-.003h-23.814V3.188h-11.701v60.894h11.701V39.417h23.814V27.935zM149.727 3.188v11.179h31.642v2.197c0 3.433-.11 7.087-2.225 10.053-2.115 2.966-4.45 3.818-7.224 4.175v-8.24h-10.492v19.42c0 6.18-3.214 10.739-9.421 11.535v10.548c11.975-.824 19.886-10.136 19.886-21.837v-.851c6.345-.44 12.799-3.653 16.453-9.723 3.241-5.384 3.46-10.273 3.46-17.634V3.188h-42.134.055z"/></g><defs><clipPath id="clip0_7465_94601"><path d="M0 0h280v67.24H0z"/></clipPath></defs></symbol><symbol fill="none" id="sprite-next-arrow" viewBox="0 0 14 14"><title>next-arrow</title><circle cx="7" cy="7" r="7" transform="matrix(1 0 0 -1 0 14)" fill="#ECEEF1"/><path d="M6 9l2-2-2-2" stroke="#1D1D1D"/></symbol><symbol fill="none" id="sprite-pdf_ico" viewBox="0 0 19 20"><title>pdf_ico</title><path d="M.668 1a.5.5 0 01.5-.5h12a4.5 4.5 0 014.5 4.5v14a.5.5 0 01-.5.5h-16a.5.5 0 01-.5-.5V1z" fill="#fff" stroke="#1D1D1D"/><path d="M5.608 11.495c.517 0 .913.092 1.19.275.277.18.415.477.415.89 0 .417-.14.718-.42.905-.28.183-.68.275-1.2.275h-.245V15h-.78v-3.415c.17-.033.35-.057.54-.07.19-.013.357-.02.5-.02zm.05.665a2.924 2.924 0 00-.31.015v1h.245c.27 0 .473-.037.61-.11.137-.073.205-.21.205-.41a.473.473 0 00-.055-.24.362.362 0 00-.15-.15.592.592 0 00-.235-.08 1.766 1.766 0 00-.31-.025zm3.008 2.205l.125.01h.175c.39 0 .678-.098.865-.295.19-.197.285-.468.285-.815 0-.363-.09-.638-.27-.825-.18-.187-.465-.28-.855-.28a2.84 2.84 0 00-.165.005c-.057 0-.11.003-.16.01v2.19zm2.255-1.1c0 .3-.047.562-.14.785a1.441 1.441 0 01-.4.555 1.67 1.67 0 01-.625.33 2.91 2.91 0 01-.83.11 7.18 7.18 0 01-.49-.02 3.755 3.755 0 01-.55-.07V11.58c.18-.033.366-.055.56-.065a7.85 7.85 0 01.505-.02c.296 0 .565.033.805.1.243.067.451.172.625.315.173.143.306.327.4.55.093.223.14.492.14.805zM11.672 15v-3.465h2.32v.655h-1.54v.725h1.37v.655h-1.37V15h-.78z" fill="#1D1D1D"/><path d="M6.168 9h6" stroke="#000" stroke-linejoin="bevel"/><path d="M7.168 6l2 1 2-1" stroke="#000" stroke-linejoin="round"/><path d="M9.168 7V4" stroke="#000" stroke-linejoin="bevel"/></symbol><symbol fill="none" id="sprite-plus_100x100" viewBox="0 0 100 100"><title>plus_100x100</title><circle cx="50" cy="50" r="50" fill="#fff"/><path fill="#1D1D1D" d="M38 49h24v2H38z"/><path fill="#1D1D1D" d="M49 62V38h2v24z"/></symbol><symbol fill="none" id="sprite-prev-arrow" viewBox="0 0 14 14"><title>prev-arrow</title><circle cx="7" cy="7" r="7" transform="rotate(-180 7 7)" fill="#ECEEF1"/><path d="M8 9L6 7l2-2" stroke="#1D1D1D"/></symbol><symbol class="question-mark" fill="none" id="sprite-question-mark" viewBox="0 0 40 40"><title>question-mark</title><circle cx="20" cy="20" r="20" fill="#fff"/><path d="M16.22 19.06c0 .68.08 1.293.24 1.84a4.59 4.59 0 00.72 1.42c.32.387.707.687 1.16.9.453.213.973.32 1.56.32a3.58 3.58 0 001.54-.32 3.1 3.1 0 001.16-.9c.32-.4.56-.873.72-1.42.173-.547.26-1.16.26-1.84 0-.68-.087-1.293-.26-1.84-.16-.56-.4-1.033-.72-1.42a3.02 3.02 0 00-1.16-.92 3.58 3.58 0 00-1.54-.32c-.587 0-1.107.113-1.56.34-.453.213-.84.52-1.16.92-.307.387-.547.86-.72 1.42a6.467 6.467 0 00-.24 1.82zm10.58 0c0 .973-.12 1.853-.36 2.64a6.655 6.655 0 01-1.02 2.04 5.727 5.727 0 01-1.54 1.46c-.6.387-1.26.667-1.98.84.067.267.213.48.44.64.227.173.513.313.86.42.347.107.747.187 1.2.24.467.053.967.1 1.5.14l-.64 2.28c-1.04-.04-1.933-.147-2.68-.32-.733-.16-1.36-.387-1.88-.68a3.848 3.848 0 01-1.22-1.08 5.03 5.03 0 01-.68-1.48 7.306 7.306 0 01-2.3-.68 6.042 6.042 0 01-1.84-1.44c-.52-.6-.927-1.32-1.22-2.16-.293-.84-.44-1.793-.44-2.86 0-1.187.187-2.227.56-3.12.373-.907.873-1.667 1.5-2.28a6.33 6.33 0 012.2-1.38 7.63 7.63 0 012.64-.46c.947 0 1.84.153 2.68.46.84.307 1.573.767 2.2 1.38.627.613 1.12 1.373 1.48 2.28.36.893.54 1.933.54 3.12z" fill="#1D1D1D"/></symbol></svg>